<?xml version="1.0" encoding="UTF-8" standalone="no"?>
<svg
   xmlns:dc="http://purl.org/dc/elements/1.1/"
   xmlns:cc="http://creativecommons.org/ns#"
   xmlns:rdf="http://www.w3.org/1999/02/22-rdf-syntax-ns#"
   xmlns:svg="http://www.w3.org/2000/svg"
   xmlns="http://www.w3.org/2000/svg"
   xmlns:sodipodi="http://sodipodi.sourceforge.net/DTD/sodipodi-0.dtd"
   xmlns:inkscape="http://www.inkscape.org/namespaces/inkscape"
   id="Layer_1"
   data-name="Layer 1"
   viewBox="0 0 102.31227 101.24587"
   version="1.1"
   inkscape:version="0.91 r13725"
   sodipodi:docname="icon_triclass_jade_lotus.svg"
   width="102.31227"
   height="101.24586">
  <defs
     id="defs4143" />
  <metadata
     id="metadata4147">
    <rdf:RDF>
      <cc:Work
         rdf:about="">
        <dc:format>image/svg+xml</dc:format>
        <dc:type
           rdf:resource="http://purl.org/dc/dcmitype/StillImage" />
        <dc:title>icon-classic</dc:title>
      </cc:Work>
    </rdf:RDF>
  </metadata>
  <sodipodi:namedview
     pagecolor="#ffffff"
     bordercolor="#666666"
     borderopacity="1"
     objecttolerance="10"
     gridtolerance="10"
     guidetolerance="10"
     inkscape:pageopacity="0"
     inkscape:pageshadow="2"
     inkscape:window-width="1680"
     inkscape:window-height="987"
     id="namedview4145"
     showgrid="false"
     fit-margin-top="10"
     fit-margin-bottom="10"
     fit-margin-left="14"
     fit-margin-right="14"
     inkscape:zoom="1.4142136"
     inkscape:cx="-127.07416"
     inkscape:cy="80.677182"
     inkscape:window-x="-8"
     inkscape:window-y="-8"
     inkscape:window-maximized="1"
     inkscape:current-layer="Layer_1"
     borderlayer="true"
     showguides="false">
    <sodipodi:guide
       position="49.991065,-50.136819"
       orientation="-101.24586,0"
       id="guide4158" />
    <sodipodi:guide
       position="-97.0672,49.991072"
       orientation="0,-102.31227"
       id="guide4160" />
  </sodipodi:namedview>
  <title
     id="title4141">icon-classic</title>
  <path
     style="fill:#ffc107;fill-opacity:1;fill-rule:evenodd;stroke:none;stroke-width:1px;stroke-linecap:butt;stroke-linejoin:miter;stroke-opacity:1"
     d="m 50.005244,19.790681 -0.0078,51.988295 C 54.75017,65.017072 62.370891,65.667725 63.483949,53.839006 64.39089,46.957089 54.194802,33.282348 50.005244,19.790681 Z"
     id="path4157"
     inkscape:connector-curvature="0"
     sodipodi:nodetypes="cccc" />
  <path
     style="fill:#ffc107;fill-opacity:1;fill-rule:evenodd;stroke:none;stroke-width:1px;stroke-linecap:butt;stroke-linejoin:miter;stroke-opacity:1"
     d="M 52.375742,81.429678 C 49.286746,69.509803 75.951663,69.09247 65.339,43.120935 66.887227,38.997779 81.492173,24.896754 92.958643,32.196747 67.530209,36.611106 79.901076,51.603264 74.614253,62.908143 68.09073,73.388555 59.587073,69.23389 52.375742,81.429678 Z"
     id="path4159"
     inkscape:connector-curvature="0"
     sodipodi:nodetypes="ccccc" />
  <path
     style="fill:#ffc107;fill-rule:evenodd;stroke:none;stroke-width:1px;stroke-linecap:butt;stroke-linejoin:miter;stroke-opacity:1;fill-opacity:1"
     d="m 62.865599,39.823068 c 0,0 -0.770771,-8.991136 5.771269,-14.222056 -6.855551,1.77705 -10.305837,7.007969 -10.305837,7.007969 1.102864,4.37937 4.534568,7.214087 4.534568,7.214087 z"
     id="path4161"
     inkscape:connector-curvature="0"
     sodipodi:nodetypes="cccc" />
  <path
     style="fill:#ff6f00;fill-opacity:1;fill-rule:evenodd;stroke:none;stroke-width:1px;stroke-linecap:butt;stroke-linejoin:miter;stroke-opacity:1"
     d="M 92.958644,32.196748 C 77.291415,41.338174 90.771971,57.06433 81.622223,66.618244 68.968489,80.088377 61.11177,70.445845 52.353645,81.45865 57.611462,69.592492 69.873888,71.928069 74.408137,62.908143 79.766853,53.269867 67.28442,36.32033 92.958644,32.196748 Z"
     id="path4163"
     inkscape:connector-curvature="0"
     sodipodi:nodetypes="ccccc" />
  <path
     style="fill:#ff6f00;fill-opacity:1;fill-rule:evenodd;stroke:none;stroke-width:1px;stroke-linecap:butt;stroke-linejoin:miter;stroke-opacity:1"
     d="m 62.866513,39.823982 c -0.781592,-9.387201 5.770355,-14.22297 5.770355,-14.22297 -1.520488,5.496244 -0.61835,9.687487 -0.61835,9.687487 0,0 -3.034645,1.400094 -5.152005,4.535483 z"
     id="path4165"
     inkscape:connector-curvature="0"
     sodipodi:nodetypes="cccc" />
  <path
     style="fill:#ff6f00;fill-opacity:1;fill-rule:evenodd;stroke:none;stroke-width:1px;stroke-linecap:butt;stroke-linejoin:miter;stroke-opacity:1"
     d="m 50.010819,19.773994 -0.0078,52.003926 c -4.75274,-6.761902 -12.287525,-6.165936 -13.400585,-17.994657 -0.90694,-6.881918 9.218837,-20.5176 13.408397,-34.009269 z"
     id="path4157-5"
     inkscape:connector-curvature="0"
     sodipodi:nodetypes="cccc" />
  <path
     style="fill:#ffc107;fill-opacity:1;fill-rule:evenodd;stroke:none;stroke-width:1px;stroke-linecap:butt;stroke-linejoin:miter;stroke-opacity:1"
     d="M 47.730106,81.399555 C 50.819106,69.479673 24.134709,69.03673 34.747372,43.06519 33.199142,38.942033 18.594199,24.841006 7.1277291,32.141 32.556162,36.55536 20.185299,51.547521 25.472119,62.852402 31.995642,73.33282 40.518776,69.20376 47.730106,81.399555 Z"
     id="path4159-8"
     inkscape:connector-curvature="0"
     sodipodi:nodetypes="ccccc" />
  <path
     style="fill:#ffc107;fill-rule:evenodd;stroke:none;stroke-width:1px;stroke-linecap:butt;stroke-linejoin:miter;stroke-opacity:1;fill-opacity:1"
     d="m 37.220772,39.767323 c 0,0 0.77077,-8.991138 -5.77127,-14.222059 6.85556,1.777051 10.30584,7.00797 10.30584,7.00797 -1.10286,4.379371 -4.53457,7.214089 -4.53457,7.214089 z"
     id="path4161-5"
     inkscape:connector-curvature="0"
     sodipodi:nodetypes="cccc" />
  <path
     style="fill:#ff6f00;fill-opacity:1;fill-rule:evenodd;stroke:none;stroke-width:1px;stroke-linecap:butt;stroke-linejoin:miter;stroke-opacity:1"
     d="M 7.1277291,32.141001 C 22.588842,41.488546 9.3143991,57.008588 18.464149,66.562503 31.117882,80.03264 38.974602,70.390105 47.732732,81.40291 42.474912,69.536752 30.212492,71.87233 25.678242,62.852402 20.319519,53.214124 32.993031,36.397167 7.1277291,32.141001 Z"
     id="path4163-7"
     inkscape:connector-curvature="0"
     sodipodi:nodetypes="ccccc" />
  <path
     style="fill:#ff6f00;fill-opacity:1;fill-rule:evenodd;stroke:none;stroke-width:1px;stroke-linecap:butt;stroke-linejoin:miter;stroke-opacity:1"
     d="m 37.239392,39.764331 c 0.37534,-9.855953 -5.78989,-14.219067 -5.78989,-14.219067 1.52049,5.496245 0.61835,9.687489 0.61835,9.687489 0,0 3.05418,1.396188 5.17154,4.531578 z"
     id="path4165-6"
     inkscape:connector-curvature="0"
     sodipodi:nodetypes="cccc" />
</svg>
