<?xml version="1.0" encoding="UTF-8" standalone="no"?>
<svg
   xmlns:dc="http://purl.org/dc/elements/1.1/"
   xmlns:cc="http://creativecommons.org/ns#"
   xmlns:rdf="http://www.w3.org/1999/02/22-rdf-syntax-ns#"
   xmlns:svg="http://www.w3.org/2000/svg"
   xmlns="http://www.w3.org/2000/svg"
   xmlns:sodipodi="http://sodipodi.sourceforge.net/DTD/sodipodi-0.dtd"
   xmlns:inkscape="http://www.inkscape.org/namespaces/inkscape"
   id="Layer_1"
   data-name="Layer 1"
   viewBox="0 0 102.31227 101.24587"
   version="1.1"
   inkscape:version="0.91 r13725"
   sodipodi:docname="icon_triclass_kabal.svg"
   width="102.31227"
   height="101.24586">
  <defs
     id="defs4143" />
  <metadata
     id="metadata4147">
    <rdf:RDF>
      <cc:Work
         rdf:about="">
        <dc:format>image/svg+xml</dc:format>
        <dc:type
           rdf:resource="http://purl.org/dc/dcmitype/StillImage" />
        <dc:title>icon-classic</dc:title>
      </cc:Work>
    </rdf:RDF>
  </metadata>
  <sodipodi:namedview
     pagecolor="#ffffff"
     bordercolor="#666666"
     borderopacity="1"
     objecttolerance="10"
     gridtolerance="10"
     guidetolerance="10"
     inkscape:pageopacity="0"
     inkscape:pageshadow="2"
     inkscape:window-width="1680"
     inkscape:window-height="987"
     id="namedview4145"
     showgrid="false"
     fit-margin-top="10"
     fit-margin-bottom="10"
     fit-margin-left="14"
     fit-margin-right="14"
     inkscape:zoom="1"
     inkscape:cx="-163.87959"
     inkscape:cy="242.9512"
     inkscape:window-x="-8"
     inkscape:window-y="-8"
     inkscape:window-maximized="1"
     inkscape:current-layer="Layer_1"
     borderlayer="true"
     showguides="false">
    <sodipodi:guide
       position="49.991065,-50.136819"
       orientation="-101.24586,0"
       id="guide4158" />
    <sodipodi:guide
       position="-97.0672,49.991072"
       orientation="0,-102.31227"
       id="guide4160" />
  </sodipodi:namedview>
  <title
     id="title4141">icon-classic</title>
  <path
     style="fill:#ffc107;fill-opacity:1;fill-rule:evenodd;stroke:none;stroke-width:1px;stroke-linecap:butt;stroke-linejoin:miter;stroke-opacity:1"
     d="m 235.97436,-234.7678 -0.008,51.98829 c 4.75273,-6.7619 12.37345,-6.11125 13.48651,-17.93997 0.90694,-6.88192 -9.28915,-20.55666 -13.47871,-34.04832 z"
     id="path4157"
     inkscape:connector-curvature="0"
     sodipodi:nodetypes="cccc" />
  <path
     style="fill:#ffc107;fill-opacity:1;fill-rule:evenodd;stroke:none;stroke-width:1px;stroke-linecap:butt;stroke-linejoin:miter;stroke-opacity:1"
     d="m 238.34486,-173.12881 c -3.08899,-11.91987 23.57592,-12.33721 12.96326,-38.30874 1.54823,-4.12316 16.15317,-18.22418 27.61964,-10.92419 -25.42843,4.41436 -13.05756,19.40652 -18.34439,30.7114 -6.52352,10.48041 -15.02718,6.32574 -22.23851,18.52153 z"
     id="path4159"
     inkscape:connector-curvature="0"
     sodipodi:nodetypes="ccccc" />
  <path
     style="fill:#ffc107;fill-opacity:1;fill-rule:evenodd;stroke:none;stroke-width:1px;stroke-linecap:butt;stroke-linejoin:miter;stroke-opacity:1"
     d="m 248.83472,-214.73542 c 0,0 -0.77077,-8.99113 5.77127,-14.22205 -6.85555,1.77705 -10.30584,7.00797 -10.30584,7.00797 1.10286,4.37937 4.53457,7.21408 4.53457,7.21408 z"
     id="path4161"
     inkscape:connector-curvature="0"
     sodipodi:nodetypes="cccc" />
  <path
     style="fill:#ff6f00;fill-opacity:1;fill-rule:evenodd;stroke:none;stroke-width:1px;stroke-linecap:butt;stroke-linejoin:miter;stroke-opacity:1"
     d="m 278.92776,-222.36174 c -15.66723,9.14143 -2.18667,24.86758 -11.33642,34.4215 -12.65373,13.47013 -20.51045,3.8276 -29.26858,14.8404 5.25782,-11.86615 17.52025,-9.53058 22.0545,-18.5505 5.35871,-9.63828 -7.12372,-26.58782 18.5505,-30.7114 z"
     id="path4163"
     inkscape:connector-curvature="0"
     sodipodi:nodetypes="ccccc" />
  <path
     style="fill:#ff6f00;fill-opacity:1;fill-rule:evenodd;stroke:none;stroke-width:1px;stroke-linecap:butt;stroke-linejoin:miter;stroke-opacity:1"
     d="m 248.83563,-214.7345 c -0.78159,-9.3872 5.77036,-14.22297 5.77036,-14.22297 -1.52049,5.49624 -0.61835,9.68748 -0.61835,9.68748 0,0 -3.03465,1.4001 -5.15201,4.53549 z"
     id="path4165"
     inkscape:connector-curvature="0"
     sodipodi:nodetypes="cccc" />
  <path
     style="fill:#ff6f00;fill-opacity:1;fill-rule:evenodd;stroke:none;stroke-width:1px;stroke-linecap:butt;stroke-linejoin:miter;stroke-opacity:1"
     d="m 235.97994,-234.78449 -0.008,52.00392 c -4.75274,-6.7619 -12.28753,-6.16593 -13.40059,-17.99465 -0.90694,-6.88192 9.21884,-20.5176 13.4084,-34.00927 z"
     id="path4157-5"
     inkscape:connector-curvature="0"
     sodipodi:nodetypes="cccc" />
  <path
     style="fill:#ffc107;fill-opacity:1;fill-rule:evenodd;stroke:none;stroke-width:1px;stroke-linecap:butt;stroke-linejoin:miter;stroke-opacity:1"
     d="m 233.69923,-173.15893 c 3.089,-11.91988 -23.5954,-12.36283 -12.98274,-38.33437 -1.54823,-4.12315 -16.15317,-18.22418 -27.61964,-10.92419 25.42843,4.41436 13.05757,19.40653 18.34439,30.71141 6.52352,10.48041 15.04666,6.35135 22.25799,18.54715 z"
     id="path4159-8"
     inkscape:connector-curvature="0"
     sodipodi:nodetypes="ccccc" />
  <path
     style="fill:#ffc107;fill-opacity:1;fill-rule:evenodd;stroke:none;stroke-width:1px;stroke-linecap:butt;stroke-linejoin:miter;stroke-opacity:1"
     d="m 223.18989,-214.79116 c 0,0 0.77077,-8.99114 -5.77127,-14.22206 6.85556,1.77705 10.30584,7.00797 10.30584,7.00797 -1.10286,4.37937 -4.53457,7.21409 -4.53457,7.21409 z"
     id="path4161-5"
     inkscape:connector-curvature="0"
     sodipodi:nodetypes="cccc" />
  <path
     style="fill:#ff6f00;fill-opacity:1;fill-rule:evenodd;stroke:none;stroke-width:1px;stroke-linecap:butt;stroke-linejoin:miter;stroke-opacity:1"
     d="m 193.09685,-222.41748 c 15.46111,9.34754 2.18667,24.86758 11.33642,34.4215 12.65373,13.47013 20.51045,3.8276 29.26858,14.8404 -5.25782,-11.86615 -17.52024,-9.53058 -22.05449,-18.5505 -5.35872,-9.63828 7.31479,-26.45524 -18.55051,-30.7114 z"
     id="path4163-7"
     inkscape:connector-curvature="0"
     sodipodi:nodetypes="ccccc" />
  <path
     style="fill:#ff6f00;fill-opacity:1;fill-rule:evenodd;stroke:none;stroke-width:1px;stroke-linecap:butt;stroke-linejoin:miter;stroke-opacity:1"
     d="m 223.20851,-214.79415 c 0.37534,-9.85596 -5.78989,-14.21907 -5.78989,-14.21907 1.52049,5.49624 0.61835,9.68749 0.61835,9.68749 0,0 3.05418,1.39619 5.17154,4.53158 z"
     id="path4165-6"
     inkscape:connector-curvature="0"
     sodipodi:nodetypes="cccc" />
  <path
     style="fill:#ff6f00;fill-opacity:1;fill-rule:evenodd;stroke:none;stroke-width:1px;stroke-linecap:butt;stroke-linejoin:miter;stroke-opacity:1"
     d="m 313.24835,-176.11682 c 0.19031,-2.565 2.72808,-4.20986 4.38909,-4.26409 4.31265,2.15549 10.80498,8.42151 12.75825,12.92615 0.009,1.85298 -2.63399,4.48003 -4.24264,4.41941 -4.79063,-3.59615 -9.02915,-7.33449 -12.9047,-13.08147 z"
     id="path4216"
     inkscape:connector-curvature="0"
     sodipodi:nodetypes="ccccc" />
  <path
     style="fill:#ff6f00;fill-opacity:1;fill-rule:evenodd;stroke:none;stroke-width:1px;stroke-linecap:butt;stroke-linejoin:miter;stroke-opacity:1"
     d="m 371.2311,-168.33865 c 1.31589,-4.08436 9.36207,-10.55737 12.9047,-11.49048 2.54263,0.56689 3.65613,2.30439 4.24264,4.59619 -1.78848,2.91681 -8.89439,9.95444 -12.72792,11.66726 -2.33353,-0.41218 -4.1103,-2.0636 -4.41942,-4.77297 z"
     id="path4218"
     inkscape:connector-curvature="0"
     sodipodi:nodetypes="ccccc" />
  <path
     style="fill:#ff6f00;fill-opacity:1;fill-rule:evenodd;stroke:none;stroke-width:1px;stroke-linecap:butt;stroke-linejoin:miter;stroke-opacity:1"
     d="m 323.14784,-181.24335 13.08148,-14.49568 11.49048,8.48528 c 0,0 -8.77556,7.86395 -16.26345,13.96536 -3.48789,-4.5861 -8.30851,-7.95496 -8.30851,-7.95496 z"
     id="path4220"
     inkscape:connector-curvature="0"
     sodipodi:nodetypes="ccccc" />
  <path
     style="fill:#ff6f00;fill-opacity:1;fill-rule:evenodd;stroke:none;stroke-width:1px;stroke-linecap:butt;stroke-linejoin:miter;stroke-opacity:1"
     d="m 365.57425,-201.04234 c 3.5284,-1.81626 15.2028,-12.72792 15.2028,-12.72792 0,0 4.789,1.66035 7.42462,7.07107 3.25433,-7.93593 -3.18198,-12.02081 -3.18198,-12.02081 0,0 5.81822,-12.35512 -9.01562,-16.79379 -2.54785,-8.32775 -7.77817,-9.54594 -7.77817,-9.54594 1.85425,8.03562 1.59099,11.31371 1.59099,11.31371 l -6.01041,5.12652 c 0,0 -4.15089,-2.96456 -9.72272,-2.12132 4.32767,3.76006 5.48008,6.01041 5.48008,6.01041 l -6.54074,7.24784 c 0,0 6.45948,8.26861 12.55115,16.44023 z"
     id="path4222"
     inkscape:connector-curvature="0"
     sodipodi:nodetypes="cccccccccccc" />
  <path
     style="fill:#ff6f00;fill-opacity:1;fill-rule:evenodd;stroke:none;stroke-width:1px;stroke-linecap:butt;stroke-linejoin:miter;stroke-opacity:1"
     d="m 369.99367,-173.46517 c 3.05742,-4.01689 8.48528,-7.24785 8.48528,-7.24785 0,0 -24.49529,-27.48288 -39.24443,-47.37615 0.98399,-8.57956 4.94975,-15.02602 4.94975,-15.02602 0,0 -7.37988,1.64821 -12.55115,9.01561 -14.54043,-4.12308 -16.79378,10.42983 -16.79378,10.42983 0,0 -6.11595,1.28947 -7.24785,7.24784 4.52496,-2.35013 9.54595,-1.59099 9.54595,-1.59099 l 2.82842,3.35876 c 0,0 -4.44035,4.17137 -2.65165,15.02602 3.20292,-5.76237 8.48528,-9.8995 8.48528,-9.8995 0,0 20.10032,16.21448 44.19418,36.06245 z"
     id="path4224"
     inkscape:connector-curvature="0"
     sodipodi:nodetypes="cccccccccccc" />
  <path
     style="fill:#ffc107;fill-opacity:1;fill-rule:evenodd;stroke:none;stroke-width:1px;stroke-linecap:butt;stroke-linejoin:miter;stroke-opacity:1"
     d="m 342.93832,-242.46091 c -5.41573,2.28497 -9.4375,7.75 -9.4375,7.75 l 3.6875,3.75 c 0,0 0.35322,-5.97248 5.75,-11.5 z"
     id="path4226"
     inkscape:connector-curvature="0"
     sodipodi:nodetypes="cccc" />
  <path
     style="fill:#ffc107;fill-opacity:1;fill-rule:evenodd;stroke:none;stroke-width:1px;stroke-linecap:butt;stroke-linejoin:miter;stroke-opacity:1"
     d="m 308.31821,-217.27806 c 1.98092,-3.68039 5.86672,-5.14445 5.86672,-5.14445 l 0.30622,2.10171 c 0,0 -3.55361,0.77154 -6.17294,3.04274 z"
     id="path4228"
     inkscape:connector-curvature="0"
     sodipodi:nodetypes="cccc" />
  <path
     style="fill:#ffc107;fill-opacity:1;fill-rule:evenodd;stroke:none;stroke-width:1px;stroke-linecap:butt;stroke-linejoin:miter;stroke-opacity:1"
     d="m 317.45882,-201.06638 c -0.20208,-6.16865 3.03737,-11.55483 3.03737,-11.55483 l 3.00521,2.91682 c 0,0 -3.58659,3.40456 -6.04258,8.63801 z"
     id="path4230"
     inkscape:connector-curvature="0"
     sodipodi:nodetypes="cccc" />
  <path
     style="fill:#ffc107;fill-opacity:1;fill-rule:evenodd;stroke:none;stroke-width:1px;stroke-linecap:butt;stroke-linejoin:miter;stroke-opacity:1"
     d="m 375.47374,-181.95045 c 0,0 -31.09099,-35.83926 -44.37095,-50.38136 -2.23141,-1.10707 -6.67372,-0.89645 -8.66205,1.23744 -1.69146,1.81527 -2.45361,3.77864 -1.23744,6.89429 6.96141,-0.24311 50.8233,44.63611 50.8233,44.63611 1.56564,-1.38362 3.44714,-2.38648 3.44714,-2.38648 z"
     id="path4232"
     inkscape:connector-curvature="0"
     sodipodi:nodetypes="ccsccc" />
  <path
     style="fill:#ffc107;fill-opacity:1;fill-rule:evenodd;stroke:none;stroke-width:1px;stroke-linecap:butt;stroke-linejoin:miter;stroke-opacity:1"
     d="m 388.18832,-208.96091 c 0.34837,-5.90554 -3.4375,-9.0625 -3.4375,-9.0625 l -1.8125,2.625 c 0,0 3.46413,2.09303 5.25,6.4375 z"
     id="path4234"
     inkscape:connector-curvature="0"
     sodipodi:nodetypes="cccc" />
  <path
     style="fill:#ffc107;fill-opacity:1;fill-rule:evenodd;stroke:none;stroke-width:1px;stroke-linecap:butt;stroke-linejoin:miter;stroke-opacity:1"
     d="m 369.12582,-243.96091 c 4.38265,3.06819 5.8125,7.6875 5.8125,7.6875 l -3.375,1.4375 c 0,0 -0.19102,-4.52551 -2.4375,-9.125 z"
     id="path4236"
     inkscape:connector-curvature="0"
     sodipodi:nodetypes="cccc" />
  <path
     style="fill:#ffc107;fill-opacity:1;fill-rule:evenodd;stroke:none;stroke-width:1px;stroke-linecap:butt;stroke-linejoin:miter;stroke-opacity:1"
     d="m 355.93832,-230.33591 c 4.02021,0.27743 7.4375,2.375 7.4375,2.375 l -2.25,2 c 0,0 -1.20771,-2.24619 -5.1875,-4.375 z"
     id="path4238"
     inkscape:connector-curvature="0"
     sodipodi:nodetypes="cccc" />
  <path
     style="fill:#ffc107;fill-opacity:1;fill-rule:evenodd;stroke:none;stroke-width:1px;stroke-linecap:butt;stroke-linejoin:miter;stroke-opacity:1"
     d="m 357.06332,-217.21091 c 0,0 9.49216,-11.61446 15.9375,-15.0625 1.80922,-0.96788 4.02659,-1.93689 6,-1.375 2.6495,0.75438 5.875,5.8125 5.875,5.8125 0,0 -2.43608,0.0483 -3.5,0.5625 -7.1695,3.46474 -17.625,16.125 -17.625,16.125 l -0.5,0.4375 z"
     id="path4240"
     inkscape:connector-curvature="0"
     sodipodi:nodetypes="csscsccc" />
  <path
     style="fill:#ffc107;fill-opacity:1;fill-rule:evenodd;stroke:none;stroke-width:1px;stroke-linecap:butt;stroke-linejoin:miter;stroke-opacity:1"
     d="m 336.20663,-194.97608 -0.58395,1.30178 1.81564,1.52589 -10.375,10.5 c 0,0 2.2678,1.40582 4.125,3.3125 5.17176,-5.25279 10.8125,-10.625 10.8125,-10.625 l 3.25,2.375 1.46025,-0.59467 z"
     id="path4242"
     inkscape:connector-curvature="0"
     sodipodi:nodetypes="ccccccccc" />
  <path
     style="fill:#ffc107;fill-opacity:1;fill-rule:evenodd;stroke:none;stroke-width:1px;stroke-linecap:butt;stroke-linejoin:miter;stroke-opacity:1"
     d="m 318.56332,-178.83591 c 0,0 8.24577,6.59117 9.875,9 -0.24578,1.84632 -1.75,1.9375 -1.75,1.9375 l -9.0625,-9.3125 c 0,0 -0.3691,-1.60404 0.1875,-1.9375 0.23233,-0.1392 0.75,0.3125 0.75,0.3125 z"
     id="path4244"
     inkscape:connector-curvature="0"
     sodipodi:nodetypes="ccccsc" />
  <path
     style="fill:#ffc107;fill-opacity:1;fill-rule:evenodd;stroke:none;stroke-width:1px;stroke-linecap:butt;stroke-linejoin:miter;stroke-opacity:1"
     d="m 383.81332,-178.89841 c -2.14251,0.70764 -8.57027,5.28754 -9.8125,7.6875 0.75777,2.64995 2.6875,2.75 2.6875,2.75 2.6938,-1.66217 7.85938,-5.81827 9.4375,-8.5 -0.54688,-0.80674 -0.66999,-1.27015 -2.3125,-1.9375 z"
     id="path4246"
     inkscape:connector-curvature="0"
     sodipodi:nodetypes="ccccc" />
  <path
     style="opacity:0.92948716;fill:#ff6f00;fill-opacity:1;stroke:none;stroke-width:0;stroke-linecap:square;stroke-linejoin:miter;stroke-miterlimit:4;stroke-dasharray:none;stroke-opacity:1"
     d="M 35.53125 11.796875 C 30.436448 13.02284 22.481428 18.505907 18.916016 25.054688 C 21.725601 28.103469 23.333984 28.589844 23.333984 28.589844 C 23.333984 28.589844 19.900922 31.883142 19.882812 33.904297 C 19.864708 35.925452 21.754642 37.48343 23.179688 37.8125 C 24.604732 38.141569 25.808594 36.544922 25.808594 36.544922 L 29.130859 41.859375 A 31.249982 31.249982 0 0 0 24.75 57.746094 A 31.249982 31.249982 0 0 0 56 88.996094 A 31.249982 31.249982 0 0 0 87.25 57.746094 A 31.249982 31.249982 0 0 0 56 26.496094 A 31.249982 31.249982 0 0 0 49.837891 27.111328 L 45.607422 22.580078 C 45.607422 22.580078 47.794695 21.739066 47.988281 20.09375 C 48.181867 18.448434 46.595723 16.124162 44.724609 15.509766 C 42.853497 14.89537 39.244141 16.923828 39.244141 16.923828 C 39.244141 16.923828 38.496163 14.008095 35.53125 11.796875 z M 41.189453 24.701172 C 43.133597 26.955983 44.196793 28.345638 44.484375 28.724609 A 31.249982 31.249982 0 0 0 32.402344 37.316406 C 32.11525 37.064744 31.030717 36.006253 29.255859 32.833984 C 31.783826 29.579307 37.012497 25.912726 41.189453 24.701172 z M 56.541016 33.916016 C 66.5063 33.82177 76.800865 39.478231 80.25 55.621094 C 65.35969 69.130275 48.082123 57.039853 45.166016 49.980469 C 44.843656 49.13983 42.445964 49.274365 42.25 50.511719 C 42.289657 54.778033 39.7728 56.555104 39.75 56.496094 C 39.75 56.496094 34.549716 57.181588 34.375 49.496094 C 34.376095 41.515801 45.247026 34.022827 56.541016 33.916016 z M 78.375 64.121094 C 78.923364 66.977456 76.611256 69.569011 74.5 70.251953 C 72.388744 70.934896 68.875 67.996094 68.875 67.996094 C 68.875 67.996094 73.583997 67.363525 78.375 64.121094 z "
     transform="translate(-7.6293959e-6,0)"
     id="path4259" />
  <path
     style="fill:#ffc107;fill-opacity:1;fill-rule:evenodd;stroke:none;stroke-width:1px;stroke-linecap:butt;stroke-linejoin:miter;stroke-opacity:1"
     d="m 35.118711,13.276188 c -5.482388,1.337562 -10.83969,7.103552 -10.83969,7.103552 0,0 4.156925,0.320245 6.385185,1.247399 3.81925,-3.138712 7.41031,-4.675476 7.41031,-4.675476 0,0 -1.09734,-2.538162 -2.955805,-3.675475 z"
     id="path4273"
     inkscape:connector-curvature="0"
     sodipodi:nodetypes="ccccc" />
  <path
     style="fill:#ffc107;fill-rule:evenodd;stroke:none;stroke-width:1px;stroke-linecap:butt;stroke-linejoin:miter;stroke-opacity:1;fill-opacity:1"
     d="m 29.499992,26.495857 c 6.289204,-7.863413 13,-9.308057 13,-9.308057 0,0 1.80024,-0.324961 2.46967,0.323223 0.66943,0.648184 1.03033,2.234834 1.03033,2.234834 0,0 -5.900931,1.525203 -13.204505,6.411612 -1.027999,-0.06334 -1.983299,0.246848 -3.295495,0.338388 z"
     id="path4275"
     inkscape:connector-curvature="0"
     sodipodi:nodetypes="cccccc" />
  <path
     style="fill:#ffc107;fill-rule:evenodd;stroke:none;stroke-width:1px;stroke-linecap:butt;stroke-linejoin:miter;stroke-opacity:1;fill-opacity:1"
     d="m 43.382575,23.864576 1.603553,-0.75 c 0,0 2.385531,2.070687 3.263864,3.381281 -1.198794,0.161545 -2.397748,0.646447 -2.397748,0.646447 z"
     id="path4277"
     inkscape:connector-curvature="0"
     sodipodi:nodetypes="ccccc" />
  <path
     style="fill:#ffc107;fill-opacity:1;fill-rule:evenodd;stroke:none;stroke-width:1px;stroke-linecap:butt;stroke-linejoin:miter;stroke-opacity:1"
     d="m 36.499992,40.245857 c 0,0 8.254761,-7.681869 13.5,-9 5.926953,-1.489446 12.67246,-0.747653 18.25,1.75 4.144168,1.855781 7.439746,5.499912 10,9.25 2.574014,3.770243 3.591294,8.407671 5,12.75 0.717261,2.210953 1.75,6.75 1.75,6.75 0,0 1.335122,-4.799155 1.25,-7.25 -0.145925,-4.201466 -0.876073,-8.621978 -3,-12.25 C 80.598945,37.717427 77.101555,33.81602 72.556211,31.19408 68.33171,28.757215 64.566028,27.076873 59.71338,26.590527 c -3.498311,-0.35061 -9.146978,0.48805 -12.463388,1.65533 -3.575514,1.258472 -6.855095,4.06221 -9,7.1875 -1.109897,1.617205 -1.75,4.8125 -1.75,4.8125 z"
     id="path4279"
     inkscape:connector-curvature="0"
     sodipodi:nodetypes="csssscssssssc" />
  <path
     style="fill:#ffc107;fill-opacity:1;fill-rule:evenodd;stroke:none;stroke-width:1px;stroke-linecap:butt;stroke-linejoin:miter;stroke-opacity:1"
     d="m 34.124992,44.120857 c 0,0 -4.260874,6.357934 -3.875,9.125 0.399039,2.861466 2.28802,5.738089 4.75,7.25 1.286084,0.789789 3.164885,1.203737 4.5,0.5 1.253229,-0.660576 2.125,-6.812501 2.125,-6.812501 0,0 -1.195415,2.31975 -1.9375,2.250001 -2.190409,-0.205876 -3.222402,-0.563522 -4.375,-2.4375 -1.198801,-1.949099 -1.5,-5.0625 -1.5,-5.0625 z"
     id="path4281"
     inkscape:connector-curvature="0"
     sodipodi:nodetypes="cssscsscc" />
  <path
     style="fill:#ffc107;fill-opacity:1;fill-rule:evenodd;stroke:none;stroke-width:1px;stroke-linecap:butt;stroke-linejoin:miter;stroke-opacity:1"
     d="m 44.874992,49.745857 c 0,0 4.157892,5.180357 6.6875,7.125 2.422967,1.862662 5.288042,3.246951 8.25,4 3.476606,0.883894 6.39631,0.947739 9.9375,0.375 2.291619,-0.370638 3.718751,-1.063705 5.75,-2.1875 1.093764,-0.605128 2.118183,-1.243498 3.0625,-2.0625 0.356124,-0.308865 1.75,-1.4375 1.75,-1.4375 0,0 0.533149,2.174666 0.1875,2.9375 -0.88759,1.958873 -3.559973,3.696941 -5.5,4.625 -3.356019,1.605433 -6.780949,2.030457 -10.5,2.125 -3.415563,0.08683 -7.068338,-0.254754 -10.25,-1.5 -3.407405,-1.333597 -6.678737,-3.646638 -9.25,-6.25 -1.074999,-1.088419 -1.936546,-2.502661 -2.25,-4 -0.171601,-0.819721 -0.181468,-1.782209 0.25,-2.5 0.309592,-0.515038 1.875,-1.25 1.875,-1.25 z"
     id="path4283"
     inkscape:connector-curvature="0"
     sodipodi:nodetypes="cssssscsssssssc" />
  <path
     style="fill:#ffc107;fill-opacity:1;fill-rule:evenodd;stroke:none;stroke-width:1px;stroke-linecap:butt;stroke-linejoin:miter;stroke-opacity:1"
     d="m 68.812492,67.995857 c 0,0 2.058563,1.704339 3.1875,2.0625 1.114877,0.3537 2.36008,0.07449 3.5,-0.1875 0.874723,-0.201037 1.750707,-0.380919 2.5,-0.875 0.688709,-0.454132 1.142639,-1.080759 1.625,-1.75 0.653726,-0.906996 1.5625,-3.375 1.5625,-3.375 0,0 -0.798745,5.257392 -1.9375,7.125 -0.736236,1.207459 -1.774832,2.293626 -3,3 -1.120748,0.64617 -2.46787,1.172497 -3.75,1 -2.294732,-0.308731 -5.59993,-2.372235 -5.875,-4.1875 1.287431,-1.565265 2.1875,-2.8125 2.1875,-2.8125 z"
     id="path4285"
     inkscape:connector-curvature="0"
     sodipodi:nodetypes="csssscssscc" />
</svg>
