<?xml version="1.0" encoding="UTF-8" standalone="no"?>
<svg
   xmlns:dc="http://purl.org/dc/elements/1.1/"
   xmlns:cc="http://creativecommons.org/ns#"
   xmlns:rdf="http://www.w3.org/1999/02/22-rdf-syntax-ns#"
   xmlns:svg="http://www.w3.org/2000/svg"
   xmlns="http://www.w3.org/2000/svg"
   xmlns:sodipodi="http://sodipodi.sourceforge.net/DTD/sodipodi-0.dtd"
   xmlns:inkscape="http://www.inkscape.org/namespaces/inkscape"
   id="Layer_1"
   data-name="Layer 1"
   viewBox="0 0 102.31227 101.24587"
   version="1.1"
   inkscape:version="0.91 r13725"
   sodipodi:docname="icon_triclass_grimy_goons.svg"
   width="102.31227"
   height="101.24586">
  <defs
     id="defs4143" />
  <metadata
     id="metadata4147">
    <rdf:RDF>
      <cc:Work
         rdf:about="">
        <dc:format>image/svg+xml</dc:format>
        <dc:type
           rdf:resource="http://purl.org/dc/dcmitype/StillImage" />
        <dc:title>icon-classic</dc:title>
      </cc:Work>
    </rdf:RDF>
  </metadata>
  <sodipodi:namedview
     pagecolor="#ffffff"
     bordercolor="#666666"
     borderopacity="1"
     objecttolerance="10"
     gridtolerance="10"
     guidetolerance="10"
     inkscape:pageopacity="0"
     inkscape:pageshadow="2"
     inkscape:window-width="1680"
     inkscape:window-height="987"
     id="namedview4145"
     showgrid="false"
     fit-margin-top="10"
     fit-margin-bottom="10"
     fit-margin-left="14"
     fit-margin-right="14"
     inkscape:zoom="0.70710678"
     inkscape:cx="-420.14674"
     inkscape:cy="248.61777"
     inkscape:window-x="-8"
     inkscape:window-y="-8"
     inkscape:window-maximized="1"
     inkscape:current-layer="Layer_1"
     borderlayer="true"
     showguides="false">
    <sodipodi:guide
       position="49.991065,-50.136819"
       orientation="-101.24586,0"
       id="guide4158" />
    <sodipodi:guide
       position="-97.0672,49.991072"
       orientation="0,-102.31227"
       id="guide4160" />
  </sodipodi:namedview>
  <title
     id="title4141">icon-classic</title>
  <path
     style="fill:#ffc107;fill-opacity:1;fill-rule:evenodd;stroke:none;stroke-width:1px;stroke-linecap:butt;stroke-linejoin:miter;stroke-opacity:1"
     d="m 235.97436,-234.7678 -0.008,51.98829 c 4.75273,-6.7619 12.37345,-6.11125 13.48651,-17.93997 0.90694,-6.88192 -9.28915,-20.55666 -13.47871,-34.04832 z"
     id="path4157"
     inkscape:connector-curvature="0"
     sodipodi:nodetypes="cccc" />
  <path
     style="fill:#ffc107;fill-opacity:1;fill-rule:evenodd;stroke:none;stroke-width:1px;stroke-linecap:butt;stroke-linejoin:miter;stroke-opacity:1"
     d="m 238.34486,-173.12881 c -3.08899,-11.91987 23.57592,-12.33721 12.96326,-38.30874 1.54823,-4.12316 16.15317,-18.22418 27.61964,-10.92419 -25.42843,4.41436 -13.05756,19.40652 -18.34439,30.7114 -6.52352,10.48041 -15.02718,6.32574 -22.23851,18.52153 z"
     id="path4159"
     inkscape:connector-curvature="0"
     sodipodi:nodetypes="ccccc" />
  <path
     style="fill:#ffc107;fill-opacity:1;fill-rule:evenodd;stroke:none;stroke-width:1px;stroke-linecap:butt;stroke-linejoin:miter;stroke-opacity:1"
     d="m 248.83472,-214.73542 c 0,0 -0.77077,-8.99113 5.77127,-14.22205 -6.85555,1.77705 -10.30584,7.00797 -10.30584,7.00797 1.10286,4.37937 4.53457,7.21408 4.53457,7.21408 z"
     id="path4161"
     inkscape:connector-curvature="0"
     sodipodi:nodetypes="cccc" />
  <path
     style="fill:#ff6f00;fill-opacity:1;fill-rule:evenodd;stroke:none;stroke-width:1px;stroke-linecap:butt;stroke-linejoin:miter;stroke-opacity:1"
     d="m 278.92776,-222.36174 c -15.66723,9.14143 -2.18667,24.86758 -11.33642,34.4215 -12.65373,13.47013 -20.51045,3.8276 -29.26858,14.8404 5.25782,-11.86615 17.52025,-9.53058 22.0545,-18.5505 5.35871,-9.63828 -7.12372,-26.58782 18.5505,-30.7114 z"
     id="path4163"
     inkscape:connector-curvature="0"
     sodipodi:nodetypes="ccccc" />
  <path
     style="fill:#ff6f00;fill-opacity:1;fill-rule:evenodd;stroke:none;stroke-width:1px;stroke-linecap:butt;stroke-linejoin:miter;stroke-opacity:1"
     d="m 248.83563,-214.7345 c -0.78159,-9.3872 5.77036,-14.22297 5.77036,-14.22297 -1.52049,5.49624 -0.61835,9.68748 -0.61835,9.68748 0,0 -3.03465,1.4001 -5.15201,4.53549 z"
     id="path4165"
     inkscape:connector-curvature="0"
     sodipodi:nodetypes="cccc" />
  <path
     style="fill:#ff6f00;fill-opacity:1;fill-rule:evenodd;stroke:none;stroke-width:1px;stroke-linecap:butt;stroke-linejoin:miter;stroke-opacity:1"
     d="m 235.97994,-234.78449 -0.008,52.00392 c -4.75274,-6.7619 -12.28753,-6.16593 -13.40059,-17.99465 -0.90694,-6.88192 9.21884,-20.5176 13.4084,-34.00927 z"
     id="path4157-5"
     inkscape:connector-curvature="0"
     sodipodi:nodetypes="cccc" />
  <path
     style="fill:#ffc107;fill-opacity:1;fill-rule:evenodd;stroke:none;stroke-width:1px;stroke-linecap:butt;stroke-linejoin:miter;stroke-opacity:1"
     d="m 233.69923,-173.15893 c 3.089,-11.91988 -23.5954,-12.36283 -12.98274,-38.33437 -1.54823,-4.12315 -16.15317,-18.22418 -27.61964,-10.92419 25.42843,4.41436 13.05757,19.40653 18.34439,30.71141 6.52352,10.48041 15.04666,6.35135 22.25799,18.54715 z"
     id="path4159-8"
     inkscape:connector-curvature="0"
     sodipodi:nodetypes="ccccc" />
  <path
     style="fill:#ffc107;fill-opacity:1;fill-rule:evenodd;stroke:none;stroke-width:1px;stroke-linecap:butt;stroke-linejoin:miter;stroke-opacity:1"
     d="m 223.18989,-214.79116 c 0,0 0.77077,-8.99114 -5.77127,-14.22206 6.85556,1.77705 10.30584,7.00797 10.30584,7.00797 -1.10286,4.37937 -4.53457,7.21409 -4.53457,7.21409 z"
     id="path4161-5"
     inkscape:connector-curvature="0"
     sodipodi:nodetypes="cccc" />
  <path
     style="fill:#ff6f00;fill-opacity:1;fill-rule:evenodd;stroke:none;stroke-width:1px;stroke-linecap:butt;stroke-linejoin:miter;stroke-opacity:1"
     d="m 193.09685,-222.41748 c 15.46111,9.34754 2.18667,24.86758 11.33642,34.4215 12.65373,13.47013 20.51045,3.8276 29.26858,14.8404 -5.25782,-11.86615 -17.52024,-9.53058 -22.05449,-18.5505 -5.35872,-9.63828 7.31479,-26.45524 -18.55051,-30.7114 z"
     id="path4163-7"
     inkscape:connector-curvature="0"
     sodipodi:nodetypes="ccccc" />
  <path
     style="fill:#ff6f00;fill-opacity:1;fill-rule:evenodd;stroke:none;stroke-width:1px;stroke-linecap:butt;stroke-linejoin:miter;stroke-opacity:1"
     d="m 223.20851,-214.79415 c 0.37534,-9.85596 -5.78989,-14.21907 -5.78989,-14.21907 1.52049,5.49624 0.61835,9.68749 0.61835,9.68749 0,0 3.05418,1.39619 5.17154,4.53158 z"
     id="path4165-6"
     inkscape:connector-curvature="0"
     sodipodi:nodetypes="cccc" />
  <path
     style="fill:#ff6f00;fill-rule:evenodd;stroke:none;stroke-width:1px;stroke-linecap:butt;stroke-linejoin:miter;stroke-opacity:1;fill-opacity:1"
     d="m 13.435021,77.02745 c 0.190307,-2.565 2.728077,-4.209863 4.389087,-4.264087 4.312656,2.155489 10.804988,8.42151 12.758252,12.926145 0.0087,1.852984 -2.633992,4.480031 -4.24264,4.419417 C 21.549091,86.512776 17.310574,82.774432 13.435021,77.02745 Z"
     id="path4216"
     inkscape:connector-curvature="0"
     sodipodi:nodetypes="ccccc" />
  <path
     style="fill:#ff6f00;fill-rule:evenodd;stroke:none;stroke-width:1px;stroke-linecap:butt;stroke-linejoin:miter;stroke-opacity:1;fill-opacity:1"
     d="m 71.417777,84.805625 c 1.315888,-4.084362 9.362068,-10.557377 12.904698,-11.490486 2.54263,0.566892 3.656125,2.30439 4.242641,4.596195 -1.788484,2.916805 -8.894393,9.95444 -12.727922,11.667261 -2.333529,-0.41218 -4.110304,-2.063608 -4.419417,-4.77297 z"
     id="path4218"
     inkscape:connector-curvature="0"
     sodipodi:nodetypes="ccccc" />
  <path
     style="fill:#ff6f00;fill-rule:evenodd;stroke:none;stroke-width:1px;stroke-linecap:butt;stroke-linejoin:miter;stroke-opacity:1;fill-opacity:1"
     d="m 23.334516,71.900926 13.081475,-14.495689 11.490485,8.485281 c 0,0 -8.775568,7.863956 -16.263456,13.965359 -3.487888,-4.586099 -8.308504,-7.954951 -8.308504,-7.954951 z"
     id="path4220"
     inkscape:connector-curvature="0"
     sodipodi:nodetypes="ccccc" />
  <path
     style="fill:#ff6f00;fill-rule:evenodd;stroke:none;stroke-width:1px;stroke-linecap:butt;stroke-linejoin:miter;stroke-opacity:1;fill-opacity:1"
     d="m 65.760922,52.101936 c 3.528404,-1.816263 15.202796,-12.727922 15.202796,-12.727922 0,0 4.789002,1.660351 7.424621,7.071068 3.254338,-7.935926 -3.18198,-12.020815 -3.18198,-12.020815 0,0 5.818225,-12.35512 -9.015612,-16.793786 -2.547854,-8.327754 -7.778174,-9.5459419 -7.778174,-9.5459419 1.854246,8.0356229 1.59099,11.3137089 1.59099,11.3137089 l -6.010407,5.126524 c 0,0 -4.150889,-2.964562 -9.722719,-2.121321 4.327667,3.760057 5.480078,6.010408 5.480078,6.010408 l -6.540738,7.247844 c 0,0 6.459479,8.26861 12.551145,16.440233 z"
     id="path4222"
     inkscape:connector-curvature="0"
     sodipodi:nodetypes="cccccccccccc" />
  <path
     style="fill:#ff6f00;fill-rule:evenodd;stroke:none;stroke-width:1px;stroke-linecap:butt;stroke-linejoin:miter;stroke-opacity:1;fill-opacity:1"
     d="m 70.18034,79.6791 c 3.057427,-4.016886 8.485281,-7.247844 8.485281,-7.247844 0,0 -24.495284,-27.48288 -39.244426,-47.376154 0.983986,-8.579563 4.949747,-15.026019 4.949747,-15.026019 0,0 -7.379877,1.64821 -12.551145,9.015611 -14.540434,-4.123086 -16.793786,10.429825 -16.793786,10.429825 0,0 -6.115945,1.289476 -7.247844,7.247845 4.524956,-2.350137 9.545941,-1.590991 9.545941,-1.590991 l 2.828427,3.358758 c 0,0 -4.440356,4.171375 -2.65165,15.026019 3.20292,-5.762369 8.485281,-9.899495 8.485281,-9.899495 0,0 20.100316,16.214472 44.194174,36.062445 z"
     id="path4224"
     inkscape:connector-curvature="0"
     sodipodi:nodetypes="cccccccccccc" />
  <path
     style="fill:#ffc107;fill-opacity:1;fill-rule:evenodd;stroke:none;stroke-width:1px;stroke-linecap:butt;stroke-linejoin:miter;stroke-opacity:1"
     d="m 43.124992,10.683357 c -5.415725,2.284974 -9.4375,7.75 -9.4375,7.75 l 3.6875,3.75 c 0,0 0.353223,-5.972473 5.75,-11.5 z"
     id="path4226"
     inkscape:connector-curvature="0"
     sodipodi:nodetypes="cccc" />
  <path
     style="fill:#ffc107;fill-opacity:1;fill-rule:evenodd;stroke:none;stroke-width:1px;stroke-linecap:butt;stroke-linejoin:miter;stroke-opacity:1"
     d="M 8.5048804,35.866208 C 10.4858,32.185821 14.371601,30.721759 14.371601,30.721759 l 0.306218,2.101714 c 0,0 -3.553603,0.771534 -6.1729386,3.042735 z"
     id="path4228"
     inkscape:connector-curvature="0"
     sodipodi:nodetypes="cccc" />
  <path
     style="fill:#ffc107;fill-opacity:1;fill-rule:evenodd;stroke:none;stroke-width:1px;stroke-linecap:butt;stroke-linejoin:miter;stroke-opacity:1"
     d="M 17.645492,52.077888 C 17.44341,45.909237 20.682865,40.523063 20.682865,40.523063 l 3.005204,2.916815 c 0,0 -3.586591,3.404562 -6.042577,8.63801 z"
     id="path4230"
     inkscape:connector-curvature="0"
     sodipodi:nodetypes="cccc" />
  <path
     style="fill:#ffc107;fill-rule:evenodd;stroke:none;stroke-width:1px;stroke-linecap:butt;stroke-linejoin:miter;stroke-opacity:1;fill-opacity:1"
     d="m 75.660417,71.193819 c 0,0 -31.090994,-35.839256 -44.37095,-50.381358 -2.23141,-1.107071 -6.673724,-0.89645 -8.662058,1.237437 -1.691455,1.815276 -2.453604,3.778639 -1.237437,6.894291 6.961411,-0.243106 50.823299,44.636116 50.823299,44.636116 1.565646,-1.383623 3.447146,-2.386486 3.447146,-2.386486 z"
     id="path4232"
     inkscape:connector-curvature="0"
     sodipodi:nodetypes="ccsccc" />
  <path
     style="fill:#ffc107;fill-rule:evenodd;stroke:none;stroke-width:1px;stroke-linecap:butt;stroke-linejoin:miter;stroke-opacity:1;fill-opacity:1"
     d="m 88.374992,44.183357 c 0.348373,-5.905536 -3.4375,-9.0625 -3.4375,-9.0625 l -1.8125,2.625 c 0,0 3.464127,2.093034 5.25,6.4375 z"
     id="path4234"
     inkscape:connector-curvature="0"
     sodipodi:nodetypes="cccc" />
  <path
     style="fill:#ffc107;fill-rule:evenodd;stroke:none;stroke-width:1px;stroke-linecap:butt;stroke-linejoin:miter;stroke-opacity:1;fill-opacity:1"
     d="m 69.312492,9.1833574 c 4.382649,3.0681936 5.8125,7.6874996 5.8125,7.6874996 l -3.375,1.4375 c 0,0 -0.191022,-4.525503 -2.4375,-9.1249996 z"
     id="path4236"
     inkscape:connector-curvature="0"
     sodipodi:nodetypes="cccc" />
  <path
     style="fill:#ffc107;fill-rule:evenodd;stroke:none;stroke-width:1px;stroke-linecap:butt;stroke-linejoin:miter;stroke-opacity:1;fill-opacity:1"
     d="m 56.124992,22.808357 c 4.020207,0.277437 7.4375,2.375 7.4375,2.375 l -2.25,2 c 0,0 -1.207705,-2.246186 -5.1875,-4.375 z"
     id="path4238"
     inkscape:connector-curvature="0"
     sodipodi:nodetypes="cccc" />
  <path
     style="fill:#ffc107;fill-rule:evenodd;stroke:none;stroke-width:1px;stroke-linecap:butt;stroke-linejoin:miter;stroke-opacity:1;fill-opacity:1"
     d="m 57.249992,35.933357 c 0,0 9.492159,-11.614456 15.9375,-15.0625 1.809223,-0.967875 4.026588,-1.936884 6,-1.375 2.649505,0.754386 5.875,5.8125 5.875,5.8125 0,0 -2.436084,0.04835 -3.5,0.5625 -7.169504,3.464745 -17.625,16.125 -17.625,16.125 l -0.5,0.4375 z"
     id="path4240"
     inkscape:connector-curvature="0"
     sodipodi:nodetypes="csscsccc" />
  <path
     style="fill:#ffc107;fill-rule:evenodd;stroke:none;stroke-width:1px;stroke-linecap:butt;stroke-linejoin:miter;stroke-opacity:1;fill-opacity:1"
     d="m 36.393298,58.168192 -0.583947,1.301777 1.815641,1.525888 -10.375,10.5 c 0,0 2.267799,1.405828 4.125,3.3125 5.171765,-5.252785 10.8125,-10.625 10.8125,-10.625 l 3.25,2.375 1.460248,-0.59467 z"
     id="path4242"
     inkscape:connector-curvature="0"
     sodipodi:nodetypes="ccccccccc" />
  <path
     style="fill:#ffc107;fill-rule:evenodd;stroke:none;stroke-width:1px;stroke-linecap:butt;stroke-linejoin:miter;stroke-opacity:1;fill-opacity:1"
     d="m 18.749992,74.308357 c 0,0 8.245775,6.591172 9.875,9 -0.245775,1.846328 -1.75,1.9375 -1.75,1.9375 l -9.0625,-9.3125 c 0,0 -0.369103,-1.604033 0.1875,-1.9375 0.232329,-0.139191 0.75,0.3125 0.75,0.3125 z"
     id="path4244"
     inkscape:connector-curvature="0"
     sodipodi:nodetypes="ccccsc" />
  <path
     style="fill:#ffc107;fill-rule:evenodd;stroke:none;stroke-width:1px;stroke-linecap:butt;stroke-linejoin:miter;stroke-opacity:1;fill-opacity:1"
     d="m 83.999992,74.245857 c -2.14251,0.707646 -8.570267,5.287546 -9.8125,7.6875 0.757767,2.649954 2.6875,2.75 2.6875,2.75 2.693799,-1.662167 7.859376,-5.818266 9.4375,-8.5 -0.546876,-0.806733 -0.66999,-1.270146 -2.3125,-1.9375 z"
     id="path4246"
     inkscape:connector-curvature="0"
     sodipodi:nodetypes="ccccc" />
</svg>
