<?xml version="1.0" encoding="UTF-8" standalone="no"?>
<!-- Created with Inkscape (http://www.inkscape.org/) -->

<svg
   xmlns:dc="http://purl.org/dc/elements/1.1/"
   xmlns:cc="http://creativecommons.org/ns#"
   xmlns:rdf="http://www.w3.org/1999/02/22-rdf-syntax-ns#"
   xmlns:svg="http://www.w3.org/2000/svg"
   xmlns="http://www.w3.org/2000/svg"
   xmlns:sodipodi="http://sodipodi.sourceforge.net/DTD/sodipodi-0.dtd"
   xmlns:inkscape="http://www.inkscape.org/namespaces/inkscape"
   width="200"
   height="200"
   viewBox="0 0 200 200"
   id="svg4140"
   version="1.1"
   inkscape:version="0.91 r13725"
   sodipodi:docname="icon_race_pirate_off.svg">
  <defs
     id="defs4142" />
  <sodipodi:namedview
     id="base"
     pagecolor="#ffffff"
     bordercolor="#666666"
     borderopacity="1.0"
     inkscape:pageopacity="0.0"
     inkscape:pageshadow="2"
     inkscape:zoom="1.4142136"
     inkscape:cx="-76.365153"
     inkscape:cy="199.24823"
     inkscape:document-units="px"
     inkscape:current-layer="layer1"
     showgrid="false"
     units="px"
     inkscape:window-width="1680"
     inkscape:window-height="990"
     inkscape:window-x="-8"
     inkscape:window-y="-8"
     inkscape:window-maximized="1"
     showguides="false"
     borderlayer="true">
    <inkscape:grid
       type="xygrid"
       id="grid4688" />
  </sodipodi:namedview>
  <metadata
     id="metadata4145">
    <rdf:RDF>
      <cc:Work
         rdf:about="">
        <dc:format>image/svg+xml</dc:format>
        <dc:type
           rdf:resource="http://purl.org/dc/dcmitype/StillImage" />
        <dc:title></dc:title>
      </cc:Work>
    </rdf:RDF>
  </metadata>
  <g
     inkscape:label="Layer 1"
     inkscape:groupmode="layer"
     id="layer1"
     transform="translate(0,-852.36216)">
    <path
       style="fill:#808080;fill-opacity:1;fill-rule:evenodd;stroke:none;stroke-width:1px;stroke-linecap:butt;stroke-linejoin:miter;stroke-opacity:1"
       d="m 101.01148,888.79114 c -53.781917,0 -53.742785,24.47191 -53.742785,47.99928 0,16.41002 11.600131,13.13532 15.58951,22.15352 4.56203,10.31271 4.923004,32.82002 4.923004,32.82002 0,0 8.205005,-8.205 16.410011,0 8.205005,-8.205 16.41001,0 16.41001,0 0,0 8.20501,-8.205 16.41001,0 8.20501,-8.205 16.41002,0 16.41002,0 0,0 -0.0493,-23.32781 4.51275,-33.64052 3.98938,-9.0182 15.17926,-4.923 15.17926,-21.33302 0,-23.52737 0.8205,-47.99928 -52.10179,-47.99928 z m 28.12939,18.96126 c 0.88333,0.0275 1.75165,0.16269 2.59612,0.41666 10.50251,3.15852 11.90436,24.9603 4.08167,32.64695 -6.86096,6.74163 -25.17717,4.92172 -28.56688,-4.08007 -4.00529,-10.63656 9.49575,-28.42254 21.00128,-28.97553 0.29756,-0.0143 0.59336,-0.0172 0.88781,-0.008 z m -55.18828,0.23878 c 0.290654,-0.009 0.582866,-0.006 0.87659,0.008 11.357346,0.54587 24.684164,18.10257 20.73046,28.60213 -3.346051,8.88585 -21.425705,10.6836 -28.198297,4.02879 -7.721936,-7.58764 -6.338443,-29.10924 4.028786,-32.22708 0.833582,-0.25069 1.690503,-0.38456 2.562461,-0.41185 z m 26.63582,45.88232 c 9.64567,12.86089 12.86102,19.29026 7.07362,22.18396 -4.28697,2.14348 -2.28065,-6.10888 -7.07362,-6.10888 -4.792971,0 -3.264497,8.86112 -7.395722,6.431 -5.465879,-3.21523 -2.249946,-9.64519 7.395722,-22.50608 z"
       id="path7849"
       inkscape:connector-curvature="0" />
    <path
       style="fill:#808080;fill-opacity:1;fill-rule:evenodd;stroke:none;stroke-width:1px;stroke-linecap:butt;stroke-linejoin:miter;stroke-opacity:1"
       d="m 75.986214,991.76396 c -5.638362,0 -7.57242,11.96594 -4.102503,16.41004 1.683155,2.1558 6.521852,2.1558 8.205006,0 3.469917,-4.4441 1.535859,-16.41004 -4.102503,-16.41004 z"
       id="path7872"
       inkscape:connector-curvature="0"
       sodipodi:nodetypes="ssss" />
    <path
       style="fill:#808080;fill-opacity:1;fill-rule:evenodd;stroke:none;stroke-width:1px;stroke-linecap:butt;stroke-linejoin:miter;stroke-opacity:1"
       d="m 92.396225,991.76396 c -5.638361,0 -7.57242,11.96594 -4.102503,16.41004 1.683155,2.1558 6.521852,2.1558 8.205006,0 3.469917,-4.4441 1.535859,-16.41004 -4.102503,-16.41004 z"
       id="path7874"
       inkscape:connector-curvature="0"
       sodipodi:nodetypes="ssss" />
    <path
       style="fill:#808080;fill-opacity:1;fill-rule:evenodd;stroke:none;stroke-width:1px;stroke-linecap:butt;stroke-linejoin:miter;stroke-opacity:1"
       d="m 108.80624,991.76396 c -5.63837,0 -7.57242,11.96594 -4.1025,16.41004 1.68315,2.1558 6.52185,2.1558 8.205,0 3.46992,-4.4441 1.53586,-16.41004 -4.1025,-16.41004 z"
       id="path7876"
       inkscape:connector-curvature="0"
       sodipodi:nodetypes="ssss" />
    <path
       style="fill:#808080;fill-opacity:1;fill-rule:evenodd;stroke:none;stroke-width:1px;stroke-linecap:butt;stroke-linejoin:miter;stroke-opacity:1"
       d="m 125.21625,991.76396 c -5.63836,0 -7.57242,11.96594 -4.1025,16.41004 1.68315,2.1558 6.52185,2.1558 8.205,0 3.46992,-4.4441 1.53587,-16.41004 -4.1025,-16.41004 z"
       id="path7878"
       inkscape:connector-curvature="0"
       sodipodi:nodetypes="ssss" />
    <path
       style="fill:#808080;fill-opacity:1;fill-rule:evenodd;stroke:none;stroke-width:1px;stroke-linecap:butt;stroke-linejoin:miter;stroke-opacity:1"
       d="m 31.754504,875.90191 c -6.11565,0 -8.205006,16.41001 -8.205006,16.41001 0,0 -19.3703527,9.26311 -16.4100113,16.41001 2.0932774,5.05363 11.7195213,-2.81429 16.4100113,0 7.20962,4.32578 14.676797,9.16581 22.304154,14.37158 a 18.565808,26.398259 0 0 1 -0.03365,-1.3269 18.565808,26.398259 0 0 1 6.281958,-19.7497 c -4.05131,-3.23477 -8.098992,-6.47022 -12.142447,-9.70499 -4.775518,-3.82041 -2.089355,-16.41001 -8.205005,-16.41001 z m 136.725526,0.99197 c -6.11565,0 -3.42949,12.5896 -8.20501,16.41002 -3.58109,2.86487 -7.16809,5.72954 -10.75465,8.59442 a 18.565808,26.398259 0 0 1 7.11208,20.65514 c 6.84635,-4.62575 13.55288,-8.93973 20.05259,-12.83955 4.69049,-2.8143 14.31673,5.05362 16.41001,0 2.96034,-7.14691 -16.41001,-16.41001 -16.41001,-16.41001 0,0 -2.08936,-16.41002 -8.20501,-16.41002 z m -28.57009,92.23901 -3.16502,23.51407 c 6.10399,4.91326 12.26472,9.87904 18.08467,14.53504 4.77553,3.8204 2.08936,16.41 8.20501,16.41 6.11565,0 8.205,-16.41 8.205,-16.41 0,0 13.19483,-3.0027 16.41001,-8.205 1.43789,-2.32656 1.93396,-6.27106 0,-8.20501 -3.86787,-3.86788 -11.85868,3.03421 -16.41001,0 -10.81941,-7.21294 -21.22348,-14.42634 -31.32966,-21.6391 z m -78.34178,0.10096 c -10.494871,7.5099 -21.30874,15.02046 -32.57323,22.53011 -4.55132,3.03421 -12.542135,-3.86788 -16.410012,0 -1.933946,1.93395 -1.437881,5.87847 0,8.20501 3.215187,5.20233 16.410012,8.20503 16.410012,8.20503 0,0 2.089355,16.41 8.205005,16.41 6.11565,0 3.429479,-12.5896 8.205006,-16.41 6.130903,-4.9048 12.6205,-10.13666 19.063817,-15.32351 L 61.56816,969.23385 Z"
       id="path7880"
       inkscape:connector-curvature="0" />
  </g>
</svg>
