<?xml version="1.0" encoding="UTF-8" standalone="no"?>
<!-- Created with Inkscape (http://www.inkscape.org/) -->

<svg
   xmlns:dc="http://purl.org/dc/elements/1.1/"
   xmlns:cc="http://creativecommons.org/ns#"
   xmlns:rdf="http://www.w3.org/1999/02/22-rdf-syntax-ns#"
   xmlns:svg="http://www.w3.org/2000/svg"
   xmlns="http://www.w3.org/2000/svg"
   xmlns:sodipodi="http://sodipodi.sourceforge.net/DTD/sodipodi-0.dtd"
   xmlns:inkscape="http://www.inkscape.org/namespaces/inkscape"
   width="200"
   height="200"
   viewBox="0 0 200 200"
   id="svg4140"
   version="1.1"
   inkscape:version="0.91 r13725"
   sodipodi:docname="icon_race_murloc_off.svg">
  <defs
     id="defs4142" />
  <sodipodi:namedview
     id="base"
     pagecolor="#ffffff"
     bordercolor="#666666"
     borderopacity="1.0"
     inkscape:pageopacity="0.0"
     inkscape:pageshadow="2"
     inkscape:zoom="1"
     inkscape:cx="137.5"
     inkscape:cy="103.8693"
     inkscape:document-units="px"
     inkscape:current-layer="layer1"
     showgrid="false"
     units="px"
     inkscape:window-width="1053"
     inkscape:window-height="720"
     inkscape:window-x="624"
     inkscape:window-y="181"
     inkscape:window-maximized="0"
     showguides="false"
     borderlayer="true">
    <inkscape:grid
       type="xygrid"
       id="grid4688" />
  </sodipodi:namedview>
  <metadata
     id="metadata4145">
    <rdf:RDF>
      <cc:Work
         rdf:about="">
        <dc:format>image/svg+xml</dc:format>
        <dc:type
           rdf:resource="http://purl.org/dc/dcmitype/StillImage" />
        <dc:title />
      </cc:Work>
    </rdf:RDF>
  </metadata>
  <g
     inkscape:label="Layer 1"
     inkscape:groupmode="layer"
     id="layer1"
     transform="translate(0,-852.36216)">
    <path
       style="fill:#808080;fill-opacity:1;fill-rule:evenodd;stroke:none;stroke-width:1px;stroke-linecap:butt;stroke-linejoin:miter;stroke-opacity:1"
       d="M 108.9043 6.4960938 C 98.399588 6.6160226 86.427929 11.688162 87.181641 19.892578 C 87.955217 28.313238 106.7515 17.206825 112.27539 23.609375 C 115.66654 27.539916 113.34076 37.608729 112.58789 40.501953 C 111.26633 40.407189 109.94088 40.352606 108.60938 40.347656 C 101.6327 40.321734 94.536707 41.563532 87.503906 44.316406 C 82.646713 37.875786 66.2843 17.588853 54.1875 19.892578 C 41.556533 22.298028 26.038911 42.954889 34.205078 52.886719 C 40.803172 60.911419 53.336655 39.955599 63.480469 42.199219 C 67.299445 43.043907 71.514671 48.214904 73.958984 51.650391 C 69.481418 54.799056 65.08092 58.672231 60.806641 63.328125 C 54.121409 60.932314 38.115177 55.961493 30.486328 60.322266 C 18.619721 67.105396 3.394129 89.623964 14.222656 97.964844 C 22.962464 104.69684 29.550618 80.221438 40.246094 77.517578 C 42.672503 76.904176 46.462075 77.665842 49.417969 78.476562 C 46.574141 83.496216 44.289437 89.104366 42.607422 95.101562 C 37.604085 95.089568 28.099762 95.579218 24.445312 99.357422 C 17.681929 106.34985 11.062189 123.89107 19.798828 128.16992 C 25.507658 130.96587 27.56478 117.81878 32.810547 114.22852 C 34.465999 113.09551 37.209882 111.98438 39.619141 111.12891 C 39.189611 115.43652 39.039766 119.83152 39.164062 124.25 C 35.089265 124.67161 28.482577 125.76893 25.839844 128.63477 C 20.279194 134.66487 14.054441 148.76118 21.193359 152.80078 C 26.44429 155.77208 29.681157 144.1099 34.669922 140.7168 C 36.130026 139.72371 38.537315 138.55784 40.421875 137.69531 C 42.678615 151.83289 47.908696 165.56072 56.410156 176.78711 C 3.1086799 84.364479 164.52662 2.5497612 160.60742 109.58203 C 144.87843 113.162 140.30335 122.85394 121.35742 118.6875 C 101.09711 113.86386 100.39236 103.50942 87.869141 100.50781 C 76.687839 96.583872 45.861577 130.30032 56.494141 176.89648 C 66.693896 188.13018 78.816406 190.44141 78.816406 190.44141 C 70.377256 163.20621 79.702028 154.68094 132.25781 155.58984 C 152.77925 153.32434 166.21857 146.52421 174.0293 137.28516 L 171.38477 137.28516 L 167.11328 131.37109 L 159.88281 133.66992 L 152.32617 128.08398 L 143.78125 129.72656 L 132.60938 124.79883 L 122.75195 126.76953 L 132.28125 123.48438 L 144.11133 127.09766 L 152.6543 124.79883 L 160.54102 130.05664 L 168.09766 127.75586 L 172.36914 133.99805 L 179.22461 129.14453 C 192.81395 99.763331 164.82716 55.58047 127.68945 43.498047 C 128.03771 38.651069 129.30633 14.127713 119.71094 8.7402344 C 116.89978 7.1618706 113.01484 6.4491651 108.9043 6.4960938 z M 127.14648 67.757812 A 22.770905 22.770905 0 0 0 104.375 90.529297 A 22.770905 22.770905 0 0 0 127.14648 113.29883 A 22.770905 22.770905 0 0 0 149.91797 90.529297 A 22.770905 22.770905 0 0 0 127.14648 67.757812 z M 127.67969 78.136719 A 12.486848 12.486848 0 0 1 140.16797 90.623047 A 12.486848 12.486848 0 0 1 127.67969 103.11133 A 12.486848 12.486848 0 0 1 115.19336 90.623047 A 12.486848 12.486848 0 0 1 127.67969 78.136719 z M 127.48828 83.066406 A 7.5578289 7.5578289 0 0 0 119.92969 90.623047 A 7.5578289 7.5578289 0 0 0 127.48828 98.181641 A 7.5578289 7.5578289 0 0 0 135.04492 90.623047 A 7.5578289 7.5578289 0 0 0 127.48828 83.066406 z M 89.398438 106.56055 L 90.876953 107.54688 C 90.876953 107.54688 70.910432 113.55883 70.503906 119.21289 C 70.888435 120.02737 71.332312 120.62798 71.800781 121.14453 L 91.205078 110.01172 L 91.945312 110.83203 L 72.691406 121.98438 C 74.364253 123.28759 76.307464 123.70663 77.982422 125.37305 C 80.199819 127.57915 80.503369 130.07595 83.708984 132.86719 L 100.32422 116.08984 L 101.47461 117.1582 L 84.910156 133.80078 C 85.150636 133.97656 85.35133 134.1501 85.619141 134.32812 C 88.167005 136.02193 93.165639 136.58578 98.044922 137.7168 C 101.46243 138.50905 103.86522 139.88579 106.60352 140.6582 L 110.01758 121.75781 L 111.49609 122.41602 L 107.76172 140.93555 C 108.59809 141.10507 109.46829 141.22395 110.42969 141.22852 C 114.07276 134.86442 113.87891 122.99023 113.87891 122.99023 L 114.86523 123.32031 C 114.86523 123.32031 116.39041 134.48877 111.74414 142.70703 C 108.01645 145.20757 102.62843 141.31143 97.972656 140.16211 C 93.316867 139.01278 87.658321 138.19436 84.304688 136.29883 C 79.814376 133.76083 79.232714 129.96259 76.361328 127 C 73.489942 124.0374 67.614355 121.43611 67.052734 118.55469 C 74.079585 109.15122 89.398437 106.56055 89.398438 106.56055 z "
       transform="translate(0,852.36216)"
       id="path7744" />
  </g>
</svg>
