<?xml version="1.0" encoding="UTF-8" standalone="no"?>
<!-- Created with Inkscape (http://www.inkscape.org/) -->

<svg
   xmlns:dc="http://purl.org/dc/elements/1.1/"
   xmlns:cc="http://creativecommons.org/ns#"
   xmlns:rdf="http://www.w3.org/1999/02/22-rdf-syntax-ns#"
   xmlns:svg="http://www.w3.org/2000/svg"
   xmlns="http://www.w3.org/2000/svg"
   xmlns:sodipodi="http://sodipodi.sourceforge.net/DTD/sodipodi-0.dtd"
   xmlns:inkscape="http://www.inkscape.org/namespaces/inkscape"
   width="200"
   height="200"
   viewBox="0 0 200 200"
   id="svg4140"
   version="1.1"
   inkscape:version="0.91 r13725"
   sodipodi:docname="icon_race_beast_on.svg">
  <defs
     id="defs4142" />
  <sodipodi:namedview
     id="base"
     pagecolor="#ffffff"
     bordercolor="#666666"
     borderopacity="1.0"
     inkscape:pageopacity="0.0"
     inkscape:pageshadow="2"
     inkscape:zoom="2"
     inkscape:cx="76.70329"
     inkscape:cy="69.093707"
     inkscape:document-units="px"
     inkscape:current-layer="layer1"
     showgrid="false"
     units="px"
     inkscape:window-width="1680"
     inkscape:window-height="990"
     inkscape:window-x="-8"
     inkscape:window-y="-8"
     inkscape:window-maximized="1"
     showguides="false"
     borderlayer="true">
    <inkscape:grid
       type="xygrid"
       id="grid4688" />
  </sodipodi:namedview>
  <metadata
     id="metadata4145">
    <rdf:RDF>
      <cc:Work
         rdf:about="">
        <dc:format>image/svg+xml</dc:format>
        <dc:type
           rdf:resource="http://purl.org/dc/dcmitype/StillImage" />
        <dc:title></dc:title>
      </cc:Work>
    </rdf:RDF>
  </metadata>
  <g
     inkscape:label="Layer 1"
     inkscape:groupmode="layer"
     id="layer1"
     transform="translate(0,-852.36216)">
    <path
       style="fill:#90a4ae;fill-rule:evenodd;stroke:none;stroke-width:1px;stroke-linecap:butt;stroke-linejoin:miter;stroke-opacity:1;fill-opacity:1"
       d="M 71.5 7.75 C 78.024723 19.74246 66.56534 30.84346 67.75 46.5 C 60.43466 47.15654 56.618173 47.77119 50.25 53.25 C 60.131827 61.22881 29.00165 56.2566 23.5 62.75 C 41.99835 64.2434 30.054433 91.58535 13.5 73.75 C 27.445567 96.66464 14.75 99.75 14.75 99.75 C 14.75 99.75 30.187492 106.33703 21.75 134.25 C 47.812507 139.91297 47.25 161 47.25 161 C 47.25 161 70.769523 144.15694 79 187.25 C 101.72617 156.9807 105.62985 175.9144 106.25 180.75 C 121.01229 154.8265 103.32677 146.30136 120 122.5 C 123.57368 122.32821 126.24307 122.01598 129.5 119.75 C 133.50693 119.79652 138.74929 121.95343 143 124 C 147.70639 126.26596 152.17932 132.27107 156 132.75 C 159.44568 130.79143 161.09624 131.83574 163 130.25 C 164.40576 129.07907 166.21528 127.26939 165.75 125.5 C 165.33201 123.91045 163.02477 124.97411 161.5 123 C 165.10023 119.65089 164 115.25 164 115.25 C 164 115.25 162.58001 117.27474 158.75 119 C 156.60749 113.66276 147.09551 110.57748 142.75 103 C 151.52949 99.54752 156.25 94.5 156.25 94.5 L 175.25 88.75 C 175.25 88.75 176.68967 93.27316 176 98.5 C 181.37283 93.10184 181.5 86.25 181.5 86.25 C 181.5 86.25 186.05726 87.42728 187.5 72.25 C 189.1927 71.94772 190.92861 66.25497 189.25 63.75 C 185.94639 62.43253 178.81816 67.19162 180 62 C 172.68184 60.80838 159.12739 64.38504 145.25 57.25 C 140.81011 65.23996 141.84596 51.71856 129.75 46.5 C 125.02904 52.90644 118.43452 43.8476 111.1875 42.375 C 110.25298 47.0274 104.44817 43.25217 98.75 43.75 C 98.801828 34.68533 92.052429 24.31284 90.75 18.75 C 88.697571 21.18716 86.25 15 86.25 15 C 86.25 15 86.730728 18.68731 85 26.5 C 83.4375 16.75 79.75 10.75 79.75 10.75 C 79.75 10.75 79.225277 17.75754 71.5 7.75 z M 111.01562 55.837891 C 123.51982 57.661631 124.19565 55.723366 130.81445 56.722656 C 138.40552 60.727156 136.69865 63.991615 145.13281 68.390625 C 135.80091 67.397945 136.39231 70.025224 131.3457 70.246094 C 125.06165 68.699194 125.2047 59.936161 111.01562 55.837891 z M 73.560547 62.875 C 71.612569 65.79711 69.75 68.375 69.75 68.375 C 69.978038 68.52703 74.153856 67.477039 78.914062 68.167969 C 74.324752 73.851219 66.5 86.875 66.5 86.875 C 66.5 86.875 72.112809 81.40943 79 82.125 C 75.887191 89.46557 75.5 95.125 75.5 95.125 C 75.5 95.125 83.535403 84.6442 94.75 88.25 C 91.803237 90.85924 90.8097 94.19491 90.875 94.75 C 90.875 94.75 95.291345 93.87204 98.75 95 C 95.358558 101.9616 96.5 108.75 96.5 108.75 C 96.5 108.75 100.43068 103.18401 107.125 102.125 C 101.53334 106.41349 98.901936 108.54949 95.75 112.75 C 92.55387 108.15587 95.375 96.875 95.375 96.875 C 95.375 96.875 91.558232 96.84644 88.375 97.75 C 88.196972 94.14575 90.5 89.75 90.5 89.75 C 90.5 89.75 82.964078 88.48058 73.75 100.5 C 71.535922 92.26942 75.875 84.375 75.875 84.375 C 75.875 84.375 70.849797 85.66176 64.5 91.375 C 62.400203 85.08824 74.875 70.5 74.875 70.5 C 74.875 70.5 69.423235 71.95838 64 70.875 C 66.88527 65.01865 73.560547 62.875 73.560547 62.875 z "
       transform="translate(0,852.36216)"
       id="path7085" />
  </g>
</svg>
