<?xml version="1.0" encoding="UTF-8" standalone="no"?>
<!-- Created with Inkscape (http://www.inkscape.org/) -->

<svg
   xmlns:dc="http://purl.org/dc/elements/1.1/"
   xmlns:cc="http://creativecommons.org/ns#"
   xmlns:rdf="http://www.w3.org/1999/02/22-rdf-syntax-ns#"
   xmlns:svg="http://www.w3.org/2000/svg"
   xmlns="http://www.w3.org/2000/svg"
   xmlns:sodipodi="http://sodipodi.sourceforge.net/DTD/sodipodi-0.dtd"
   xmlns:inkscape="http://www.inkscape.org/namespaces/inkscape"
   width="200"
   height="200"
   viewBox="0 0 200 200"
   id="svg4140"
   version="1.1"
   inkscape:version="0.91 r13725"
   sodipodi:docname="icon_race_mech_off.svg">
  <defs
     id="defs4142" />
  <sodipodi:namedview
     id="base"
     pagecolor="#ffffff"
     bordercolor="#666666"
     borderopacity="1.0"
     inkscape:pageopacity="0.0"
     inkscape:pageshadow="2"
     inkscape:zoom="1.4142136"
     inkscape:cx="73.316676"
     inkscape:cy="80.080587"
     inkscape:document-units="px"
     inkscape:current-layer="layer1"
     showgrid="true"
     units="px"
     inkscape:window-width="862"
     inkscape:window-height="720"
     inkscape:window-x="541"
     inkscape:window-y="179"
     inkscape:window-maximized="0"
     showguides="false"
     borderlayer="true">
    <inkscape:grid
       type="xygrid"
       id="grid4688" />
  </sodipodi:namedview>
  <metadata
     id="metadata4145">
    <rdf:RDF>
      <cc:Work
         rdf:about="">
        <dc:format>image/svg+xml</dc:format>
        <dc:type
           rdf:resource="http://purl.org/dc/dcmitype/StillImage" />
        <dc:title />
      </cc:Work>
    </rdf:RDF>
  </metadata>
  <g
     inkscape:label="Layer 1"
     inkscape:groupmode="layer"
     id="layer1"
     transform="translate(0,-852.36216)">
    <path
       style="fill:#808080;fill-opacity:1;fill-rule:evenodd;stroke:none;stroke-width:0;stroke-linecap:butt;stroke-linejoin:miter;stroke-opacity:1;stroke-miterlimit:4;stroke-dasharray:none"
       d="M 100 12.392578 C 94.777847 12.392578 90.695061 24.469011 89.042969 32.931641 C 88.832603 32.956341 88.622348 32.987472 88.412109 33.013672 C 89.47003 57.926852 95.454063 98.739944 100 103.05859 C 104.54594 98.739944 110.52996 57.926852 111.58789 33.013672 C 111.37765 32.987472 111.1674 32.956441 110.95703 32.931641 C 109.30494 24.469011 105.22215 12.392578 100 12.392578 z M 84.208984 33.626953 C 59.905591 37.767183 36.79315 51.529602 20.419922 74.919922 L 30.166016 109.02734 L 54.525391 109.02734 L 54.525391 131.76367 L 60.208984 126.08008 L 71.578125 143.13281 L 82.947266 120.39453 L 100 148.81641 L 117.05273 120.39453 L 128.42188 143.13281 L 139.79102 126.08008 L 145.47461 131.76367 L 145.47461 109.02734 L 169.83398 109.02734 L 179.58008 74.919922 C 163.20685 51.529602 140.09442 37.767183 115.79102 33.626953 C 113.54796 58.476923 108.29403 104.88033 100 109.02734 C 91.705969 104.88033 86.452051 58.476923 84.208984 33.626953 z M 60.208984 72.236328 A 22.737187 14.052355 0 0 1 82.947266 86.289062 A 22.737187 14.052355 0 0 1 60.208984 100.3418 A 22.737187 14.052355 0 0 1 37.472656 86.289062 A 22.737187 14.052355 0 0 1 60.208984 72.236328 z M 139.79102 72.236328 A 22.737187 14.052355 0 0 1 162.52734 86.289062 A 22.737187 14.052355 0 0 1 139.79102 100.3418 A 22.737187 14.052355 0 0 1 117.05273 86.289062 A 22.737187 14.052355 0 0 1 139.79102 72.236328 z M 60.208984 74.919922 A 18.394771 11.368593 0 0 0 57.935547 75.023438 L 57.935547 77.195312 L 62.484375 77.195312 L 62.484375 75.017578 A 18.394771 11.368593 0 0 0 60.208984 74.919922 z M 139.78906 74.919922 A 18.394771 11.368593 0 0 0 137.51367 75.023438 L 137.51367 77.195312 L 142.0625 77.195312 L 142.0625 75.017578 A 18.394771 11.368593 0 0 0 139.78906 74.919922 z M 63.621094 75.125 L 63.621094 77.195312 L 68.167969 77.195312 L 68.167969 76.054688 A 18.394771 11.368593 0 0 0 63.621094 75.125 z M 143.19922 75.125 L 143.19922 77.195312 L 147.74609 77.195312 L 147.74609 76.054688 A 18.394771 11.368593 0 0 0 143.19922 75.125 z M 56.798828 75.126953 A 18.394771 11.368593 0 0 0 52.251953 76.050781 L 52.251953 77.193359 L 56.798828 77.193359 L 56.798828 75.126953 z M 136.37695 75.126953 A 18.394771 11.368593 0 0 0 131.83008 76.050781 L 131.83008 77.193359 L 136.37695 77.193359 L 136.37695 75.126953 z M 69.304688 76.416016 L 69.304688 76.417969 L 69.304688 77.193359 L 71.208984 77.193359 A 18.394771 11.368593 0 0 0 69.304688 76.416016 z M 148.88281 76.417969 L 148.88281 77.193359 L 150.78906 77.193359 A 18.394771 11.368593 0 0 0 148.88281 76.417969 z M 51.115234 76.423828 A 18.394771 11.368593 0 0 0 49.203125 77.195312 L 51.115234 77.195312 L 51.115234 76.423828 z M 130.69336 76.423828 A 18.394771 11.368593 0 0 0 128.78125 77.195312 L 130.69336 77.195312 L 130.69336 76.423828 z M 47.095703 78.332031 A 18.394771 11.368593 0 0 0 46.568359 78.681641 L 46.568359 82.878906 L 51.115234 82.878906 L 51.115234 78.332031 L 47.095703 78.332031 z M 52.251953 78.332031 L 52.251953 82.878906 L 56.798828 82.878906 L 56.798828 78.332031 L 52.251953 78.332031 z M 57.935547 78.332031 L 57.935547 82.878906 L 62.484375 82.878906 L 62.484375 78.332031 L 57.935547 78.332031 z M 63.621094 78.332031 L 63.621094 82.878906 L 68.167969 82.878906 L 68.167969 78.332031 L 63.621094 78.332031 z M 69.304688 78.332031 L 69.304688 82.878906 L 73.851562 82.878906 L 73.851562 78.681641 A 18.394771 11.368593 0 0 0 73.339844 78.332031 L 69.304688 78.332031 z M 126.67383 78.332031 A 18.394771 11.368593 0 0 0 126.14648 78.681641 L 126.14648 82.878906 L 130.69336 82.878906 L 130.69336 78.332031 L 126.67383 78.332031 z M 131.83008 78.332031 L 131.83008 82.878906 L 136.37695 82.878906 L 136.37695 78.332031 L 131.83008 78.332031 z M 137.51367 78.332031 L 137.51367 82.878906 L 142.0625 82.878906 L 142.0625 78.332031 L 137.51367 78.332031 z M 143.19922 78.332031 L 143.19922 82.878906 L 147.74609 82.878906 L 147.74609 78.332031 L 143.19922 78.332031 z M 148.88281 78.332031 L 148.88281 82.878906 L 153.42969 82.878906 L 153.42969 78.681641 A 18.394771 11.368593 0 0 0 152.91797 78.332031 L 148.88281 78.332031 z M 74.988281 79.541016 L 74.988281 82.878906 L 77.736328 82.878906 A 18.394771 11.368593 0 0 0 74.988281 79.541016 z M 154.56641 79.541016 L 154.56641 82.878906 L 157.31445 82.878906 A 18.394771 11.368593 0 0 0 154.56641 79.541016 z M 45.431641 79.542969 A 18.394771 11.368593 0 0 0 42.667969 82.878906 L 45.431641 82.878906 L 45.431641 79.542969 z M 125.00977 79.542969 A 18.394771 11.368593 0 0 0 122.24609 82.878906 L 125.00977 82.878906 L 125.00977 79.542969 z M 42.189453 84.015625 A 18.394771 11.368593 0 0 0 41.816406 86.289062 A 18.394771 11.368593 0 0 0 42.207031 88.5625 L 45.431641 88.5625 L 45.431641 84.015625 L 42.189453 84.015625 z M 46.568359 84.015625 L 46.568359 88.5625 L 51.115234 88.5625 L 51.115234 84.015625 L 46.568359 84.015625 z M 52.251953 84.015625 L 52.251953 88.5625 L 56.798828 88.5625 L 56.798828 84.015625 L 52.251953 84.015625 z M 57.935547 84.015625 L 57.935547 88.5625 L 62.484375 88.5625 L 62.484375 84.015625 L 57.935547 84.015625 z M 63.621094 84.015625 L 63.621094 88.5625 L 68.167969 88.5625 L 68.167969 84.015625 L 63.621094 84.015625 z M 69.304688 84.015625 L 69.304688 88.5625 L 73.851562 88.5625 L 73.851562 84.015625 L 69.304688 84.015625 z M 74.988281 84.015625 L 74.988281 88.5625 L 78.230469 88.5625 A 18.394771 11.368593 0 0 0 78.603516 86.289062 A 18.394771 11.368593 0 0 0 78.212891 84.015625 L 74.988281 84.015625 z M 121.76758 84.015625 A 18.394771 11.368593 0 0 0 121.39453 86.289062 A 18.394771 11.368593 0 0 0 121.78516 88.5625 L 125.00977 88.5625 L 125.00977 84.015625 L 121.76758 84.015625 z M 126.14648 84.015625 L 126.14648 88.5625 L 130.69336 88.5625 L 130.69336 84.015625 L 126.14648 84.015625 z M 131.83008 84.015625 L 131.83008 88.5625 L 136.37695 88.5625 L 136.37695 84.015625 L 131.83008 84.015625 z M 137.51367 84.015625 L 137.51367 88.5625 L 142.0625 88.5625 L 142.0625 84.015625 L 137.51367 84.015625 z M 143.19922 84.015625 L 143.19922 88.5625 L 147.74609 88.5625 L 147.74609 84.015625 L 143.19922 84.015625 z M 148.88281 84.015625 L 148.88281 88.5625 L 153.42969 88.5625 L 153.42969 84.015625 L 148.88281 84.015625 z M 154.56641 84.015625 L 154.56641 88.5625 L 157.80859 88.5625 A 18.394771 11.368593 0 0 0 158.18164 86.289062 A 18.394771 11.368593 0 0 0 157.79102 84.015625 L 154.56641 84.015625 z M 42.683594 89.699219 A 18.394771 11.368593 0 0 0 45.431641 93.037109 L 45.431641 89.699219 L 42.683594 89.699219 z M 46.568359 89.699219 L 46.568359 93.896484 A 18.394771 11.368593 0 0 0 47.080078 94.248047 L 51.115234 94.248047 L 51.115234 89.699219 L 46.568359 89.699219 z M 52.251953 89.699219 L 52.251953 94.248047 L 56.798828 94.248047 L 56.798828 89.699219 L 52.251953 89.699219 z M 57.935547 89.699219 L 57.935547 94.248047 L 62.484375 94.248047 L 62.484375 89.699219 L 57.935547 89.699219 z M 63.621094 89.699219 L 63.621094 94.248047 L 68.167969 94.248047 L 68.167969 89.699219 L 63.621094 89.699219 z M 69.304688 89.699219 L 69.304688 94.248047 L 73.324219 94.248047 A 18.394771 11.368593 0 0 0 73.851562 93.896484 L 73.851562 89.699219 L 69.304688 89.699219 z M 74.988281 89.699219 L 74.988281 93.035156 A 18.394771 11.368593 0 0 0 77.751953 89.699219 L 74.988281 89.699219 z M 122.26172 89.699219 A 18.394771 11.368593 0 0 0 125.00977 93.037109 L 125.00977 89.699219 L 122.26172 89.699219 z M 126.14648 89.699219 L 126.14648 93.896484 A 18.394771 11.368593 0 0 0 126.6582 94.248047 L 130.69336 94.248047 L 130.69336 89.699219 L 126.14648 89.699219 z M 131.83008 89.699219 L 131.83008 94.248047 L 136.37695 94.248047 L 136.37695 89.699219 L 131.83008 89.699219 z M 137.51367 89.699219 L 137.51367 94.248047 L 142.0625 94.248047 L 142.0625 89.699219 L 137.51367 89.699219 z M 143.19922 89.699219 L 143.19922 94.248047 L 147.74609 94.248047 L 147.74609 89.699219 L 143.19922 89.699219 z M 148.88281 89.699219 L 148.88281 94.248047 L 152.90234 94.248047 A 18.394771 11.368593 0 0 0 153.42969 93.896484 L 153.42969 89.699219 L 148.88281 89.699219 z M 154.56641 89.699219 L 154.56641 93.035156 A 18.394771 11.368593 0 0 0 157.33008 89.699219 L 154.56641 89.699219 z M 49.208984 95.382812 L 49.208984 95.384766 A 18.394771 11.368593 0 0 0 51.115234 96.160156 L 51.115234 95.382812 L 49.208984 95.382812 z M 52.251953 95.384766 L 52.251953 96.523438 A 18.394771 11.368593 0 0 0 56.798828 97.453125 L 56.798828 95.384766 L 52.251953 95.384766 z M 57.935547 95.384766 L 57.935547 97.560547 A 18.394771 11.368593 0 0 0 60.208984 97.658203 A 18.394771 11.368593 0 0 0 62.484375 97.554688 L 62.484375 95.384766 L 57.935547 95.384766 z M 63.621094 95.384766 L 63.621094 97.453125 A 18.394771 11.368593 0 0 0 68.167969 96.527344 L 68.167969 95.384766 L 63.621094 95.384766 z M 69.304688 95.384766 L 69.304688 96.154297 A 18.394771 11.368593 0 0 0 71.216797 95.384766 L 69.304688 95.384766 z M 128.78906 95.384766 A 18.394771 11.368593 0 0 0 130.69336 96.162109 L 130.69336 95.384766 L 128.78906 95.384766 z M 131.83008 95.384766 L 131.83008 96.523438 A 18.394771 11.368593 0 0 0 136.37695 97.453125 L 136.37695 95.384766 L 131.83008 95.384766 z M 137.51367 95.384766 L 137.51367 97.560547 A 18.394771 11.368593 0 0 0 139.78906 97.658203 A 18.394771 11.368593 0 0 0 142.0625 97.554688 L 142.0625 95.384766 L 137.51367 95.384766 z M 143.19922 95.384766 L 143.19922 97.453125 A 18.394771 11.368593 0 0 0 147.74609 96.527344 L 147.74609 95.384766 L 143.19922 95.384766 z M 148.88281 95.384766 L 148.88281 96.154297 A 18.394771 11.368593 0 0 0 150.79492 95.384766 L 148.88281 95.384766 z M 31.789062 114.71094 L 31.789062 148.81641 L 65.894531 188.60742 L 134.10547 188.60742 L 168.21094 148.81641 L 168.21094 114.71094 L 151.1582 114.71094 L 151.1582 143.13281 L 139.79102 131.76367 L 128.42188 154.5 L 117.05273 126.08008 L 100 154.5 L 82.947266 126.08008 L 71.578125 154.5 L 60.208984 131.76367 L 48.841797 143.13281 L 48.841797 114.71094 L 31.789062 114.71094 z "
       transform="translate(0,852.36216)"
       id="path7791" />
  </g>
</svg>
