<?xml version="1.0" encoding="UTF-8" standalone="no"?>
<!-- Created with Inkscape (http://www.inkscape.org/) -->

<svg
   xmlns:dc="http://purl.org/dc/elements/1.1/"
   xmlns:cc="http://creativecommons.org/ns#"
   xmlns:rdf="http://www.w3.org/1999/02/22-rdf-syntax-ns#"
   xmlns:svg="http://www.w3.org/2000/svg"
   xmlns="http://www.w3.org/2000/svg"
   xmlns:sodipodi="http://sodipodi.sourceforge.net/DTD/sodipodi-0.dtd"
   xmlns:inkscape="http://www.inkscape.org/namespaces/inkscape"
   width="200"
   height="200"
   viewBox="0 0 200 200"
   id="svg4140"
   version="1.1"
   inkscape:version="0.91 r13725"
   sodipodi:docname="icon_race_demon_off.svg">
  <defs
     id="defs4142" />
  <sodipodi:namedview
     id="base"
     pagecolor="#ffffff"
     bordercolor="#666666"
     borderopacity="1.0"
     inkscape:pageopacity="0.0"
     inkscape:pageshadow="2"
     inkscape:zoom="1.4142136"
     inkscape:cx="37.809345"
     inkscape:cy="5.713443"
     inkscape:document-units="px"
     inkscape:current-layer="layer1"
     showgrid="false"
     units="px"
     inkscape:window-width="1680"
     inkscape:window-height="990"
     inkscape:window-x="-8"
     inkscape:window-y="-8"
     inkscape:window-maximized="1"
     showguides="false"
     borderlayer="true">
    <inkscape:grid
       type="xygrid"
       id="grid4688" />
  </sodipodi:namedview>
  <metadata
     id="metadata4145">
    <rdf:RDF>
      <cc:Work
         rdf:about="">
        <dc:format>image/svg+xml</dc:format>
        <dc:type
           rdf:resource="http://purl.org/dc/dcmitype/StillImage" />
        <dc:title></dc:title>
      </cc:Work>
    </rdf:RDF>
  </metadata>
  <g
     inkscape:label="Layer 1"
     inkscape:groupmode="layer"
     id="layer1"
     transform="translate(0,-852.36216)">
    <path
       style="fill:#808080;fill-opacity:1;fill-rule:evenodd;stroke:none;stroke-width:1px;stroke-linecap:butt;stroke-linejoin:miter;stroke-opacity:1"
       d="m 100.63595,966.20608 c -11.12438,0.0745 -26.320831,2.30744 -31.574849,11.99355 -2.425974,4.47243 4.951306,9.6597 4.161027,14.68598 -0.502604,3.19663 -5.557464,4.846 -5.384858,8.07729 0.169953,3.1816 5.345227,4.2523 6.119157,7.343 0.586902,2.3438 -2.573977,4.9497 -1.468598,7.0982 2.122337,4.1252 9.15728,2.6679 12.727847,5.6296 2.438569,2.0229 2.388232,6.8037 5.384859,7.8326 3.31908,1.1395 6.526152,-3.182 10.035415,-3.182 3.25129,0 6.16934,3.8106 9.30112,2.9372 3.45259,-0.9629 4.19406,-5.9765 7.09822,-8.0773 3.88005,-2.8067 11.42576,-1.1886 13.21738,-5.6296 1.09423,-2.7123 -3.8933,-5.19 -3.42672,-8.0773 0.43345,-2.6823 5.10627,-3.4164 5.38485,-6.1192 0.3559,-3.4528 -4.94695,-5.59058 -5.14009,-9.05632 -0.27658,-4.9632 7.9886,-9.20803 5.87439,-13.70692 -4.77628,-10.1636 -21.18476,-11.82328 -32.30915,-11.74878 z m -16.89652,22.6581 c 0.782237,-0.0319 1.546382,0.01 2.210545,0.10517 3.586532,0.51366 3.594657,3.60033 8.811587,6.36392 -5.797554,0.01 -8.040372,3.09575 -11.748782,1.71336 -2.222313,-0.8284 -5.257365,-3.0921 -4.65056,-5.38485 0.514987,-1.94583 3.030493,-2.70194 5.37721,-2.7976 z m 30.80804,0.006 c 2.34671,0.0957 4.86222,0.85178 5.37721,2.7976 0.60681,2.29276 -2.42825,4.55646 -4.65056,5.38486 -3.70841,1.38238 -5.95123,-1.7034 -11.74878,-1.71336 5.21693,-2.76359 5.22505,-5.85026 8.81159,-6.36393 0.66416,-0.0951 1.42831,-0.13705 2.21054,-0.10517 z m -17.093479,6.95289 0.673107,0.36715 c 0,0 -2.227872,3.16029 -3.793877,4.22218 -1.025489,0.6954 -2.747372,0.2917 -3.48792,1.2851 -0.769581,1.0323 -0.920563,2.759 -0.244766,3.855 0.546813,0.8869 2.145232,0.4813 2.876004,1.2239 4.139244,4.2062 6.608691,15.4203 6.608691,15.4203 0,0 3.32799,-11.4448 7.52656,-15.9711 0.70744,-0.7626 2.26951,-0.5478 2.75362,-1.4686 0.50631,-0.9629 0.33337,-2.4107 -0.36715,-3.2431 -0.8894,-1.0569 -2.78386,-0.4674 -3.97745,-1.1626 -1.67023,-0.97291 -4.16103,-4.03869 -4.16103,-4.03869 l 0.55073,-0.42835 c 0,0 2.36602,2.77784 3.91626,3.6715 1.34731,0.77664 3.47926,0.14502 4.46698,1.34624 0.92426,1.124 1.14741,3.0794 0.42834,4.3446 -0.54556,0.9599 -2.22267,0.6217 -2.99838,1.4074 -4.61127,4.6705 -8.07729,18.2963 -8.07729,18.2963 0,0 -2.872802,-13.0464 -7.159414,-17.5008 -0.778412,-0.8089 -2.459876,-0.4585 -3.059579,-1.4074 -0.871787,-1.3796 -0.907344,-3.5819 0.06119,-4.8954 0.826921,-1.1213 2.816205,-0.5151 3.977452,-1.28498 1.482526,-0.98293 3.48792,-4.03865 3.48792,-4.03865 z m 21.845389,10.83093 c 0,0 1.72799,1.4892 1.4686,2.3865 -0.34705,1.2006 -3.12229,2.8916 -4.3446,2.6312 -0.62326,-0.1327 -0.24477,-2.4476 -0.24477,-2.4476 l 3.12077,-2.5701 z m -38.32122,0.4283 3.12077,2.5701 c 0,0 0.378487,2.3149 -0.244766,2.4477 -1.222314,0.2603 -3.997553,-1.4306 -4.344602,-2.6313 -0.259393,-0.8973 1.468598,-2.3865 1.468598,-2.3865 z m 4.868554,2.3636 c 0.225253,0.011 0.435642,0.041 0.59853,0.099 1.0029,0.3602 2.466786,2.0327 2.466786,2.0327 l -0.69223,1.1684 c 0,0 -1.94068,0.4946 -2.768919,0.086 -0.509739,-0.2515 -0.996275,-1.3845 -0.996275,-1.3845 l -0.08605,-1.9027 c 0,0 0.802403,-0.1323 1.478158,-0.099 z m 29.475216,0.3289 c 0,0 0.21551,1.1227 -0.12238,1.9581 -0.58565,1.448 -3.61031,3.4267 -3.54911,3.0596 0.0612,-0.3672 0.12238,-2.7536 0.12238,-2.7536 l 3.54911,-2.2641 z m 4.31018,0.8949 c 0,0 0.41035,1.5537 0.13004,2.2507 -0.30847,0.767 -1.01432,1.4875 -1.81663,1.6866 -0.81153,0.2015 -1.86801,-0.023 -2.4228,-0.6482 -0.40602,-0.4579 0,-1.2124 0,-1.2124 l 4.10939,-2.0767 z m -38.61953,0.8567 4.111309,2.0767 c 0,0 0.406018,0.7545 0,1.2123 -0.554797,0.6257 -1.611276,0.8498 -2.422803,0.6483 -0.802305,-0.1992 -1.510073,-0.9196 -1.818538,-1.6866 -0.280316,-0.697 0.130032,-2.2507 0.130032,-2.2507 z m 8.245564,0.2677 2.724937,1.9046 0.130033,0.8223 c 0,0 -1.938189,0.309 -2.638887,-0.1741 -0.447627,-0.3086 -0.822261,-1.2965 -0.822261,-1.2965 l 0.606178,-1.2563 z m 21.780376,0.7955 -0.0612,2.0193 c 0,0 -1.74432,1.6342 -2.91999,2.0518 -0.73567,0.2614 -2.15891,0.025 -2.15891,0.025 l 0.0612,-1.6483 5.0789,-2.4477 z m 3.96407,0.5469 c 0,0 0.009,1.4889 -0.1721,2.2488 -0.2527,1.0636 -0.63075,2.5365 -1.68851,2.8129 -0.45001,0.1176 -0.97105,-0.2947 -1.21235,-0.6922 -0.3819,-0.6294 -0.0861,-2.2068 -0.0861,-2.2068 l 3.15901,-2.1627 z m -28.589854,0.2696 c 0.468835,-0.018 1.043035,0 1.460949,0.1626 0.650396,0.2483 1.608215,1.0997 1.902676,1.7305 0.256218,0.549 0.08796,1.4285 0.08796,1.4285 0,0 -2.028673,0.246 -2.900864,-0.174 -0.524468,-0.2526 -1.166464,-1.2984 -1.166464,-1.2984 l -0.217994,-1.7727 c 0,0 0.364899,-0.058 0.833734,-0.077 z m 6.176525,0.3366 c 0,0 1.515348,0.5025 2.076689,0.7343 0.897951,0.3707 2.206721,1.2984 2.206721,1.2984 l 0.606179,1.7745 c 0,0 -1.552577,0.268 -2.03462,0.2161 -1.173599,-0.1265 -2.552836,-1.7306 -2.552836,-1.7306 l -0.302133,-2.2927 z m -1.503018,1.0651 c 0.638964,0 1.297949,0.8687 1.589069,1.4877 0.331699,0.7053 -0.08605,2.3348 -0.08605,2.3348 l -1.946657,-1.6426 c 0,0 -0.476128,-1.8332 0.172101,-2.1206 0.08933,-0.04 0.180257,-0.059 0.271538,-0.059 z m 14.276757,0.4207 c 2e-5,0 0.24967,1.3371 -0.0325,1.8606 -0.56708,1.0516 -2.57769,1.1339 -2.57769,1.1339 l 1.12057,-2.941 1.48963,-0.053 z m 4.84943,0.849 c 0.42982,-0.096 1.28503,0.306 1.28503,0.306 0,0 0.36715,1.8051 0.0612,2.0193 -0.30596,0.2141 -1.21665,1.7908 -2.29469,1.8969 -0.37771,0.037 -1.04691,0.069 -1.10144,-0.3059 0,0 -0.28361,-1.392 -0.18358,-2.1417 0.12574,-0.9426 1.30529,-1.5682 2.23349,-1.7746 z m -3.75563,1.4055 c 0.5526,0.022 1.18942,0.153 1.18942,0.153 l 0.13003,2.4668 c 0,0 -0.75978,1.1549 -1.5145,1.2984 -0.64685,0.123 -1.68659,-0.4762 -1.68659,-0.4762 l -0.52013,-2.5107 c 0,0 1.21331,-0.7795 1.90459,-0.9083 0.13865,-0.026 0.31298,-0.03 0.49718,-0.023 z m -13.391392,0.197 c 0,0 1.11253,0.026 1.600542,0.2581 0.488714,0.2329 0.960844,0.6029 1.212358,1.0823 0.27009,0.5149 0.216082,1.7306 0.216082,1.7306 0,0 -0.774113,0.4437 -1.168376,0.3461 -0.821757,-0.2033 -1.816625,-1.7726 -1.816625,-1.7726 l -0.04398,-1.6445 z m 3.690616,0.3097 c 0.392771,-0.031 0.938909,0.1664 0.938909,0.1664 l 0.736214,2.5949 c 0,0 -1.337788,0.014 -1.730577,-0.4321 -0.48922,-0.5562 -0.761657,-1.6618 -0.260064,-2.2068 0.07086,-0.077 0.184594,-0.112 0.315518,-0.1224 z m 5.828496,0.8147 c 0,0 1.01105,-0.053 1.08232,0.4321 0.0659,0.4479 0.56103,1.3709 0.1721,1.6025 -0.32244,0.1915 -1.99063,0.1721 -1.99063,0.1721 l 0.73621,-2.2067 z"
       id="path7934"
       inkscape:connector-curvature="0" />
    <path
       style="fill:#808080;fill-opacity:1;fill-rule:evenodd;stroke:none;stroke-width:1px;stroke-linecap:butt;stroke-linejoin:miter;stroke-opacity:1"
       d="m 69.959673,976.83314 c 0,0 -67.9812159,-62.32553 -19.384502,-111.46088 -25.133619,59.55631 38.076699,102.46093 38.076699,102.46093 z"
       id="path7993"
       inkscape:connector-curvature="0"
       sodipodi:nodetypes="cccc" />
    <path
       style="fill:#808080;fill-opacity:1;fill-rule:evenodd;stroke:none;stroke-width:1px;stroke-linecap:butt;stroke-linejoin:miter;stroke-opacity:1"
       d="m 68.575065,976.83314 c 0,0 -27.587455,-24.83257 -66.807298,0.34616 43.510439,2.3327 68.191906,20.0768 68.191906,20.0768 l 6.230732,-5.88458 z"
       id="path7997"
       inkscape:connector-curvature="0"
       sodipodi:nodetypes="ccccc" />
    <path
       sodipodi:nodetypes="cccc"
       inkscape:connector-curvature="0"
       id="path7999"
       d="m 132.52987,976.83314 c 0,0 67.98122,-62.32553 19.3845,-111.46088 25.13362,59.55631 -38.07669,102.46093 -38.07669,102.46093 z"
       style="fill:#808080;fill-opacity:1;fill-rule:evenodd;stroke:none;stroke-width:1px;stroke-linecap:butt;stroke-linejoin:miter;stroke-opacity:1" />
    <path
       sodipodi:nodetypes="ccccc"
       inkscape:connector-curvature="0"
       id="path8001"
       d="m 131.80995,976.83314 c 0,0 27.58745,-24.83257 66.80729,0.34616 -43.51044,2.3327 -68.1919,20.0768 -68.1919,20.0768 l -6.23074,-5.88458 z"
       style="fill:#808080;fill-opacity:1;fill-rule:evenodd;stroke:none;stroke-width:1px;stroke-linecap:butt;stroke-linejoin:miter;stroke-opacity:1" />
  </g>
</svg>
