<?xml version="1.0" encoding="UTF-8" standalone="no"?>
<!-- Created with Inkscape (http://www.inkscape.org/) -->

<svg
   xmlns:dc="http://purl.org/dc/elements/1.1/"
   xmlns:cc="http://creativecommons.org/ns#"
   xmlns:rdf="http://www.w3.org/1999/02/22-rdf-syntax-ns#"
   xmlns:svg="http://www.w3.org/2000/svg"
   xmlns="http://www.w3.org/2000/svg"
   xmlns:sodipodi="http://sodipodi.sourceforge.net/DTD/sodipodi-0.dtd"
   xmlns:inkscape="http://www.inkscape.org/namespaces/inkscape"
   width="200"
   height="200"
   viewBox="0 0 200 200"
   id="svg4140"
   version="1.1"
   inkscape:version="0.91 r13725"
   sodipodi:docname="icon_race_dragon_on.svg">
  <defs
     id="defs4142" />
  <sodipodi:namedview
     id="base"
     pagecolor="#ffffff"
     bordercolor="#666666"
     borderopacity="1.0"
     inkscape:pageopacity="0.0"
     inkscape:pageshadow="2"
     inkscape:zoom="2"
     inkscape:cx="101.81581"
     inkscape:cy="108.39921"
     inkscape:document-units="px"
     inkscape:current-layer="layer1"
     showgrid="true"
     units="px"
     inkscape:window-width="1680"
     inkscape:window-height="990"
     inkscape:window-x="-8"
     inkscape:window-y="-8"
     inkscape:window-maximized="1"
     showguides="false"
     borderlayer="true">
    <inkscape:grid
       type="xygrid"
       id="grid4688" />
  </sodipodi:namedview>
  <metadata
     id="metadata4145">
    <rdf:RDF>
      <cc:Work
         rdf:about="">
        <dc:format>image/svg+xml</dc:format>
        <dc:type
           rdf:resource="http://purl.org/dc/dcmitype/StillImage" />
        <dc:title></dc:title>
      </cc:Work>
    </rdf:RDF>
  </metadata>
  <g
     inkscape:label="Layer 1"
     inkscape:groupmode="layer"
     id="layer1"
     transform="translate(0,-852.36216)">
    <path
       style="fill:#b71c1c;fill-opacity:1;fill-rule:evenodd;stroke:none;stroke-width:1px;stroke-linecap:butt;stroke-linejoin:miter;stroke-opacity:1"
       d="M 29.974609 5 C 29.974609 5 23.129869 28.36016 24.974609 40 C 26.489319 49.55743 29.892465 60.434517 37.765625 66.060547 C 45.987465 71.935737 48.878096 76.288424 51.197266 83.808594 C 51.197266 83.808594 47.207553 83.531564 43.845703 81.427734 C 43.312293 85.422704 44.974609 90 44.974609 90 C 44.974609 90 36.477834 89.501768 21.527344 76.111328 C 24.342914 100.6395 50.593819 97.98414 54.974609 115 C 54.974609 115 45.139517 116.28927 36.654297 109.02734 C 32.058167 117.14498 59.974609 135 59.974609 135 C 59.974609 135 59.215469 136.58604 57.708984 139.02539 L 64.523438 136.31641 L 70.623047 114.43945 L 80.345703 124.64844 L 82.023438 129.33398 L 83.216797 135.29883 L 86.53125 129.28906 L 90.951172 139.63086 L 93.25 136.18359 L 96.785156 142.8125 L 100.4082 135.74219 L 103.94531 140.07227 L 106.33203 135.12305 L 109.42383 139.45312 L 113.04883 131.32227 L 114.81641 134.94531 L 117.82227 126.90234 L 132.31641 113.20312 L 137.79688 133.53125 L 139.91211 135.07422 C 139.90993 135.06962 139.875 135 139.875 135 C 139.875 135 167.79144 117.14498 163.19531 109.02734 C 154.71009 116.28927 144.875 115 144.875 115 C 149.25579 97.98414 175.5067 100.6395 178.32227 76.111328 C 163.37178 89.501768 154.875 90 154.875 90 C 154.875 90 156.53732 85.422704 156.00391 81.427734 C 152.64206 83.531564 148.65234 83.808594 148.65234 83.808594 C 150.97151 76.288424 153.86214 71.935737 162.08398 66.060547 C 169.95714 60.434517 173.36029 49.55743 174.875 40 C 176.71974 28.36016 169.875 5 169.875 5 C 169.875 5 165.77612 56.844755 142.08398 55.265625 C 142.08398 55.265625 144.74201 47.39257 139.875 50 C 122.19168 61.44627 122.31801 77.24303 109.875 80 C 105.21261 80.924853 105.09395 75.337875 99.974609 75.011719 L 99.974609 75 C 99.956592 75.000882 99.941724 75.004849 99.923828 75.005859 C 99.906647 75.004894 99.892293 75.000847 99.875 75 L 99.875 75.011719 C 94.755898 75.338037 94.636929 80.924838 89.974609 80 C 77.531599 77.24303 77.657929 61.44627 59.974609 50 C 55.107599 47.39257 57.765625 55.265625 57.765625 55.265625 C 34.073485 56.844755 29.974609 5 29.974609 5 z M 100 90.125 L 105 115 L 100 96.625 L 95 115 L 100 90.125 z M 83.984375 112.68164 C 86.58687 112.31814 90.197266 118.68164 90.197266 118.68164 C 90.197266 118.68164 85.64099 119.54249 84.1875 118.15234 C 82.89867 116.91967 81.908436 113.69347 83.478516 112.84766 C 83.641698 112.75975 83.810875 112.70587 83.984375 112.68164 z M 115.99023 112.68359 C 116.16373 112.70783 116.33291 112.7617 116.49609 112.84961 C 118.06617 113.69542 117.07789 116.91967 115.78906 118.15234 C 114.33557 119.54249 109.7793 118.68359 109.7793 118.68359 C 109.7793 118.68359 113.38774 112.3201 115.99023 112.68359 z M 131.875 115.5 L 119.50195 127.16797 L 120.91602 136.36133 L 118.43945 130.34961 L 114.9043 138.48242 L 113.13672 133.53125 L 109.60156 142.72461 L 106.77344 137.06836 L 105.35938 145.90625 L 100.4082 137.77539 L 96.873047 146.61328 L 93.337891 138.83594 L 90.15625 144.13867 L 86.621094 131.41016 L 82.732422 138.12891 L 80.255859 131.41016 L 76.013672 142.01758 L 79.902344 125.75391 L 70.710938 116.20703 L 65.054688 137.42188 L 56.556641 140.82031 C 55.574228 142.30138 54.400275 143.96058 52.974609 145.75 C 77.677724 164.86003 96.869923 190.73914 99.390625 194.20312 L 100 148.375 L 100.60742 194.00195 C 103.67065 189.81433 122.61197 164.51955 146.875 145.75 C 144.25445 142.46081 142.4673 139.62878 141.32617 137.66016 L 136.4707 133.88477 L 131.875 115.5 z M 94.8125 129.44922 C 96.556843 129.75366 96.560547 135.65234 96.560547 135.65234 C 96.560547 135.65234 95.334323 133.87042 94.970703 132.82422 C 93.811593 134.47382 93.339423 129.73806 94.439453 129.46484 C 94.571723 129.432 94.69621 129.42892 94.8125 129.44922 z M 105.16406 129.44922 C 105.28035 129.42892 105.40289 129.43395 105.53516 129.4668 C 106.63519 129.74002 106.16497 134.47386 105.00586 132.82422 C 104.64224 133.87042 103.41406 135.65234 103.41406 135.65234 C 103.41406 135.65234 103.41972 129.75366 105.16406 129.44922 z "
       transform="translate(0,852.36216)"
       id="path7117" />
  </g>
</svg>
