<?xml version="1.0" encoding="UTF-8" standalone="no"?>
<!-- Created with Inkscape (http://www.inkscape.org/) -->

<svg
   xmlns:dc="http://purl.org/dc/elements/1.1/"
   xmlns:cc="http://creativecommons.org/ns#"
   xmlns:rdf="http://www.w3.org/1999/02/22-rdf-syntax-ns#"
   xmlns:svg="http://www.w3.org/2000/svg"
   xmlns="http://www.w3.org/2000/svg"
   xmlns:sodipodi="http://sodipodi.sourceforge.net/DTD/sodipodi-0.dtd"
   xmlns:inkscape="http://www.inkscape.org/namespaces/inkscape"
   width="265.74802"
   height="265.74802"
   viewBox="0 0 265.74803 265.74804"
   id="svg2"
   version="1.1"
   inkscape:version="0.91 r13725"
   sodipodi:docname="icon_set_loe_color.svg">
  <defs
     id="defs4" />
  <sodipodi:namedview
     id="base"
     pagecolor="#ffffff"
     bordercolor="#666666"
     borderopacity="1.0"
     inkscape:pageopacity="0.0"
     inkscape:pageshadow="2"
     inkscape:zoom="1.979899"
     inkscape:cx="37.153666"
     inkscape:cy="197.70398"
     inkscape:document-units="px"
     inkscape:current-layer="layer1"
     showgrid="false"
     fit-margin-top="16.5"
     fit-margin-left="2"
     fit-margin-right="2"
     fit-margin-bottom="16.5"
     inkscape:window-width="1680"
     inkscape:window-height="990"
     inkscape:window-x="-8"
     inkscape:window-y="-8"
     inkscape:window-maximized="1"
     units="px" />
  <metadata
     id="metadata7">
    <rdf:RDF>
      <cc:Work
         rdf:about="">
        <dc:format>image/svg+xml</dc:format>
        <dc:type
           rdf:resource="http://purl.org/dc/dcmitype/StillImage" />
        <dc:title></dc:title>
      </cc:Work>
    </rdf:RDF>
  </metadata>
  <g
     inkscape:label="Layer 1"
     inkscape:groupmode="layer"
     id="layer1"
     transform="translate(-241.20537,-639.22572)">
    <path
       style="fill:#009688;fill-opacity:1;fill-rule:evenodd;stroke:none;stroke-width:0.50000006;stroke-linecap:butt;stroke-linejoin:miter;stroke-opacity:1;stroke-miterlimit:4;stroke-dasharray:none"
       d="m 305.06607,785.68193 c 0,0 3.2696,0.61055 5.3033,1.26269 0.0134,-13.74253 8.61638,-10.60534 6.81853,2.77792 5.27322,-10e-4 12.42218,-0.24217 18.18275,-2.77792 -3.83588,-13.64743 8.08207,-17.0553 10.35406,-2.77792 8.75132,-2.40807 14.02168,-5.41384 19.44544,-8.58629 -7.68284,-12.17716 5.31839,-19.08647 10.10152,-4.04061 6.03313,-2.35389 11.52121,-7.81294 21.16988,-12.57089 -7.02936,-10.53569 4.28251,-17.16183 8.88216,-3.08648 8.75013,-3.05917 11.97103,-5.22975 27.27412,-5.55584 -5.46632,-13.45807 -17.11702,-27.40775 -19.95051,-42.93148 -0.40923,-2.24203 1.72294,-4.89214 0.50507,-6.81853 -1.4953,-2.36522 -5.04047,-2.79358 -7.82868,-3.03046 -27.04335,-2.2975 -53.01233,11.81131 -79.80205,16.16244 -4.77175,0.77502 -11.91189,0.40779 -16.35897,2.30348 -2.697,1.14967 -11.99105,6.81642 -5.56853,6.98442 8.55472,0.22377 15.85792,-0.25877 19.72862,-0.87492 13.8503,-2.163 32.3634,-13.28377 43.5797,-16.14373 31.35448,-7.99485 39.17884,-4.13854 39.17884,-4.13854 0,0 -23.5277,2.59074 -32.82252,4.89014 -10.60735,2.62411 -16.18973,6.04767 -26.2714,10.26215 -7.40482,3.09547 -15.16845,6.33016 -23.04225,7.8847 -7.8495,1.54975 -15.42142,-0.40837 -22.91969,1.20667 -1.0697,4.47218 3.39286,2.85714 4.29315,12.62691 1.61312,9.92131 -0.25254,46.97209 -0.25254,46.97209 z"
       id="path4150"
       inkscape:connector-curvature="0"
       sodipodi:nodetypes="ccccccccccsssssscscsssccc" />
  </g>
  <g
     inkscape:groupmode="layer"
     id="layer2"
     inkscape:label="Layer 2"
     transform="translate(-241.20537,-639.22572)">
    <path
       style="fill:#009688;fill-opacity:1;fill-rule:evenodd;stroke:none;stroke-width:0.50000006;stroke-linecap:butt;stroke-linejoin:miter;stroke-opacity:1;stroke-miterlimit:4;stroke-dasharray:none"
       d="m 432.5,780.39792 c 34.53017,-34.17944 68.32287,-37.1159 52.85714,-12.32143 19.53428,-13.59839 1.20451,-38.20551 -42.85714,-0.71429 -28.18407,23.98129 -38.01922,39.76974 -90,65 -56.39956,32.28211 -171.75942,5.03551 -49.46429,-46.07143 -2.09335,5.36393 -2.14717,13.83097 2.32143,16.78572 21.42435,14.16632 70.47961,-10.65827 83.21429,-18.92857 24.54538,-17.16981 22.93383,-17.79646 48.57143,-23.03571 0,0 8.76068,-0.85996 20.95413,-8.68873 65.76489,-36.57877 45.58712,45.54674 -25.59699,27.97444 z"
       id="path4148"
       inkscape:connector-curvature="0"
       sodipodi:nodetypes="ccsccscccc" />
  </g>
</svg>
