<?xml version="1.0" encoding="UTF-8" standalone="no"?>
<svg
   xmlns:dc="http://purl.org/dc/elements/1.1/"
   xmlns:cc="http://creativecommons.org/ns#"
   xmlns:rdf="http://www.w3.org/1999/02/22-rdf-syntax-ns#"
   xmlns:svg="http://www.w3.org/2000/svg"
   xmlns="http://www.w3.org/2000/svg"
   xmlns:sodipodi="http://sodipodi.sourceforge.net/DTD/sodipodi-0.dtd"
   xmlns:inkscape="http://www.inkscape.org/namespaces/inkscape"
   id="Layer_1"
   data-name="Layer 1"
   viewBox="0 0 102.31227 101.24587"
   version="1.1"
   inkscape:version="0.91 r13725"
   sodipodi:docname="icon_set_onik_color.svg"
   width="102.31227"
   height="101.24586">
  <defs
     id="defs4143" />
  <metadata
     id="metadata4147">
    <rdf:RDF>
      <cc:Work
         rdf:about="">
        <dc:format>image/svg+xml</dc:format>
        <dc:type
           rdf:resource="http://purl.org/dc/dcmitype/StillImage" />
        <dc:title>icon-classic</dc:title>
      </cc:Work>
    </rdf:RDF>
  </metadata>
  <sodipodi:namedview
     pagecolor="#ffffff"
     bordercolor="#666666"
     borderopacity="1"
     objecttolerance="10"
     gridtolerance="10"
     guidetolerance="10"
     inkscape:pageopacity="0"
     inkscape:pageshadow="2"
     inkscape:window-width="1680"
     inkscape:window-height="990"
     id="namedview4145"
     showgrid="false"
     fit-margin-top="10"
     fit-margin-bottom="10"
     fit-margin-left="14"
     fit-margin-right="14"
     inkscape:zoom="3.430613"
     inkscape:cx="-2.9923676"
     inkscape:cy="70.251705"
     inkscape:window-x="-8"
     inkscape:window-y="-8"
     inkscape:window-maximized="1"
     inkscape:current-layer="Layer_1" />
  <title
     id="title4141">icon-classic</title>
  <path
     style="fill:#8c9eff;fill-opacity:1;fill-rule:evenodd;stroke:none;stroke-width:1px;stroke-linecap:butt;stroke-linejoin:miter;stroke-opacity:1"
     d="m 35.803777,37.548822 c 0.944236,27.777519 -8.179098,37.228766 -8.179098,37.228766 l 47.244582,0 c 0,0 -10.096259,-9.054336 -9.0158,-37.228766 l -30.049684,0 z m 15.19263,8.848012 c 0,1e-6 5.612313,0.715713 5.843491,16.86156 l -11.519194,0 c -0.01731,-16.125923 5.675703,-16.86156 5.675703,-16.86156 z"
     id="path5251"
     inkscape:connector-curvature="0" />
  <rect
     style="fill:#8c9eff;fill-opacity:1;stroke:none;stroke-width:1.00000024;stroke-linecap:square;stroke-linejoin:miter;stroke-miterlimit:4;stroke-dasharray:none;stroke-opacity:1"
     id="rect5257"
     width="60.675812"
     height="13.339236"
     x="20.779039"
     y="78.21003"
     ry="2.0067878" />
  <path
     style="fill:#8c9eff;fill-opacity:1;stroke:none;stroke-width:1;stroke-linecap:square;stroke-linejoin:miter;stroke-miterlimit:4;stroke-dasharray:none;stroke-opacity:1"
     d="m 30.599975,8.8996074 c -1.665076,0 -3.006758,1.3394486 -3.006758,3.0045206 l 0,15.029317 c 0,0.199697 0.0236,0.393058 0.0604,0.581665 0.274065,3.669745 3.31161,6.545962 7.053801,6.545962 l 31.872978,0 c 3.923856,0 7.082884,-3.159027 7.082884,-7.082883 2.27e-4,-0.0153 0.0045,-0.02938 0.0045,-0.04474 l 0,-15.029316 c 0,-1.665073 -1.339447,-3.0045212 -3.004522,-3.0045212 l -3.570525,0 0,5.0246872 c 0,1.665077 -1.339443,3.006758 -3.00452,3.006758 l -3.422873,0 c -1.665078,0 -3.00452,-1.341681 -3.00452,-3.006758 l 0,-5.0246872 -14.065096,0 0,5.0246872 c 0,1.665077 -1.341682,3.006758 -3.006758,3.006758 l -3.420636,0 c -1.665076,0 -3.00452,-1.341681 -3.00452,-3.006758 l 0,-5.0246872 -3.563813,0 z"
     id="rect5259"
     inkscape:connector-curvature="0" />
</svg>
