<?xml version="1.0" encoding="UTF-8" standalone="no"?>
<!-- Created with Inkscape (http://www.inkscape.org/) -->

<svg
   xmlns:dc="http://purl.org/dc/elements/1.1/"
   xmlns:cc="http://creativecommons.org/ns#"
   xmlns:rdf="http://www.w3.org/1999/02/22-rdf-syntax-ns#"
   xmlns:svg="http://www.w3.org/2000/svg"
   xmlns="http://www.w3.org/2000/svg"
   xmlns:sodipodi="http://sodipodi.sourceforge.net/DTD/sodipodi-0.dtd"
   xmlns:inkscape="http://www.inkscape.org/namespaces/inkscape"
   width="210.11339"
   height="210.24786"
   viewBox="0 0 210.11338 210.24786"
   id="svg2"
   version="1.1"
   inkscape:version="0.91 r13725"
   sodipodi:docname="icon_set_wog_color.svg">
  <defs
     id="defs4" />
  <sodipodi:namedview
     id="base"
     pagecolor="#ffffff"
     bordercolor="#666666"
     borderopacity="1.0"
     inkscape:pageopacity="0.0"
     inkscape:pageshadow="2"
     inkscape:zoom="1.979899"
     inkscape:cx="121.15089"
     inkscape:cy="156.86401"
     inkscape:document-units="px"
     inkscape:current-layer="layer2"
     showgrid="false"
     units="px"
     inkscape:window-width="1680"
     inkscape:window-height="990"
     inkscape:window-x="-8"
     inkscape:window-y="-8"
     inkscape:window-maximized="1"
     fit-margin-top="15"
     fit-margin-left="27"
     fit-margin-right="27"
     fit-margin-bottom="15"
     showguides="false">
    <inkscape:grid
       type="xygrid"
       id="grid4136"
       originx="13.113393"
       originy="8.6472417e-006" />
  </sodipodi:namedview>
  <metadata
     id="metadata7">
    <rdf:RDF>
      <cc:Work
         rdf:about="">
        <dc:format>image/svg+xml</dc:format>
        <dc:type
           rdf:resource="http://purl.org/dc/dcmitype/StillImage" />
        <dc:title></dc:title>
      </cc:Work>
    </rdf:RDF>
  </metadata>
  <g
     inkscape:label="Layer 1"
     inkscape:groupmode="layer"
     id="layer1"
     transform="translate(13.113393,-842.11429)" />
  <g
     inkscape:groupmode="layer"
     id="layer2"
     inkscape:label="Layer 2"
     style="display:inline"
     transform="translate(13.113393,10.247868)">
    <path
       style="fill:#ba68c8;fill-opacity:1;fill-rule:evenodd;stroke:none;stroke-width:1px;stroke-linecap:butt;stroke-linejoin:miter;stroke-opacity:1"
       d="M 111.7857,184.28571 169.99999,185 c -4.00539,-41.68767 -35.5683,-78.89869 -35.5683,-78.89869 -1.8782,2.0217 -4.17586,4.60697 -4.17586,4.60697 l 0.22189,6.58394 c -3.47285,6.97676 -12.16515,10.40746 -12.16515,10.40746 l -5.77775,-1.32134 c -2.87507,4.62165 -10.62454,8.56727 -10.62454,8.56727 l 0.14794,4.02528 c 0,0 0.93788,0.95031 -2.446165,2.40283 0,0 8.605835,18.31373 12.173645,42.91199 z"
       id="path4150"
       inkscape:connector-curvature="0"
       sodipodi:nodetypes="ccccccccccc" />
    <path
       style="fill:#ba68c8;fill-opacity:1;fill-rule:evenodd;stroke:none;stroke-width:1px;stroke-linecap:butt;stroke-linejoin:miter;stroke-opacity:1"
       d="M 73.214278,115.71429 C 95.280067,113.45045 139.08561,67.142504 125.35713,27.857143 120.15674,13.624085 83.372121,13.776676 78.571421,43.571428 65.913578,23.901894 108.54581,-20.886237 146.74052,24.199056 l 3.57142,1.008295 c 0,0 3.09792,4.399013 2.71107,10.528599 l -3.02302,2.478335 c 0,0 2.39298,8.640634 1.07143,18.571429 l 3.74999,0.892857 c 0,0 2.2349,5.111097 -0.17857,10.178572 l -4.10713,0.892856 c 0,0 -0.64848,8.655612 -5.17858,18.035715 l 2.50001,5 c 0,0 -1.78486,6.780301 -7.14286,10.714286 l -5.35715,0 c 0,0 -2.85069,3.5648 -7.14285,6.78571 l 0.35714,7.5 c 0,0 -3.60991,5.27397 -11.07143,9.28572 l -6.07143,-1.42857 c 0,0 -5.33028,6.64326 -11.785711,9.28571 l 0,5 c -6.297159,6.28033 -14.926033,7.48732 -14.926033,7.48732 l -5.07025,-2.10851 c 0,0 -7.009491,1.69104 -13.313633,0.91452 l -2.940084,4.06381 c -8.501243,0.98282 -16.428571,-1.96428 -16.428571,-1.96428 l -0.701595,-5.13525 c 0,0 -8.413145,-2.94923 -13.048405,-8.79332 L 26.702766,135 C 20.285532,131.83859 16.681101,123.86358 16.681101,123.86358 l 2.961748,-5.64929 c 0,0 -3.071377,-6.28768 -1.964285,-14.64286 l -3.750001,-3.39286 c -0.438224,-6.456255 2.700236,-11.093091 2.700236,-11.093091 l 4.978335,-0.692622 c 0,0 2.026234,-6.426133 7.142858,-9.821429 l 0,-4.642857 C 34.473213,68.621571 40.357135,66.25 40.357135,66.25 l 4.285714,1.428571 c 0,0 31.368322,-16.089998 68.214281,14.821429 0,0 -12.92762,19.28416 -31.428566,28.75 -27.78666,-29.641302 -47.958647,6.72813 -8.214286,4.46429 z"
       id="path4154"
       inkscape:connector-curvature="0"
       sodipodi:nodetypes="cccccccccccccccccccccccccccccccccccccccccc" />
  </g>
</svg>
