<?xml version="1.0" encoding="UTF-8" standalone="no"?>
<!-- Created with Inkscape (http://www.inkscape.org/) -->

<svg
   xmlns:dc="http://purl.org/dc/elements/1.1/"
   xmlns:cc="http://creativecommons.org/ns#"
   xmlns:rdf="http://www.w3.org/1999/02/22-rdf-syntax-ns#"
   xmlns:svg="http://www.w3.org/2000/svg"
   xmlns="http://www.w3.org/2000/svg"
   xmlns:sodipodi="http://sodipodi.sourceforge.net/DTD/sodipodi-0.dtd"
   xmlns:inkscape="http://www.inkscape.org/namespaces/inkscape"
   width="224.45372"
   height="224.50452"
   viewBox="0 0 224.45371 224.50451"
   id="svg4766"
   version="1.1"
   inkscape:version="0.91 r13725"
   sodipodi:docname="icon_set_core_grey.svg">
  <defs
     id="defs4768" />
  <sodipodi:namedview
     id="base"
     pagecolor="#ffffff"
     bordercolor="#666666"
     borderopacity="1.0"
     inkscape:pageopacity="0.0"
     inkscape:pageshadow="2"
     inkscape:zoom="1.4142136"
     inkscape:cx="57.877401"
     inkscape:cy="93.293783"
     inkscape:document-units="px"
     inkscape:current-layer="layer1"
     showgrid="true"
     units="px"
     inkscape:window-width="1680"
     inkscape:window-height="990"
     inkscape:window-x="-8"
     inkscape:window-y="-8"
     inkscape:window-maximized="1"
     fit-margin-top="16"
     fit-margin-left="16"
     fit-margin-right="16"
     fit-margin-bottom="16">
    <inkscape:grid
       type="xygrid"
       id="grid5314"
       originx="12.344104"
       originy="12.496718" />
  </sodipodi:namedview>
  <metadata
     id="metadata4771">
    <rdf:RDF>
      <cc:Work
         rdf:about="">
        <dc:format>image/svg+xml</dc:format>
        <dc:type
           rdf:resource="http://purl.org/dc/dcmitype/StillImage" />
        <dc:title></dc:title>
      </cc:Work>
    </rdf:RDF>
  </metadata>
  <g
     inkscape:label="Layer 1"
     inkscape:groupmode="layer"
     id="layer1"
     transform="translate(12.344105,-840.35449)">
    <path
       style="fill:#808080;fill-opacity:1;stroke:#808080;stroke-width:0.66038811;stroke-linecap:square;stroke-linejoin:miter;stroke-miterlimit:4;stroke-dasharray:none;stroke-opacity:1"
       d="m 100.01295,886.23098 a 66.10492,66.10492 0 0 0 -66.104381,66.10438 66.10492,66.10492 0 0 0 66.104381,66.10434 66.10492,66.10492 0 0 0 66.10439,-66.10434 66.10492,66.10492 0 0 0 -66.10439,-66.10438 z m 0,21.1371 a 44.967639,44.967639 0 0 1 44.96729,44.96728 44.967639,44.967639 0 0 1 -44.96729,44.96729 44.967639,44.967639 0 0 1 -44.967284,-44.96729 44.967639,44.967639 0 0 1 44.967284,-44.96728 z"
       id="path5318"
       inkscape:connector-curvature="0" />
    <path
       style="fill:#808080;fill-opacity:1;fill-rule:evenodd;stroke:#808080;stroke-width:1.11019623px;stroke-linecap:butt;stroke-linejoin:miter;stroke-opacity:1"
       d="m 100.01255,846.86675 -18.734564,32.78332 a 75.032142,75.032142 0 0 1 18.916704,-2.51963 75.032142,75.032142 0 0 1 18.46786,2.37435 l -18.65,-32.63804 z"
       id="path5320"
       inkscape:connector-curvature="0" />
    <path
       style="fill:#808080;fill-opacity:1;fill-rule:evenodd;stroke:#808080;stroke-width:1.11019623px;stroke-linecap:butt;stroke-linejoin:miter;stroke-opacity:1"
       d="m 80.660005,1024.5806 19.296168,33.7655 19.257127,-33.7005 a 75.032142,75.032142 0 0 1 -19.01861,2.5478 75.032142,75.032142 0 0 1 -19.534685,-2.6128 z"
       id="path5320-5"
       inkscape:connector-curvature="0" />
    <path
       style="fill:#808080;fill-opacity:1;fill-rule:evenodd;stroke:#808080;stroke-width:1.11019623px;stroke-linecap:butt;stroke-linejoin:miter;stroke-opacity:1"
       d="m 27.585251,933.47074 -33.4143065,19.0945 33.7005285,19.25714 a 75.032142,75.032142 0 0 1 -2.708271,-19.66045 75.032142,75.032142 0 0 1 2.422049,-18.69119 z"
       id="path5320-5-1"
       inkscape:connector-curvature="0" />
    <path
       style="fill:#808080;fill-opacity:1;fill-rule:evenodd;stroke:#808080;stroke-width:1.11019623px;stroke-linecap:butt;stroke-linejoin:miter;stroke-opacity:1"
       d="m 172.84533,933.79165 a 75.032142,75.032142 0 0 1 2.38085,18.37028 75.032142,75.032142 0 0 1 -2.52613,19.13787 l 32.8939,-18.79526 -32.74862,-18.71289 z"
       id="path5320-5-1-8"
       inkscape:connector-curvature="0" />
    <path
       style="fill:#808080;fill-opacity:1;fill-rule:evenodd;stroke:#808080;stroke-width:1.11019623px;stroke-linecap:butt;stroke-linejoin:miter;stroke-opacity:1"
       d="m 122.88568,898.21003 c 23.55082,7.85028 31.40099,31.401 31.40099,31.401 l 11.7755,-43.1764 z"
       id="path5320-5-1-8-6"
       inkscape:connector-curvature="0" />
    <path
       style="fill:#808080;fill-opacity:1;fill-rule:evenodd;stroke:#808080;stroke-width:1.11019623px;stroke-linecap:butt;stroke-linejoin:miter;stroke-opacity:1"
       d="m 45.936437,929.51714 c 7.850265,-23.5508 31.400992,-31.40098 31.400992,-31.40098 l -43.1764,-11.77549 z"
       id="path5320-5-1-8-6-3"
       inkscape:connector-curvature="0" />
    <path
       style="fill:#808080;fill-opacity:1;fill-rule:evenodd;stroke:#808080;stroke-width:1.11019623px;stroke-linecap:butt;stroke-linejoin:miter;stroke-opacity:1"
       d="M 77.278275,1006.4511 C 53.727471,998.60088 45.877295,975.05017 45.877295,975.05017 L 34.101798,1018.2265 Z"
       id="path5320-5-1-8-6-3-3"
       inkscape:connector-curvature="0" />
    <path
       style="fill:#808080;fill-opacity:1;fill-rule:evenodd;stroke:#808080;stroke-width:1.11019623px;stroke-linecap:butt;stroke-linejoin:miter;stroke-opacity:1"
       d="m 154.27286,975.1022 c -7.8502,23.5508 -31.40096,31.401 -31.40096,31.401 l 43.17637,11.7754 z"
       id="path5320-5-1-8-6-3-4"
       inkscape:connector-curvature="0" />
  </g>
</svg>
