<?xml version="1.0" encoding="UTF-8" standalone="no"?>
<svg
   xmlns:dc="http://purl.org/dc/elements/1.1/"
   xmlns:cc="http://creativecommons.org/ns#"
   xmlns:rdf="http://www.w3.org/1999/02/22-rdf-syntax-ns#"
   xmlns:svg="http://www.w3.org/2000/svg"
   xmlns="http://www.w3.org/2000/svg"
   xmlns:sodipodi="http://sodipodi.sourceforge.net/DTD/sodipodi-0.dtd"
   xmlns:inkscape="http://www.inkscape.org/namespaces/inkscape"
   id="Layer_1"
   data-name="Layer 1"
   viewBox="0 0 102.31227 101.24587"
   version="1.1"
   inkscape:version="0.91 r13725"
   sodipodi:docname="icon_set_jtu_color.svg"
   width="102.31227"
   height="101.24586">
  <defs
     id="defs4143" />
  <metadata
     id="metadata4147">
    <rdf:RDF>
      <cc:Work
         rdf:about="">
        <dc:format>image/svg+xml</dc:format>
        <dc:type
           rdf:resource="http://purl.org/dc/dcmitype/StillImage" />
        <dc:title>icon-classic</dc:title>
      </cc:Work>
    </rdf:RDF>
  </metadata>
  <sodipodi:namedview
     pagecolor="#ffffff"
     bordercolor="#666666"
     borderopacity="1"
     objecttolerance="10"
     gridtolerance="10"
     guidetolerance="10"
     inkscape:pageopacity="0"
     inkscape:pageshadow="2"
     inkscape:window-width="1680"
     inkscape:window-height="987"
     id="namedview4145"
     showgrid="false"
     fit-margin-top="10"
     fit-margin-bottom="10"
     fit-margin-left="14"
     fit-margin-right="14"
     inkscape:zoom="3.430613"
     inkscape:cx="16.49467"
     inkscape:cy="78.298134"
     inkscape:window-x="-8"
     inkscape:window-y="-8"
     inkscape:window-maximized="1"
     inkscape:current-layer="Layer_1"
     borderlayer="true"
     showguides="false">
    <sodipodi:guide
       position="49.991065,-50.136819"
       orientation="-101.24586,0"
       id="guide4158" />
    <sodipodi:guide
       position="-97.0672,49.991072"
       orientation="0,-102.31227"
       id="guide4160" />
  </sodipodi:namedview>
  <title
     id="title4141">icon-classic</title>
  <path
     style="fill:#f57c00;fill-rule:evenodd;stroke:none;stroke-width:1px;stroke-linecap:butt;stroke-linejoin:miter;stroke-opacity:1;fill-opacity:1"
     d="M 74.039239,8.2595594 C 72.219868,30.841348 68.8923,33.590598 65.750884,37.289646 c -1.647068,1.740939 -1.554998,2.967539 -6.577793,7.989536 -2.982343,2.981545 -6.151756,6.668094 -6.995835,12.534205 1.487867,3.534164 5.962687,2.802686 9.619273,2.331944 3.656587,-0.470742 4.786112,-3.407223 10.785245,-5.246875 5.999133,-1.839653 12.189647,-0.393353 23.61094,-3.206425 -9.27472,13.510544 -18.454494,20.690605 -33.813199,23.610941 -5.739431,0.296897 -17.15692,9.020173 -25.3599,9.327779 -4.413569,3.222538 -4.284224,7.054016 -8.161807,8.453299 -3.946974,1.424324 -8.011421,0.477313 -11.36823,-2.040452 -3.594107,-2.695749 -6.635329,-6.174067 -6.121355,-9.910764 1.388454,-3.736697 4.408239,-5.768262 4.955382,-8.744793 C 15.12179,64.164634 13.747889,50.351717 14.86614,46.445155 13.360952,37.291717 10.245301,24.13976 23.027947,7.6765732 c 4.912331,18.2244978 6.476561,16.5746158 6.995834,22.4449678 0.519272,5.870352 -2.085273,7.951288 -1.165972,11.368231 0.919301,3.416943 1.83016,6.980799 5.829862,6.995835 3.999702,0.01504 7.355944,-7.935807 9.619272,-11.368231 2.263328,-3.432424 4.372397,-8.744792 4.372397,-8.744792 0,0 5.317284,-11.796539 25.359899,-20.1130246 z"
     id="path4155"
     inkscape:connector-curvature="0"
     sodipodi:nodetypes="cccccccccsscccccccccc" />
</svg>
