<?xml version="1.0" encoding="UTF-8" standalone="no"?>
<svg
   xmlns:dc="http://purl.org/dc/elements/1.1/"
   xmlns:cc="http://creativecommons.org/ns#"
   xmlns:rdf="http://www.w3.org/1999/02/22-rdf-syntax-ns#"
   xmlns:svg="http://www.w3.org/2000/svg"
   xmlns="http://www.w3.org/2000/svg"
   xmlns:sodipodi="http://sodipodi.sourceforge.net/DTD/sodipodi-0.dtd"
   xmlns:inkscape="http://www.inkscape.org/namespaces/inkscape"
   id="Layer_1"
   data-name="Layer 1"
   viewBox="0 0 102.31227 101.24587"
   version="1.1"
   inkscape:version="0.91 r13725"
   sodipodi:docname="icon_set_classic_grey.svg"
   width="102.31227"
   height="101.24586">
  <metadata
     id="metadata4147">
    <rdf:RDF>
      <cc:Work
         rdf:about="">
        <dc:format>image/svg+xml</dc:format>
        <dc:type
           rdf:resource="http://purl.org/dc/dcmitype/StillImage" />
        <dc:title>icon-classic</dc:title>
      </cc:Work>
    </rdf:RDF>
  </metadata>
  <sodipodi:namedview
     pagecolor="#ffffff"
     bordercolor="#666666"
     borderopacity="1"
     objecttolerance="10"
     gridtolerance="10"
     guidetolerance="10"
     inkscape:pageopacity="0"
     inkscape:pageshadow="2"
     inkscape:window-width="1680"
     inkscape:window-height="990"
     id="namedview4145"
     showgrid="false"
     fit-margin-top="10"
     fit-margin-bottom="10"
     fit-margin-left="14"
     fit-margin-right="14"
     inkscape:zoom="3.4306129"
     inkscape:cx="83.373599"
     inkscape:cy="-1.4746051"
     inkscape:window-x="-8"
     inkscape:window-y="-8"
     inkscape:window-maximized="1"
     inkscape:current-layer="Layer_1" />
  <defs
     id="defs4137">
    <style
       id="style4139">.cls-1{fill:#4582c3;}</style>
  </defs>
  <title
     id="title4141">icon-classic</title>
  <path
     class="cls-1"
     d="m 87.124439,39.549393 c 0.996858,6.684644 0.773413,15.439279 -1.302411,16.541732 -1.769239,6.620993 -6.973476,19.492121 -10.52809,22.152379 l -3.332192,1.514767 0.173157,0.979111 C 59.879954,88.781747 39.681509,92.526703 26.697257,86.794787 23.475551,85.372561 20.197263,83.902476 18.902135,82.494968 17.574625,81.052267 18.03856,80.55768 17.66532,76.752815 c 2.428959,-0.254141 4.902996,1.465362 7.383627,1.755625 2.480631,0.290269 3.053454,0.654313 7.452065,1.126515 3.983011,0.427586 7.763025,0.573017 12.338179,-1.484297 6.324113,-0.599848 11.044087,-2.153593 14.506657,-4.790343 1.45,-1.23 10.47,-9.2 10.36,-22 0,-1.08 -0.4,-17.57 -13.23,-23.46 -8,-3.69 -18.266788,-4.021719 -23.146788,3.298281 -2.839839,-0.02294 -5.756362,6.867764 -4.5102,9.427254 0.444557,2.778109 1.550978,6.660779 2.906988,7.644465 3,3.41 8.75,4.88 10.93,2.88 2.66,-2.43 1.16646,-5.744365 1.3,-10.93 4.164226,-0.649416 7.898934,2.017285 9.800584,4.708693 1.859657,3.196942 2.598248,8.789416 1.629657,12.019657 -3,8.36 -15.910241,11.57165 -25.850241,7.73165 -10.910816,-4.214738 -15.978941,-20.377577 -14.63419,-32.051538 0.183541,-1.593343 1.181517,-0.8619 1.635478,-2.360691 3.154262,-10.384402 17.657813,-17.110898 23.805932,-20.199673 l 4.762487,0.286605 5.905411,-1.0812599 c 1.409873,1.0572119 2.027207,0.8777029 3.704882,1.1165619 10.69947,1.630807 17.406571,4.538949 23.598467,13.105689 0.462043,0.639255 3.400223,4.669518 3.994462,7.456888 1.879893,1.658421 3.429969,3.079703 4.815662,8.596496 z"
     id="path4143"
     style="fill:#808080;fill-opacity:1;stroke:none;stroke-opacity:1;stroke-width:0.50000009;stroke-miterlimit:4;stroke-dasharray:none"
     inkscape:connector-curvature="0"
     sodipodi:nodetypes="cccccssczsccccccccccccscccccscc" />
</svg>
