<?xml version="1.0" encoding="UTF-8" standalone="no"?>
<!-- Created with Inkscape (http://www.inkscape.org/) -->

<svg
   xmlns:dc="http://purl.org/dc/elements/1.1/"
   xmlns:cc="http://creativecommons.org/ns#"
   xmlns:rdf="http://www.w3.org/1999/02/22-rdf-syntax-ns#"
   xmlns:svg="http://www.w3.org/2000/svg"
   xmlns="http://www.w3.org/2000/svg"
   xmlns:sodipodi="http://sodipodi.sourceforge.net/DTD/sodipodi-0.dtd"
   xmlns:inkscape="http://www.inkscape.org/namespaces/inkscape"
   width="921.25983"
   height="921.25983"
   viewBox="0 0 921.25984 921.25984"
   id="svg2"
   version="1.1"
   inkscape:version="0.91 r13725"
   sodipodi:docname="icon_set_gvg_color.svg">
  <defs
     id="defs4">
    <inkscape:perspective
       sodipodi:type="inkscape:persp3d"
       inkscape:vp_x="0 : 526.18111 : 1"
       inkscape:vp_y="0 : 1000 : 0"
       inkscape:vp_z="744.0945 : 526.18111 : 1"
       inkscape:persp3d-origin="372.04724 : 350.78741 : 1"
       id="perspective4147" />
  </defs>
  <sodipodi:namedview
     id="base"
     pagecolor="#ffffff"
     bordercolor="#666666"
     borderopacity="1.0"
     inkscape:pageopacity="0.0"
     inkscape:pageshadow="2"
     inkscape:zoom="0.44478222"
     inkscape:cx="527.85623"
     inkscape:cy="518.80308"
     inkscape:document-units="px"
     inkscape:current-layer="layer1"
     showgrid="true"
     fit-margin-top="10"
     fit-margin-left="10"
     fit-margin-right="10"
     fit-margin-bottom="10"
     inkscape:window-width="1680"
     inkscape:window-height="990"
     inkscape:window-x="-8"
     inkscape:window-y="-8"
     inkscape:window-maximized="1"
     units="px">
    <inkscape:grid
       type="xygrid"
       id="grid4149"
       originx="458.18974"
       originy="480.91171" />
  </sodipodi:namedview>
  <metadata
     id="metadata7">
    <rdf:RDF>
      <cc:Work
         rdf:about="">
        <dc:format>image/svg+xml</dc:format>
        <dc:type
           rdf:resource="http://purl.org/dc/dcmitype/StillImage" />
        <dc:title></dc:title>
      </cc:Work>
    </rdf:RDF>
  </metadata>
  <g
     inkscape:label="Layer 1"
     inkscape:groupmode="layer"
     id="layer1"
     transform="translate(458.18975,-612.0141)">
    <path
       style="fill:#ff9800;fill-opacity:1;stroke:none;stroke-width:1.07371259;stroke-linecap:square;stroke-linejoin:miter;stroke-miterlimit:4;stroke-dasharray:none;stroke-opacity:1"
       d="M 0,814.41236 A 257.94898,257.94898 0 0 0 -257.94898,1072.3613 257.94898,257.94898 0 0 0 0,1330.3103 257.94898,257.94898 0 0 0 257.94898,1072.3613 257.94898,257.94898 0 0 0 0,814.41236 Z M 0,932.63897 A 139.72236,139.72236 0 0 1 139.72236,1072.3613 139.72236,139.72236 0 0 1 0,1212.0837 139.72236,139.72236 0 0 1 -139.72236,1072.3613 139.72236,139.72236 0 0 1 0,932.63897 Z"
       id="path4161"
       inkscape:connector-curvature="0" />
    <rect
       style="fill:#ff9800;fill-opacity:1;stroke:none;stroke-width:0.99900001;stroke-linecap:square;stroke-linejoin:miter;stroke-miterlimit:4;stroke-dasharray:none;stroke-opacity:1"
       id="rect4165"
       width="180"
       height="110"
       x="25.353935"
       y="1373.7516"
       transform="matrix(0.99405378,0.10889025,-0.10889025,0.99405378,0,0)" />
    <rect
       style="fill:#ff9800;fill-opacity:1;stroke:none;stroke-width:0.99900001;stroke-linecap:square;stroke-linejoin:miter;stroke-miterlimit:4;stroke-dasharray:none;stroke-opacity:1"
       id="rect4165-2-7"
       width="180"
       height="110"
       x="801.00653"
       y="901.74585"
       transform="matrix(0.55425478,0.83234707,-0.83234707,0.55425478,0,0)" />
    <rect
       style="fill:#ff9800;fill-opacity:1;stroke:none;stroke-width:0.99900001;stroke-linecap:square;stroke-linejoin:miter;stroke-miterlimit:4;stroke-dasharray:none;stroke-opacity:1"
       id="rect4165-2-8"
       width="180"
       height="110"
       x="-1091.0759"
       y="-23.954655"
       transform="matrix(0.36644611,-0.93043928,0.93043928,0.36644611,0,0)" />
    <rect
       style="fill:#ff9800;fill-opacity:1;stroke:none;stroke-width:0.99900001;stroke-linecap:square;stroke-linejoin:miter;stroke-miterlimit:4;stroke-dasharray:none;stroke-opacity:1"
       id="rect4165-2-72"
       width="180"
       height="110"
       x="-410.36606"
       y="603.12445"
       transform="matrix(0.95384887,-0.30028707,0.30028707,0.95384887,0,0)" />
    <rect
       style="fill:#ff9800;fill-opacity:1;stroke:none;stroke-width:0.99900001;stroke-linecap:square;stroke-linejoin:miter;stroke-miterlimit:4;stroke-dasharray:none;stroke-opacity:1"
       id="rect4165-2-5"
       width="180"
       height="110"
       x="517.78998"
       y="461.16437"
       transform="matrix(0.8210114,0.5709118,-0.5709118,0.8210114,0,0)" />
    <rect
       style="fill:#ff9800;fill-opacity:1;stroke:none;stroke-width:0.99900001;stroke-linecap:square;stroke-linejoin:miter;stroke-miterlimit:4;stroke-dasharray:none;stroke-opacity:1"
       id="rect4165-2-1"
       width="180"
       height="110"
       x="971.67126"
       y="-285.78699"
       transform="matrix(0.12336777,0.99236102,-0.99236102,0.12336777,0,0)" />
    <rect
       style="fill:#ff9800;fill-opacity:1;stroke:none;stroke-width:0.99900001;stroke-linecap:square;stroke-linejoin:miter;stroke-miterlimit:4;stroke-dasharray:none;stroke-opacity:1"
       id="rect4165-2-9"
       width="180"
       height="110"
       x="-880.38495"
       y="1030.1968"
       transform="matrix(0.67340969,-0.7392695,0.7392695,0.67340969,0,0)" />
    <path
       style="fill:#ff9800;fill-opacity:1;stroke:none;stroke-width:1.07371259;stroke-linecap:square;stroke-linejoin:miter;stroke-miterlimit:4;stroke-dasharray:none;stroke-opacity:1"
       d="M 0.86323748,863.20696 A 210.25553,210.25553 0 0 0 -209.39228,1073.4626 210.25553,210.25553 0 0 0 0.86323748,1283.7181 210.25553,210.25553 0 0 0 211.11878,1073.4626 210.25553,210.25553 0 0 0 0.86323748,863.20696 Z m 0,96.36712 A 113.88841,113.88841 0 0 1 114.75166,1073.4626 113.88841,113.88841 0 0 1 0.86323748,1187.351 113.88841,113.88841 0 0 1 -113.02517,1073.4626 113.88841,113.88841 0 0 1 0.86323748,959.57408 Z"
       id="path4161-3"
       inkscape:connector-curvature="0" />
  </g>
  <g
     inkscape:groupmode="layer"
     id="layer3"
     inkscape:label="Layer 3"
     style="display:inline"
     transform="translate(458.18975,-612.0141)">
    <path
       style="fill:#ff9800;fill-opacity:1;stroke:none;stroke-width:0.99900001;stroke-linecap:square;stroke-linejoin:miter;stroke-miterlimit:4;stroke-dasharray:none;stroke-opacity:1"
       d="m 0,742.36133 a 330,330 0 0 0 -330,329.99997 330,330 0 0 0 330,330 330,330 0 0 0 330,-330 A 330,330 0 0 0 0,742.36133 Z m 0,50 a 280,280 0 0 1 280,279.99997 280,280 0 0 1 -280,280 280,280 0 0 1 -280,-280 A 280,280 0 0 1 0,792.36133 Z"
       id="path4157"
       inkscape:connector-curvature="0" />
  </g>
  <g
     inkscape:groupmode="layer"
     id="layer2"
     inkscape:label="Layer 2"
     style="display:inline"
     transform="translate(458.18975,-612.0141)" />
</svg>
