<?xml version="1.0" encoding="UTF-8" standalone="no"?>
<!-- Created with Inkscape (http://www.inkscape.org/) -->

<svg
   xmlns:dc="http://purl.org/dc/elements/1.1/"
   xmlns:cc="http://creativecommons.org/ns#"
   xmlns:rdf="http://www.w3.org/1999/02/22-rdf-syntax-ns#"
   xmlns:svg="http://www.w3.org/2000/svg"
   xmlns="http://www.w3.org/2000/svg"
   xmlns:sodipodi="http://sodipodi.sourceforge.net/DTD/sodipodi-0.dtd"
   xmlns:inkscape="http://www.inkscape.org/namespaces/inkscape"
   width="200"
   height="200"
   viewBox="0 0 200 200"
   id="svg4698"
   version="1.1"
   inkscape:version="0.91 r13725"
   sodipodi:docname="icon_format_standard_mammoth_color.svg">
  <defs
     id="defs4700" />
  <sodipodi:namedview
     id="base"
     pagecolor="#ffffff"
     bordercolor="#666666"
     borderopacity="1.0"
     inkscape:pageopacity="0.0"
     inkscape:pageshadow="2"
     inkscape:zoom="2.8"
     inkscape:cx="116.14273"
     inkscape:cy="102.15202"
     inkscape:document-units="px"
     inkscape:current-layer="layer1"
     showgrid="false"
     units="px"
     inkscape:window-width="1362"
     inkscape:window-height="978"
     inkscape:window-x="-9"
     inkscape:window-y="0"
     inkscape:window-maximized="1"
     borderlayer="true" />
  <metadata
     id="metadata4703">
    <rdf:RDF>
      <cc:Work
         rdf:about="">
        <dc:format>image/svg+xml</dc:format>
        <dc:type
           rdf:resource="http://purl.org/dc/dcmitype/StillImage" />
        <dc:title></dc:title>
      </cc:Work>
    </rdf:RDF>
  </metadata>
  <g
     inkscape:label="Layer 1"
     inkscape:groupmode="layer"
     id="layer1"
     transform="translate(0,-852.36216)">
    <path
       style="fill:#9575cd;fill-opacity:1;fill-rule:evenodd;stroke:none;stroke-width:1px;stroke-linecap:butt;stroke-linejoin:miter;stroke-opacity:1"
       d="M 103.57227 9.2851562 C 90.055127 11.607396 85 26.427734 85 26.427734 C 85 26.427734 82.279482 24.70371 80.714844 20 C 76.498556 25.77662 78.78125 33.318359 78.78125 33.318359 C 70.249188 39.849699 67.505859 51.578125 67.505859 51.578125 C 67.505859 51.578125 61.736667 52.075429 60.677734 57.980469 C 59.700222 63.431479 65.22096 69.54168 64.285156 75 C 63.2561 81.00223 51.384766 87.935547 51.384766 87.935547 C 53.159983 96.058237 53.740336 108.36283 46.427734 107.85742 C 40.233631 107.26793 16.787389 70.143417 46.089844 38.148438 C 48.976682 38.514868 53.990234 45.339844 53.990234 45.339844 C 53.990234 45.339844 58.479666 30.071794 44.285156 25.714844 C 3.9817891 46.289194 5.1178742 118.38668 35.800781 128.78125 C 44.330195 108.92919 69.736328 111.57617 69.736328 111.57617 C 69.736328 111.57617 72.556359 102.1419 77.142578 96.785156 C 74.764511 105.26771 73.660156 112.5 73.660156 112.5 C 73.660156 112.5 92.27764 125.21832 95.433594 145.29492 C 104.45921 146.49988 110.71484 153.57227 110.71484 153.57227 C 110.71484 153.57227 101.6999 147.70117 95.875 148.20117 C 98.383854 158.29757 92.980469 170.29688 92.980469 170.29688 C 92.980469 170.29688 98.07579 135.66393 73.572266 117.14258 C 61.443111 109.22783 34.961081 119.59708 39.207031 142.01367 C 46.230901 162.91504 61.427734 157.14258 61.427734 157.14258 C 61.427734 157.14258 77.962634 154.59764 74.285156 137.85742 C 72.329489 129.87681 69.643382 131.66097 66.875 131.875 C 65.020949 132.01834 62.857422 137.14258 62.857422 137.14258 C 62.857422 137.14258 63.104191 127.82022 68.572266 127.85742 C 71.961388 128.13447 73.039468 129.14617 74.732422 131.07227 C 77.520062 134.24382 78.368758 138.85082 77.875 143.73438 C 77.323612 149.18794 74.662105 153.36627 70.802734 156.69727 C 68.292222 158.86407 61.964844 160.80273 61.964844 160.80273 C 59.559633 166.48923 60.61995 174.92094 61.427734 180.71484 C 68.548971 189.03414 90.187533 192.33555 101.60938 189.53125 C 116.17247 185.95565 128.00762 169.82464 133.18945 153.36914 C 139.63397 125.54948 127.85742 97.142578 127.85742 97.142578 C 127.85742 97.142578 139.71449 111.52146 138.99023 137.56055 C 196.09719 146.1745 206.1161 46.002264 157.14258 26.427734 C 143.27186 33.369704 149.66797 47.857422 149.66797 47.857422 C 149.66797 47.857422 151.03471 39.614686 158.57227 39.285156 C 179.74689 53.350296 176.70801 107.89034 155.71484 108.57227 C 146.8435 105.9712 151.89066 89.660156 151.89062 89.660156 C 151.89062 89.660156 138.56573 78.715518 137.85742 72.142578 C 137.14911 65.569638 142.34212 63.162347 141.75977 59.373047 C 140.10413 53.752837 137.14258 52.857422 137.14258 52.857422 C 137.14258 52.857422 132.43722 41.470396 120.71484 28.572266 C 124.39729 25.649396 126.81789 25.530014 131.42773 26.427734 C 125.17843 20.759464 120.92903 18.639661 113.57422 18.113281 C 109.35004 17.810961 99.285156 20.714844 99.285156 20.714844 C 99.285156 20.714844 100.29559 14.033976 103.57227 9.2851562 z M 69.642578 62.677734 L 82.322266 75.535156 C 82.322266 75.535156 73.614569 77.153854 70.892578 74.464844 C 68.082103 71.688424 69.642578 62.677734 69.642578 62.677734 z M 132.32227 63.214844 C 132.32227 63.214844 133.25663 72.086068 130.35742 74.642578 C 127.36317 77.282888 118.39258 75.177734 118.39258 75.177734 L 132.32227 63.214844 z M 101.93555 66.708984 C 105.75987 66.829844 109.4375 71.605469 109.4375 71.605469 C 104.40626 69.871969 99.010703 69.904588 93.943359 71.710938 C 93.943359 71.710938 98.007127 66.584834 101.93555 66.708984 z M 102.16797 79.492188 C 111.22422 79.478988 116.82813 84.947266 116.82812 84.947266 C 106.35098 82.425396 97.338437 82.28334 86.785156 85 C 86.785156 85 92.48066 79.506287 102.16797 79.492188 z "
       transform="translate(0,852.36216)"
       id="path4150" />
  </g>
</svg>
