<?xml version="1.0" encoding="UTF-8" standalone="no"?>
<!-- Created with Inkscape (http://www.inkscape.org/) -->

<svg
   xmlns:dc="http://purl.org/dc/elements/1.1/"
   xmlns:cc="http://creativecommons.org/ns#"
   xmlns:rdf="http://www.w3.org/1999/02/22-rdf-syntax-ns#"
   xmlns:svg="http://www.w3.org/2000/svg"
   xmlns="http://www.w3.org/2000/svg"
   xmlns:sodipodi="http://sodipodi.sourceforge.net/DTD/sodipodi-0.dtd"
   xmlns:inkscape="http://www.inkscape.org/namespaces/inkscape"
   width="200"
   height="200"
   viewBox="0 0 200 200"
   id="svg4698"
   version="1.1"
   inkscape:version="0.91 r13725"
   sodipodi:docname="icon_format_standard_kraken.svg">
  <defs
     id="defs4700" />
  <sodipodi:namedview
     id="base"
     pagecolor="#ffffff"
     bordercolor="#666666"
     borderopacity="1.0"
     inkscape:pageopacity="0.0"
     inkscape:pageshadow="2"
     inkscape:zoom="1.979899"
     inkscape:cx="25.420925"
     inkscape:cy="133.67182"
     inkscape:document-units="px"
     inkscape:current-layer="layer1"
     showgrid="false"
     units="px"
     inkscape:window-width="1680"
     inkscape:window-height="990"
     inkscape:window-x="-8"
     inkscape:window-y="-8"
     inkscape:window-maximized="1" />
  <metadata
     id="metadata4703">
    <rdf:RDF>
      <cc:Work
         rdf:about="">
        <dc:format>image/svg+xml</dc:format>
        <dc:type
           rdf:resource="http://purl.org/dc/dcmitype/StillImage" />
        <dc:title></dc:title>
      </cc:Work>
    </rdf:RDF>
  </metadata>
  <g
     inkscape:label="Layer 1"
     inkscape:groupmode="layer"
     id="layer1"
     transform="translate(0,-852.36216)">
    <path
       style="fill:#000000;fill-opacity:1;fill-rule:evenodd;stroke:#000000;stroke-width:1px;stroke-linecap:butt;stroke-linejoin:miter;stroke-opacity:1"
       d="M 99.642578,4.2851562 C 39.999721,41.785156 81.072266,100.71484 81.072266,100.71484 c 0,0 -5.810632,2.02892 -6.78711,6.96289 0.09495,4.21968 6.083183,6.53608 3.929688,12.32227 C 47.668492,124.00048 56.072266,86.072266 56.072266,86.072266 68.118592,53.899426 45.688644,42.387946 40.535156,43.035156 12.978851,46.495886 24.14079,66.7837 27.322266,68.75 c 13.538619,7.85915 13.75,-6.607422 13.75,-6.607422 -25.552214,0.97493 2.747281,-23.14776 7.5,-2.5 3.760398,13.96916 -8.05692,38.535972 -3.929688,47.857422 8.948661,31.28573 39.285156,21.42773 39.285156,21.42773 0,0 1.155653,7.94612 0.179688,14.82227 -5.975965,7.94764 -13.943344,9.97943 -21.25,10.17773 -14.449513,-1.5874 -14.470405,-8.60935 -11.429688,-12.14257 13.219289,-5.85465 7.89815,6.80849 7.89815,6.80849 0,0 4.015297,2.68601 8.88896,-0.0214 0,0 5.371739,-16.42236 -14.28711,-17.32227 -20.90885,4.81437 -11.034973,23.15738 -6.070312,25.89258 35.143232,16.6638 51.785156,-20 51.785156,-20 0,0 14.861712,34.71319 51.785152,21.42969 8.89171,-4.1921 10.22032,-24.62974 -5.71289,-28.21485 -16.69083,-0.0496 -14.32588,18.65783 -14.32588,18.65783 0,0 7.58774,1.44069 8.82481,-1.66289 0,0 -2.58233,-10.48709 8.00107,-6.28007 6.79533,12.79331 -13.92968,11.42773 -13.92968,11.42773 0,0 -11.19115,0.76673 -18.48438,-8.17188 -0.97977,-5.40309 0.10547,-15.65234 0.10547,-15.65234 0,0 28.07966,6.85729 37.30859,-21.17578 C 156.88793,90.32607 146.79486,69.091746 150,59.285156 c 13.05413,-19.90812 28.70896,6.7038 8.21484,5 C 159.69154,74.703186 171.07227,70 171.07227,70 176.66114,69.814 181.99637,47.127546 159.95703,43.597656 131.85677,44.865996 142.14258,87.5 142.14258,87.5 c 9.97164,37.98505 -21.42774,32.5 -21.42774,32.5 -2.20171,-5.38667 4.43255,-7.96929 4.53711,-13.48438 -0.90558,-3.49475 -4.53711,-5.80078 -4.53711,-5.80078 0,0 26.57675,-46.23407 0.81446,-75.24609 l -5.99805,-1.320312 c -0.19519,-0.043 -0.43945,-6.91211 -0.43945,-6.91211 -2.03763,-4.02822 -9.2394,-8.8772116 -15.449222,-12.9511718 z M 114.65234,103.53125 c 6.46437,6.76458 -6.06054,16.16211 -6.06054,16.16211 -1.33716,-4.72161 -4.79883,-6.06055 -4.79883,-6.06055 z m -30.304684,0.75586 11.869141,9.84961 c 0,0 -4.45717,1.32274 -5.808594,5.55664 0,0 -12.903374,-8.93531 -6.060547,-15.40625 z"
       transform="translate(0,852.36216)"
       id="path5257"
       inkscape:connector-curvature="0"
       sodipodi:nodetypes="cccccscccccccccccccccccccccccccccccccccccccccccc" />
    <path
       style="fill:#000000;fill-rule:evenodd;stroke:#000000;stroke-width:1px;stroke-linecap:butt;stroke-linejoin:miter;stroke-opacity:1;fill-opacity:1"
       d="m 99.642857,995.2193 c 0,0 -3.004111,8.1555 -11.071428,15.3572 -3.521631,24.248 -15.711591,24.581 -15.357143,13.9285 -9.283072,0.1233 -5.194062,13.8641 4.181627,13.833 12.532416,0.4739 19.661961,-27.2866 22.246944,-29.9044 2.514413,2.9185 12.097783,29.7153 23.499633,30.2265 9.38155,0.8901 12.91109,-16.1569 1.85751,-14.1551 2.76531,11.9008 -10.30731,9.4158 -14.53825,-13.676 -6.25124,-4.4039 -10.818893,-15.6097 -10.818893,-15.6097 z"
       id="path5265"
       inkscape:connector-curvature="0"
       sodipodi:nodetypes="ccccccccc" />
    <path
       style="fill:#000000;fill-rule:evenodd;stroke:#000000;stroke-width:1px;stroke-linecap:butt;stroke-linejoin:miter;stroke-opacity:1;fill-opacity:1"
       d="m 46.536893,1012.741 c 0,0 3.639691,2.7147 8.423496,3.8419 -25.520771,11.6075 -37.02383,-4.5552 -39.960389,-14.935 -3.820442,-18.8398 17.764158,-35.32243 21.428571,-25.35717 -24.241052,8.5763 -14.352621,42.04807 10.108322,36.45027 z"
       id="path5267"
       inkscape:connector-curvature="0"
       sodipodi:nodetypes="ccccc" />
    <path
       style="fill:#000000;fill-opacity:1;fill-rule:evenodd;stroke:#000000;stroke-width:1px;stroke-linecap:butt;stroke-linejoin:miter;stroke-opacity:1"
       d="m 152.3082,1013.5164 c 0,0 -3.63969,2.7147 -8.4235,3.8419 25.52077,11.6075 37.02383,-4.5552 39.96039,-14.935 3.82044,-18.83988 -17.76416,-35.32251 -21.42857,-25.35725 24.24105,8.5763 14.35262,42.04815 -10.10832,36.45035 z"
       id="path5267-4"
       inkscape:connector-curvature="0"
       sodipodi:nodetypes="ccccc" />
  </g>
</svg>
