<?xml version="1.0" encoding="UTF-8" standalone="no"?>
<!-- Created with Inkscape (http://www.inkscape.org/) -->

<svg
   xmlns:dc="http://purl.org/dc/elements/1.1/"
   xmlns:cc="http://creativecommons.org/ns#"
   xmlns:rdf="http://www.w3.org/1999/02/22-rdf-syntax-ns#"
   xmlns:svg="http://www.w3.org/2000/svg"
   xmlns="http://www.w3.org/2000/svg"
   xmlns:sodipodi="http://sodipodi.sourceforge.net/DTD/sodipodi-0.dtd"
   xmlns:inkscape="http://www.inkscape.org/namespaces/inkscape"
   width="143.50818"
   height="142.95334"
   viewBox="0 0 143.50818 142.95334"
   id="svg2"
   version="1.1"
   inkscape:version="0.91 r13725"
   sodipodi:docname="icon_format_wild_color.svg">
  <defs
     id="defs4" />
  <sodipodi:namedview
     id="base"
     pagecolor="#ffffff"
     bordercolor="#666666"
     borderopacity="1.0"
     inkscape:pageopacity="0.0"
     inkscape:pageshadow="2"
     inkscape:zoom="2.8284271"
     inkscape:cx="45.382481"
     inkscape:cy="71.752937"
     inkscape:document-units="px"
     inkscape:current-layer="layer1"
     showgrid="false"
     units="px"
     fit-margin-top="28"
     fit-margin-left="0"
     fit-margin-right="0"
     fit-margin-bottom="28"
     inkscape:window-width="1680"
     inkscape:window-height="990"
     inkscape:window-x="-8"
     inkscape:window-y="-8"
     inkscape:window-maximized="1" />
  <metadata
     id="metadata7">
    <rdf:RDF>
      <cc:Work
         rdf:about="">
        <dc:format>image/svg+xml</dc:format>
        <dc:type
           rdf:resource="http://purl.org/dc/dcmitype/StillImage" />
        <dc:title></dc:title>
      </cc:Work>
    </rdf:RDF>
  </metadata>
  <g
     inkscape:label="Layer 1"
     inkscape:groupmode="layer"
     id="layer1"
     transform="translate(-32.906042,-877.55038)">
    <path
       style="fill:#2e7d32;fill-opacity:1;fill-rule:evenodd;stroke:#2e7d32;stroke-width:1px;stroke-linecap:butt;stroke-linejoin:miter;stroke-opacity:1"
       d="m 95.286319,946.90488 10.138451,-10.01346 c 0,0 -2.10521,-8.47983 -15.298985,-17.39734 -9.460014,-4.24441 -19.64734,-3.07322 -19.64734,-3.07322 0,0 -3.60197,-2.93873 0.883884,-10.25305 -16.509258,1.94919 -18.384777,18.91511 -18.384777,18.91511 -11.264755,5.27588 -10.697441,18.75192 -10.697441,18.75192 0,0 -2.923696,2.14836 -7.687334,-0.36714 -0.263638,7.9845 7.371248,11.18806 7.371248,11.18806 2.478613,21.07749 17.466954,25.65319 17.466954,25.65319 12.927639,2.29521 23.416659,-2.03292 23.416659,-2.03292 0,0 4.288432,4.02638 1.407962,13.22718 15.11217,-7.88131 12.83554,-22.58119 12.83554,-22.58119 l 24.21061,-24.83561 c 0,0 11.79219,-14.08992 20.4177,-13.16986 18.31379,0.13297 19.40199,14.38717 19.62222,19.62221 -2.68803,18.10946 -17.48465,18.208 -17.48465,18.208 -13.9202,0.26114 -24.7509,-16.28122 -24.7509,-16.28122 l -11.21796,11.46796 c 0,0 11.17269,14.58505 17.03751,17.01085 5.86482,2.4258 15.20279,1.23744 15.20279,1.23744 0,0 8.23875,10.26208 22.8042,7.6014 -7.30955,-4.03568 -9.92615,-9.89582 -9.92615,-9.89582 0,0 16.56972,-4.78753 20.53275,-21.0401 1.58803,-14.25257 -2.38068,-21.88731 -2.38068,-21.88731 0,0 3.81823,-5.57847 0.32738,-10.29861 -2.09938,2.43618 -4.93069,0.39045 -4.93069,0.39045 0,0 -6.76412,-8.20097 -16.35053,-10.27738 0,0 -10.25299,-2.80113 -18.56156,-10e-6 0,0 -13.24784,-9.27433 -21.74353,-0.17677 12.71752,3.26392 11.31371,9.36916 11.31371,9.36916 0,0 -18.42913,18.52286 -28.461051,28.46105 -3.220093,3.19001 -7.070715,9.04087 -11.844039,8.83884 -6.187537,-8.51053 -13.258252,-10.60661 -13.258252,-10.60661 0,0 4.898566,9.03913 0.883883,10.78338 -14.798061,1.21392 -12.020815,-18.73832 -12.020815,-18.73832 0,0 3.072241,-17.05106 19.824116,-15.26194 7.900477,-0.0215 18.949117,17.46168 18.949117,17.46168 z"
       id="path4147"
       inkscape:connector-curvature="0"
       sodipodi:nodetypes="cccccccccccccccccccccccccccccccscccccc" />
  </g>
</svg>
