<?xml version="1.0" encoding="UTF-8" standalone="no"?>
<!-- Created with Inkscape (http://www.inkscape.org/) -->

<svg
   xmlns:dc="http://purl.org/dc/elements/1.1/"
   xmlns:cc="http://creativecommons.org/ns#"
   xmlns:rdf="http://www.w3.org/1999/02/22-rdf-syntax-ns#"
   xmlns:svg="http://www.w3.org/2000/svg"
   xmlns="http://www.w3.org/2000/svg"
   xmlns:sodipodi="http://sodipodi.sourceforge.net/DTD/sodipodi-0.dtd"
   xmlns:inkscape="http://www.inkscape.org/namespaces/inkscape"
   width="224.45372"
   height="224.50452"
   viewBox="0 0 224.45371 224.50451"
   id="svg4766"
   version="1.1"
   inkscape:version="0.91 r13725"
   sodipodi:docname="icon_set_core_outline.svg">
  <defs
     id="defs4768" />
  <sodipodi:namedview
     id="base"
     pagecolor="#ffffff"
     bordercolor="#666666"
     borderopacity="1.0"
     inkscape:pageopacity="0.0"
     inkscape:pageshadow="2"
     inkscape:zoom="1.4142136"
     inkscape:cx="166.57632"
     inkscape:cy="11.902049"
     inkscape:document-units="px"
     inkscape:current-layer="layer1"
     showgrid="true"
     units="px"
     inkscape:window-width="1680"
     inkscape:window-height="990"
     inkscape:window-x="-8"
     inkscape:window-y="-8"
     inkscape:window-maximized="1"
     fit-margin-top="16"
     fit-margin-left="16"
     fit-margin-right="16"
     fit-margin-bottom="16">
    <inkscape:grid
       type="xygrid"
       id="grid5314"
       originx="12.344104"
       originy="12.496718" />
  </sodipodi:namedview>
  <metadata
     id="metadata4771">
    <rdf:RDF>
      <cc:Work
         rdf:about="">
        <dc:format>image/svg+xml</dc:format>
        <dc:type
           rdf:resource="http://purl.org/dc/dcmitype/StillImage" />
        <dc:title></dc:title>
      </cc:Work>
    </rdf:RDF>
  </metadata>
  <g
     inkscape:label="Layer 1"
     inkscape:groupmode="layer"
     id="layer1"
     transform="translate(12.344105,-840.35449)">
    <path
       style="fill:none;fill-opacity:1;stroke:#000000;stroke-width:0.5;stroke-linecap:square;stroke-linejoin:miter;stroke-miterlimit:4;stroke-dasharray:none;stroke-opacity:1"
       d="m 43.010656,918.84067 c -5.784166,9.8224 -9.101987,21.27109 -9.102087,33.49469 1.07e-4,12.19449 3.302152,23.61775 9.060827,33.42448 m 23.609249,23.61326 c 9.808924,5.7623 21.235744,9.0665 33.434305,9.0666 12.18594,-10e-5 23.60172,-3.2975 33.40384,-9.0487 m 23.71666,-23.76253 c 5.71114,-9.77731 8.98379,-21.15303 8.98389,-33.29311 -1e-4,-12.12234 -3.26318,-23.48256 -8.95885,-33.25025 m -23.68635,-23.77294 c -9.81448,-5.77126 -21.25031,-9.08109 -33.45919,-9.08119 -12.153624,10e-5 -23.541182,3.28004 -33.325837,9.00299 m 33.325837,12.13411 c 24.83466,1.9e-4 44.96709,20.13262 44.96729,44.96728 -1.9e-4,24.83467 -20.13262,44.9671 -44.96729,44.96729 -24.834666,-2e-4 -44.967091,-20.13262 -44.967284,-44.96729 1.98e-4,-24.83466 20.132622,-44.96708 44.967284,-44.96728 z"
       id="path5318"
       inkscape:connector-curvature="0"
       sodipodi:nodetypes="ccccccccccccccccc" />
    <path
       style="fill:none;fill-opacity:1;fill-rule:evenodd;stroke:#000000;stroke-width:0.5;stroke-linecap:butt;stroke-linejoin:miter;stroke-opacity:1;stroke-miterlimit:4;stroke-dasharray:none"
       d="m 100.01255,846.86675 -18.734564,32.78332 a 75.032142,75.032142 0 0 1 18.916704,-2.51963 75.032142,75.032142 0 0 1 18.46786,2.37435 l -18.65,-32.63804 z"
       id="path5320"
       inkscape:connector-curvature="0" />
    <path
       style="fill:none;fill-opacity:1;fill-rule:evenodd;stroke:#000000;stroke-width:0.5;stroke-linecap:butt;stroke-linejoin:miter;stroke-opacity:1;stroke-miterlimit:4;stroke-dasharray:none"
       d="m 80.660005,1024.5806 19.296168,33.7655 19.257127,-33.7005 a 75.032142,75.032142 0 0 1 -19.01861,2.5478 75.032142,75.032142 0 0 1 -19.534685,-2.6128 z"
       id="path5320-5"
       inkscape:connector-curvature="0" />
    <path
       style="fill:none;fill-opacity:1;fill-rule:evenodd;stroke:#000000;stroke-width:0.5;stroke-linecap:butt;stroke-linejoin:miter;stroke-opacity:1;stroke-miterlimit:4;stroke-dasharray:none"
       d="m 27.585251,933.47074 -33.4143065,19.0945 33.7005285,19.25714 a 75.032142,75.032142 0 0 1 -2.708271,-19.66045 75.032142,75.032142 0 0 1 2.422049,-18.69119 z"
       id="path5320-5-1"
       inkscape:connector-curvature="0" />
    <path
       style="fill:none;fill-opacity:1;fill-rule:evenodd;stroke:#000000;stroke-width:0.5;stroke-linecap:butt;stroke-linejoin:miter;stroke-opacity:1;stroke-miterlimit:4;stroke-dasharray:none"
       d="m 172.84533,933.79165 a 75.032142,75.032142 0 0 1 2.38085,18.37028 75.032142,75.032142 0 0 1 -2.52613,19.13787 l 32.8939,-18.79526 -32.74862,-18.71289 z"
       id="path5320-5-1-8"
       inkscape:connector-curvature="0" />
    <path
       style="fill:none;fill-opacity:1;fill-rule:evenodd;stroke:#000000;stroke-width:0.5;stroke-linecap:butt;stroke-linejoin:miter;stroke-miterlimit:4;stroke-dasharray:none;stroke-opacity:1"
       d="m 157.16072,919.07296 8.90145,-32.63833 -32.57655,8.88451"
       id="path5320-5-1-8-6"
       inkscape:connector-curvature="0"
       sodipodi:nodetypes="ccc" />
    <path
       style="fill:none;fill-opacity:1;fill-rule:evenodd;stroke:#000000;stroke-width:0.5;stroke-linecap:butt;stroke-linejoin:miter;stroke-miterlimit:4;stroke-dasharray:none;stroke-opacity:1"
       d="m 66.729395,895.22303 -32.568366,-8.88236 8.875512,32.54352"
       id="path5320-5-1-8-6-3"
       inkscape:connector-curvature="0"
       sodipodi:nodetypes="ccc" />
    <path
       style="fill:none;fill-opacity:1;fill-rule:evenodd;stroke:#000000;stroke-width:0.5;stroke-linecap:butt;stroke-linejoin:miter;stroke-miterlimit:4;stroke-dasharray:none;stroke-opacity:1"
       d="m 42.97176,985.70368 -8.869962,32.52282 32.493149,-8.8618"
       id="path5320-5-1-8-6-3-3"
       inkscape:connector-curvature="0"
       sodipodi:nodetypes="ccc" />
    <path
       style="fill:none;fill-opacity:1;fill-rule:evenodd;stroke:#000000;stroke-width:0.5;stroke-linecap:butt;stroke-linejoin:miter;stroke-miterlimit:4;stroke-dasharray:none;stroke-opacity:1"
       d="m 133.42326,1009.3809 32.62501,8.8977 -8.90581,-32.65457"
       id="path5320-5-1-8-6-3-4"
       inkscape:connector-curvature="0"
       sodipodi:nodetypes="ccc" />
  </g>
</svg>
