<?xml version="1.0" encoding="UTF-8" standalone="no"?>
<!-- Created with Inkscape (http://www.inkscape.org/) -->

<svg
   xmlns:dc="http://purl.org/dc/elements/1.1/"
   xmlns:cc="http://creativecommons.org/ns#"
   xmlns:rdf="http://www.w3.org/1999/02/22-rdf-syntax-ns#"
   xmlns:svg="http://www.w3.org/2000/svg"
   xmlns="http://www.w3.org/2000/svg"
   xmlns:sodipodi="http://sodipodi.sourceforge.net/DTD/sodipodi-0.dtd"
   xmlns:inkscape="http://www.inkscape.org/namespaces/inkscape"
   width="200"
   height="200"
   viewBox="0 0 200 200"
   id="svg2"
   version="1.1"
   inkscape:version="0.91 r13725"
   sodipodi:docname="icon_set_gvg_outline.svg">
  <defs
     id="defs4">
    <inkscape:perspective
       sodipodi:type="inkscape:persp3d"
       inkscape:vp_x="0 : 526.1811 : 1"
       inkscape:vp_y="0 : 999.99999 : 0"
       inkscape:vp_z="744.09449 : 526.1811 : 1"
       inkscape:persp3d-origin="372.04723 : 350.7874 : 1"
       id="perspective4147" />
  </defs>
  <sodipodi:namedview
     id="base"
     pagecolor="#ffffff"
     bordercolor="#666666"
     borderopacity="1.0"
     inkscape:pageopacity="0.0"
     inkscape:pageshadow="2"
     inkscape:zoom="1.7791289"
     inkscape:cx="-13.996236"
     inkscape:cy="49.563352"
     inkscape:document-units="px"
     inkscape:current-layer="layer1"
     showgrid="false"
     fit-margin-top="10"
     fit-margin-left="10"
     fit-margin-right="10"
     fit-margin-bottom="10"
     inkscape:window-width="1680"
     inkscape:window-height="990"
     inkscape:window-x="-8"
     inkscape:window-y="-8"
     inkscape:window-maximized="1"
     units="px">
    <inkscape:grid
       type="xygrid"
       id="grid4149"
       originx="458.18974"
       originy="480.91171" />
  </sodipodi:namedview>
  <metadata
     id="metadata7">
    <rdf:RDF>
      <cc:Work
         rdf:about="">
        <dc:format>image/svg+xml</dc:format>
        <dc:type
           rdf:resource="http://purl.org/dc/dcmitype/StillImage" />
        <dc:title></dc:title>
      </cc:Work>
    </rdf:RDF>
  </metadata>
  <g
     inkscape:label="Layer 1"
     inkscape:groupmode="layer"
     id="layer1"
     transform="translate(458.18975,-1333.2739)">
    <path
       transform="matrix(0.99405378,0.10889025,-0.10889025,0.99405378,0,0)"
       style="fill:none;fill-opacity:1;stroke:#000000;stroke-width:0.625;stroke-linecap:square;stroke-linejoin:miter;stroke-miterlimit:4;stroke-dasharray:none;stroke-opacity:1"
       d="m -179.25791,1530.5072 0.003,20.9659 -37.95166,0 -0.003,-20.9659"
       id="rect4165"
       inkscape:connector-curvature="0"
       sodipodi:nodetypes="cccc" />
    <path
       transform="matrix(0.55425478,0.83234707,-0.83234707,0.55425478,0,0)"
       style="fill:none;fill-opacity:1;stroke:#000000;stroke-width:0.625;stroke-linecap:square;stroke-linejoin:miter;stroke-miterlimit:4;stroke-dasharray:none;stroke-opacity:1"
       d="m 1014.1009,1157.6189 0.038,21.1076 -37.95167,0 -0.0379,-21.1076"
       id="rect4165-2-7"
       inkscape:connector-curvature="0"
       sodipodi:nodetypes="cccc" />
    <path
       transform="matrix(0.36644611,-0.93043928,0.93043928,0.36644611,0,0)"
       style="fill:none;fill-opacity:1;stroke:#000000;stroke-width:0.625;stroke-linecap:square;stroke-linejoin:miter;stroke-miterlimit:4;stroke-dasharray:none;stroke-opacity:1"
       d="m -1483.6515,126.72198 0.039,-20.79183 37.9517,0 -0.039,20.79183"
       id="rect4165-2-8"
       inkscape:connector-curvature="0"
       sodipodi:nodetypes="cccc" />
    <path
       transform="matrix(0.95384887,-0.30028707,0.30028707,0.95384887,0,0)"
       style="fill:none;fill-opacity:1;stroke:#000000;stroke-width:0.625;stroke-linecap:square;stroke-linejoin:miter;stroke-miterlimit:4;stroke-dasharray:none;stroke-opacity:1"
       d="m -788.64917,1193.0379 0,-21.4769 37.95165,0 0,21.6665"
       id="rect4165-2-72"
       inkscape:connector-curvature="0"
       sodipodi:nodetypes="cccc" />
    <path
       transform="matrix(0.8210114,0.5709118,-0.5709118,0.8210114,0,0)"
       style="fill:none;fill-opacity:1;stroke:#000000;stroke-width:0.625;stroke-linecap:square;stroke-linejoin:miter;stroke-miterlimit:4;stroke-dasharray:none;stroke-opacity:1"
       d="m 505.91815,1313.2744 0,-21.7471 37.95166,0 0,21.2097"
       id="rect4165-2-5"
       inkscape:connector-curvature="0"
       sodipodi:nodetypes="cccc" />
    <path
       transform="matrix(0.12336777,0.99236102,-0.99236102,0.12336777,0,0)"
       style="fill:none;fill-opacity:1;stroke:#000000;stroke-width:0.625;stroke-linecap:square;stroke-linejoin:miter;stroke-miterlimit:4;stroke-dasharray:none;stroke-opacity:1"
       d="m 1358.7537,463.40404 0,-21.36724 37.9516,0 0,21.06284"
       id="rect4165-2-1"
       inkscape:connector-curvature="0"
       sodipodi:nodetypes="cccc" />
    <path
       transform="matrix(0.67340969,-0.7392695,0.7392695,0.67340969,0,0)"
       style="fill:none;fill-opacity:1;stroke:#000000;stroke-width:0.625;stroke-linecap:square;stroke-linejoin:miter;stroke-miterlimit:4;stroke-dasharray:none;stroke-opacity:1"
       d="m -1279.7998,768.66954 0,21.30567 -37.9517,0 0,-21.08194"
       id="rect4165-2-9"
       inkscape:connector-curvature="0"
       sodipodi:nodetypes="cccc" />
    <circle
       style="fill:none;fill-opacity:1;stroke:#000000;stroke-width:0.625;stroke-linecap:square;stroke-linejoin:miter;stroke-miterlimit:4;stroke-dasharray:none;stroke-opacity:1"
       id="path5811"
       cx="-356.17352"
       cy="1432.9438"
       r="54.240028" />
    <circle
       style="fill:none;fill-opacity:1;stroke:#000000;stroke-width:0.625;stroke-linecap:square;stroke-linejoin:miter;stroke-miterlimit:4;stroke-dasharray:none;stroke-opacity:1"
       id="path5813"
       cx="-355.89249"
       cy="1433.506"
       r="23.888096" />
  </g>
  <g
     inkscape:groupmode="layer"
     id="layer3"
     inkscape:label="Layer 3"
     style="display:inline"
     transform="translate(458.18975,-1333.2739)">
    <path
       style="fill:none;fill-opacity:1;stroke:#000000;stroke-width:0.625;stroke-linecap:square;stroke-linejoin:miter;stroke-miterlimit:4;stroke-dasharray:none;stroke-opacity:1"
       d="m -394.00151,1374.7747 c -6.91096,4.497 -12.97344,10.1882 -17.89482,16.7811 m -13.51593,35.4131 c -0.17843,2.0318 -0.26954,4.0886 -0.26954,6.1667 -10e-6,7.3309 1.13373,14.3969 3.23543,21.0324 m 20.85756,31.621 c 5.63673,4.8737 12.06422,8.8574 19.06407,11.7329 m 37.65377,4.2898 c 9.40807,-1.5271 18.18332,-4.9407 25.92494,-9.8402 m 25.35362,-28.248 c 3.12101,-6.3663 5.29812,-13.2793 6.34894,-20.5567 m -4.95632,-37.5967 c -2.71561,-6.287 -6.33185,-12.094 -10.68613,-17.2583 m -31.40157,-21.2653 c -6.86186,-2.2639 -14.196,-3.4889 -21.81628,-3.4889 -0.54953,0 -1.09757,0.01 -1.64406,0.019 m 1.64406,10.5231 c 32.60463,0 59.03592,26.4313 59.03592,59.0359 0,32.6046 -26.43129,59.0359 -59.03592,59.0359 -32.60463,0 -59.0359,-26.4313 -59.0359,-59.0359 0,-32.6046 26.43127,-59.0359 59.0359,-59.0359 z"
       id="path4157"
       inkscape:connector-curvature="0"
       sodipodi:nodetypes="cccsccccccccccscsssss" />
  </g>
  <g
     inkscape:groupmode="layer"
     id="layer2"
     inkscape:label="Layer 2"
     style="display:inline"
     transform="translate(458.18975,-1333.2739)" />
</svg>
