<?xml version="1.0" encoding="UTF-8" standalone="no"?>
<!-- Created with Inkscape (http://www.inkscape.org/) -->

<svg
   xmlns:dc="http://purl.org/dc/elements/1.1/"
   xmlns:cc="http://creativecommons.org/ns#"
   xmlns:rdf="http://www.w3.org/1999/02/22-rdf-syntax-ns#"
   xmlns:svg="http://www.w3.org/2000/svg"
   xmlns="http://www.w3.org/2000/svg"
   xmlns:sodipodi="http://sodipodi.sourceforge.net/DTD/sodipodi-0.dtd"
   xmlns:inkscape="http://www.inkscape.org/namespaces/inkscape"
   width="149.03503"
   height="148.99782"
   viewBox="0 0 149.03503 148.99781"
   id="svg2"
   version="1.1"
   inkscape:version="0.91 r13725"
   sodipodi:docname="icon_nav_cards.svg">
  <defs
     id="defs4" />
  <sodipodi:namedview
     id="base"
     pagecolor="#ffffff"
     bordercolor="#666666"
     borderopacity="1.0"
     inkscape:pageopacity="0.0"
     inkscape:pageshadow="2"
     inkscape:zoom="4"
     inkscape:cx="32.90036"
     inkscape:cy="62.22743"
     inkscape:document-units="px"
     inkscape:current-layer="layer1"
     showgrid="true"
     units="px"
     fit-margin-top="0"
     fit-margin-left="16.5"
     fit-margin-right="16.5"
     fit-margin-bottom="0"
     inkscape:window-width="1680"
     inkscape:window-height="987"
     inkscape:window-x="-8"
     inkscape:window-y="-8"
     inkscape:window-maximized="1">
    <inkscape:grid
       type="xygrid"
       id="grid4140"
       originx="25.285039"
       originy="2.0596282" />
  </sodipodi:namedview>
  <metadata
     id="metadata7">
    <rdf:RDF>
      <cc:Work
         rdf:about="">
        <dc:format>image/svg+xml</dc:format>
        <dc:type
           rdf:resource="http://purl.org/dc/dcmitype/StillImage" />
        <dc:title></dc:title>
      </cc:Work>
    </rdf:RDF>
  </metadata>
  <g
     inkscape:label="Layer 1"
     inkscape:groupmode="layer"
     id="layer1"
     transform="translate(25.285039,-905.42399)">
    <path
       style="fill:#000000;fill-opacity:1;stroke:#000000;stroke-width:0.99900001;stroke-linecap:square;stroke-linejoin:miter;stroke-miterlimit:4;stroke-dasharray:none;stroke-opacity:1"
       d="m 50.736328,10.623047 2.886719,5 -2.886719,5 15.458984,0 a 30,40 0 0 1 14.455079,-5 30,40 0 0 1 14.509765,5 l 20.675784,0 c 2.66704,0 4.81445,2.147414 4.81445,4.814453 l 0,93.38867 c 2.86319,-4.44922 5.25,-7.64258 5.25,-7.64258 0,0 2.11156,2.81532 4.75,6.86133 l 0,-102.60742 c 0,-2.667039 -2.14741,-4.814453 -4.81445,-4.814453 l -75.099612,0 z m -20.085937,20.566406 0,95.308597 a 15,15 0 0 1 5,-0.875 15,15 0 0 1 5,0.87695 l 0,-95.310547 -10,0 z m 20,109.433597 a 15,15 0 0 1 -3.839844,10 l 67.101563,0 c -1.85129,-2.38287 -3.01172,-5.52174 -3.01172,-9.43946 0,-0.18119 0.0157,-0.37296 0.0254,-0.56054 l -60.275389,0 z"
       transform="translate(-30.650187,901.73872)"
       id="rect4158"
       inkscape:connector-curvature="0" />
    <path
       style="fill:#000000;fill-opacity:1;stroke:none;stroke-width:0.99900001;stroke-linecap:square;stroke-linejoin:miter;stroke-miterlimit:4;stroke-dasharray:none;stroke-opacity:1"
       d="m 45.650391,90.623047 0,38.841793 a 15,15 0 0 1 4.125,6.15821 l 62.216799,0 c 0.86843,-2.64768 2.16377,-5.51186 3.6582,-8.33399 l 0,-36.666013 -20.544921,0 a 30,40 0 0 1 -14.455078,5 30,40 0 0 1 -14.509766,-5 l -20.490234,0 z"
       transform="translate(-30.650187,901.73872)"
       id="rect4195"
       inkscape:connector-curvature="0" />
    <path
       style="fill:#000000;fill-opacity:1;fill-rule:evenodd;stroke:none;stroke-width:1px;stroke-linecap:butt;stroke-linejoin:miter;stroke-opacity:1"
       d="m 83.250003,1042.4218 c 0,16 23.999997,16 23.999997,0 0,-8 -11.999997,-24 -11.999997,-24 0,0 -12,16 -12,24 z"
       id="path6513-3"
       inkscape:connector-curvature="0"
       sodipodi:nodetypes="cccc" />
    <circle
       style="fill:#000000;fill-opacity:1;stroke:none;stroke-width:0.99900001;stroke-linecap:square;stroke-linejoin:miter;stroke-miterlimit:4;stroke-dasharray:none;stroke-opacity:1"
       id="path6542"
       cx="5.0000014"
       cy="1042.3622"
       r="11.549191" />
    <path
       sodipodi:type="star"
       style="fill:#000000;fill-opacity:1;stroke:none;stroke-width:0.99900001;stroke-linecap:square;stroke-linejoin:miter;stroke-miterlimit:4;stroke-dasharray:none;stroke-opacity:1"
       id="path6548"
       sodipodi:sides="6"
       sodipodi:cx="5.0000014"
       sodipodi:cy="917.36218"
       sodipodi:r1="13.785041"
       sodipodi:r2="11.938196"
       sodipodi:arg1="1.0471976"
       sodipodi:arg2="1.5707963"
       inkscape:flatsided="true"
       inkscape:rounded="0"
       inkscape:randomized="0"
       d="m 11.892521,929.30038 -13.7850406,0 -6.8925198,-11.9382 6.892521,-11.93819 13.7850404,0 6.89252,11.93819 z" />
    <ellipse
       style="fill:#000000;fill-opacity:1;stroke:none;stroke-width:0.99900001;stroke-linecap:square;stroke-linejoin:miter;stroke-miterlimit:4;stroke-dasharray:none;stroke-opacity:1"
       id="path6590"
       cx="49.999996"
       cy="957.36218"
       rx="25"
       ry="35" />
  </g>
</svg>
