<?xml version="1.0" encoding="UTF-8" standalone="no"?>
<!-- Created with Inkscape (http://www.inkscape.org/) -->

<svg
   xmlns:dc="http://purl.org/dc/elements/1.1/"
   xmlns:cc="http://creativecommons.org/ns#"
   xmlns:rdf="http://www.w3.org/1999/02/22-rdf-syntax-ns#"
   xmlns:svg="http://www.w3.org/2000/svg"
   xmlns="http://www.w3.org/2000/svg"
   xmlns:sodipodi="http://sodipodi.sourceforge.net/DTD/sodipodi-0.dtd"
   xmlns:inkscape="http://www.inkscape.org/namespaces/inkscape"
   width="140.99899"
   height="140.99899"
   viewBox="0 0 140.99899 140.99899"
   id="svg2"
   version="1.1"
   inkscape:version="0.91 r13725"
   sodipodi:docname="icon_nav_card_backs.svg">
  <defs
     id="defs4" />
  <sodipodi:namedview
     id="base"
     pagecolor="#ffffff"
     bordercolor="#666666"
     borderopacity="1.0"
     inkscape:pageopacity="0.0"
     inkscape:pageshadow="2"
     inkscape:zoom="3.959798"
     inkscape:cx="42.782768"
     inkscape:cy="55.798892"
     inkscape:document-units="px"
     inkscape:current-layer="layer1"
     showgrid="true"
     units="px"
     fit-margin-top="0"
     fit-margin-left="20"
     fit-margin-right="20"
     fit-margin-bottom="0"
     inkscape:window-width="1680"
     inkscape:window-height="987"
     inkscape:window-x="-8"
     inkscape:window-y="-8"
     inkscape:window-maximized="1">
    <inkscape:grid
       type="xygrid"
       id="grid4140"
       originx="20.499499"
       originy="0.49952434" />
  </sodipodi:namedview>
  <metadata
     id="metadata7">
    <rdf:RDF>
      <cc:Work
         rdf:about="">
        <dc:format>image/svg+xml</dc:format>
        <dc:type
           rdf:resource="http://purl.org/dc/dcmitype/StillImage" />
        <dc:title></dc:title>
      </cc:Work>
    </rdf:RDF>
  </metadata>
  <g
     inkscape:label="Layer 1"
     inkscape:groupmode="layer"
     id="layer1"
     transform="translate(20.4995,-911.86266)">
    <path
       style="fill:#000000;fill-opacity:1;stroke:#000000;stroke-width:0.99900001;stroke-linecap:square;stroke-linejoin:miter;stroke-miterlimit:4;stroke-dasharray:none;stroke-opacity:1"
       d="M 4.8144531,0 C 2.1474141,0 0,2.1474141 0,4.8144531 L 0,135.18555 C 0,137.85259 2.1474141,140 4.8144531,140 l 90.3710939,0 C 97.852586,140 100,137.85259 100,135.18555 L 100,4.8144531 C 100,2.1474141 97.852586,0 95.185547,0 L 4.8144531,0 Z m 9.9999999,10 70.371094,0 C 87.852586,10 90,12.147414 90,14.814453 L 90,125.18555 C 90,127.85259 87.852586,130 85.185547,130 l -70.371094,0 C 12.147414,130 10,127.85259 10,125.18555 L 10,14.814453 C 10,12.147414 12.147414,10 14.814453,10 Z"
       id="rect4158"
       transform="translate(0,912.36216)"
       inkscape:connector-curvature="0" />
    <path
       style="fill:#000000;fill-opacity:1;stroke:#000000;stroke-width:0.99900001;stroke-linecap:square;stroke-linejoin:miter;stroke-miterlimit:4;stroke-dasharray:none;stroke-opacity:1"
       d="M 50,50 A 20,20 0 0 0 30,70 20,20 0 0 0 50,90 20,20 0 0 0 70,70 20,20 0 0 0 50,50 Z m 0,10 A 10,10 0 0 1 60,70 10,10 0 0 1 50,80 10,10 0 0 1 40,70 10,10 0 0 1 50,60 Z"
       transform="translate(0,912.36216)"
       id="path4162"
       inkscape:connector-curvature="0" />
    <path
       style="fill:#000000;fill-opacity:1;fill-rule:evenodd;stroke:#000000;stroke-width:1px;stroke-linecap:butt;stroke-linejoin:miter;stroke-opacity:1"
       d="m 35,977.36216 15,-30 15,30 -15,-10 -15,10"
       id="path4174"
       inkscape:connector-curvature="0" />
    <path
       style="fill:#000000;fill-opacity:1;fill-rule:evenodd;stroke:#000000;stroke-width:1px;stroke-linecap:butt;stroke-linejoin:miter;stroke-opacity:1"
       d="m 45,967.36216 -30,15 30,15 -10,-15 10,-15"
       id="path4176"
       inkscape:connector-curvature="0" />
    <path
       style="fill:#000000;fill-opacity:1;fill-rule:evenodd;stroke:#000000;stroke-width:1px;stroke-linecap:butt;stroke-linejoin:miter;stroke-opacity:1"
       d="m 35,987.36216 15,30.00004 15,-30.00004 -15,10 z"
       id="path4178"
       inkscape:connector-curvature="0" />
    <path
       style="fill:#000000;fill-opacity:1;fill-rule:evenodd;stroke:#000000;stroke-width:1px;stroke-linecap:butt;stroke-linejoin:miter;stroke-opacity:1"
       d="m 55,997.36216 30,-15 -30,-15 10,15 z"
       id="path4180"
       inkscape:connector-curvature="0" />
    <path
       style="fill:#000000;fill-opacity:1;fill-rule:evenodd;stroke:#000000;stroke-width:1px;stroke-linecap:butt;stroke-linejoin:miter;stroke-opacity:1"
       d="m 35,977.36216 -5,-15 15,5 z"
       id="path4182"
       inkscape:connector-curvature="0" />
    <path
       style="fill:#000000;fill-opacity:1;fill-rule:evenodd;stroke:#000000;stroke-width:1px;stroke-linecap:butt;stroke-linejoin:miter;stroke-opacity:1"
       d="m 55,967.36216 15,-5 -5,15 z"
       id="path4184"
       inkscape:connector-curvature="0" />
    <path
       style="fill:#000000;fill-opacity:1;fill-rule:evenodd;stroke:#000000;stroke-width:1px;stroke-linecap:butt;stroke-linejoin:miter;stroke-opacity:1"
       d="m 65,987.36216 5,15.00004 -15,-5.00004 z"
       id="path4186"
       inkscape:connector-curvature="0" />
    <path
       style="fill:#000000;fill-opacity:1;fill-rule:evenodd;stroke:#000000;stroke-width:1px;stroke-linecap:butt;stroke-linejoin:miter;stroke-opacity:1"
       d="m 45,997.36216 -15,5.00004 5,-15.00004 10,10"
       id="path4188"
       inkscape:connector-curvature="0" />
    <path
       style="fill:#000000;fill-opacity:1;fill-rule:evenodd;stroke:none;stroke-width:1px;stroke-linecap:butt;stroke-linejoin:miter;stroke-opacity:1"
       d="m 89.747462,977.46367 c 0,0 -4.747462,-50.10153 -39.848987,-55.35407 L 75,922.36214 c 20,15 15.706852,30.75761 15.706852,30.75761 z"
       id="path4152"
       inkscape:connector-curvature="0"
       sodipodi:nodetypes="ccccc" />
    <path
       style="fill:#000000;fill-opacity:1;fill-rule:evenodd;stroke:none;stroke-width:1px;stroke-linecap:butt;stroke-linejoin:miter;stroke-opacity:1"
       d="m 10.232482,987.56774 c 0,0 4.767518,49.79436 39.596446,54.84896 l -25.101523,-0.2526 c -19.9999997,-15 -15.7068497,-30.7576 -15.7068497,-30.7576 z"
       id="path4152-3"
       inkscape:connector-curvature="0"
       sodipodi:nodetypes="ccccc" />
    <path
       style="fill:#000000;fill-opacity:1;fill-rule:evenodd;stroke:none;stroke-width:1px;stroke-linecap:butt;stroke-linejoin:miter;stroke-opacity:1"
       d="m 10,937.36214 c -4e-7,-15 10.706852,-15 10.706852,-15 l 13.989847,0 c 0,0 -19.696699,5 -24.696699,30 z"
       id="path4171"
       inkscape:connector-curvature="0"
       sodipodi:nodetypes="ccccc" />
    <path
       style="fill:#000000;fill-opacity:1;fill-rule:evenodd;stroke:none;stroke-width:1px;stroke-linecap:butt;stroke-linejoin:miter;stroke-opacity:1"
       d="m 80.050763,1042.1096 c 0,0 9.949237,0.2525 9.949237,-14.7475 l 0,-15 c -5,25 -24.696699,30 -24.696699,30 z"
       id="path4173"
       inkscape:connector-curvature="0"
       sodipodi:nodetypes="ccccc" />
    <circle
       style="fill:#000000;fill-opacity:1;stroke:none;stroke-width:0.99900001;stroke-linecap:square;stroke-linejoin:miter;stroke-miterlimit:4;stroke-dasharray:none;stroke-opacity:1"
       id="path4175"
       cx="49.999996"
       cy="922.36212"
       r="7.9796948" />
    <circle
       style="fill:#000000;fill-opacity:1;stroke:none;stroke-width:0.99900001;stroke-linecap:square;stroke-linejoin:miter;stroke-miterlimit:4;stroke-dasharray:none;stroke-opacity:1"
       id="path4177"
       cx="49.999996"
       cy="1042.3622"
       r="7.9796948" />
  </g>
</svg>
