<?xml version="1.0" encoding="UTF-8" standalone="no"?>
<!-- Created with Inkscape (http://www.inkscape.org/) -->

<svg
   xmlns:dc="http://purl.org/dc/elements/1.1/"
   xmlns:cc="http://creativecommons.org/ns#"
   xmlns:rdf="http://www.w3.org/1999/02/22-rdf-syntax-ns#"
   xmlns:svg="http://www.w3.org/2000/svg"
   xmlns="http://www.w3.org/2000/svg"
   xmlns:sodipodi="http://sodipodi.sourceforge.net/DTD/sodipodi-0.dtd"
   xmlns:inkscape="http://www.inkscape.org/namespaces/inkscape"
   width="160"
   height="160.24992"
   viewBox="0 0 160 160.24992"
   id="svg4223"
   version="1.1"
   inkscape:version="0.91 r13725"
   sodipodi:docname="icon_nav_deck.svg">
  <defs
     id="defs4225" />
  <sodipodi:namedview
     id="base"
     pagecolor="#ffffff"
     bordercolor="#666666"
     borderopacity="1.0"
     inkscape:pageopacity="0.0"
     inkscape:pageshadow="2"
     inkscape:zoom="2.8"
     inkscape:cx="100.69724"
     inkscape:cy="88.598412"
     inkscape:document-units="px"
     inkscape:current-layer="layer1"
     showgrid="true"
     units="px"
     inkscape:window-width="1680"
     inkscape:window-height="987"
     inkscape:window-x="-8"
     inkscape:window-y="-8"
     inkscape:window-maximized="1"
     fit-margin-top="7"
     fit-margin-left="0"
     fit-margin-right="0"
     fit-margin-bottom="7">
    <inkscape:grid
       type="xygrid"
       id="grid4771"
       originx="-20.000003"
       originy="-21.75006" />
  </sodipodi:namedview>
  <metadata
     id="metadata4228">
    <rdf:RDF>
      <cc:Work
         rdf:about="">
        <dc:format>image/svg+xml</dc:format>
        <dc:type
           rdf:resource="http://purl.org/dc/dcmitype/StillImage" />
        <dc:title></dc:title>
      </cc:Work>
    </rdf:RDF>
  </metadata>
  <g
     inkscape:label="Layer 1"
     inkscape:groupmode="layer"
     id="layer1"
     transform="translate(-20,-870.36227)">
    <path
       style="fill:#000000;fill-opacity:1;fill-rule:evenodd;stroke:#000000;stroke-width:0.26369107px;stroke-linecap:butt;stroke-linejoin:miter;stroke-opacity:1"
       d="M 83.429688,94.347656 C 75.744936,98.502927 68.283203,104.40009 68.283203,111.65625 l 0,3.34375 63.437497,0 0,-3.34375 c 0,-7.18648 -7.31967,-13.040923 -14.92578,-17.189453 a 21.552117,21.552117 0 0 1 -16.63281,7.865233 21.552117,21.552117 0 0 1 -16.732422,-7.984374 z"
       transform="translate(0,852.36227)"
       id="path4157-6-9"
       inkscape:connector-curvature="0" />
    <circle
       style="fill:#000000;fill-opacity:1;stroke:#000000;stroke-width:0.47021535;stroke-linecap:square;stroke-linejoin:miter;stroke-miterlimit:4;stroke-dasharray:none;stroke-opacity:1"
       id="path4761"
       cx="100.14739"
       cy="933.12787"
       r="17.650724" />
    <path
       style="fill:#000000;fill-opacity:1;stroke:none;stroke-width:0.99900001;stroke-linecap:square;stroke-linejoin:miter;stroke-miterlimit:4;stroke-dasharray:none;stroke-opacity:1"
       d="m 20,45 0,80 160,0 0,-80 -160,0 z m 15,15 130,0 0,50 -130,0 0,-50 z"
       transform="translate(0,852.36227)"
       id="rect5350"
       inkscape:connector-curvature="0" />
    <path
       style="fill:#000000;fill-opacity:1;fill-rule:evenodd;stroke:none;stroke-width:1px;stroke-linecap:butt;stroke-linejoin:miter;stroke-opacity:1"
       d="m 40,130 0,30 10,0 c 24.999994,14.9999 74.99999,14.9999 100,0 l 10,0 0,-30 -120,0 z m 60,5 a 15.000002,15.000002 0 0 1 15,15 15.000002,15.000002 0 0 1 -15,15 15.000002,15.000002 0 0 1 -15,-15 15.000002,15.000002 0 0 1 15,-15 z"
       transform="translate(0,852.36227)"
       id="path5366"
       inkscape:connector-curvature="0" />
    <path
       style="fill:#000000;fill-opacity:1;fill-rule:evenodd;stroke:none;stroke-width:1px;stroke-linecap:butt;stroke-linejoin:miter;stroke-opacity:1"
       d="m 40,892.36227 0,-15 120,0 0,15 z"
       id="path5368"
       inkscape:connector-curvature="0" />
  </g>
</svg>
