<?xml version="1.0" encoding="UTF-8" standalone="no"?>
<svg
   xmlns:dc="http://purl.org/dc/elements/1.1/"
   xmlns:cc="http://creativecommons.org/ns#"
   xmlns:rdf="http://www.w3.org/1999/02/22-rdf-syntax-ns#"
   xmlns:svg="http://www.w3.org/2000/svg"
   xmlns="http://www.w3.org/2000/svg"
   xmlns:sodipodi="http://sodipodi.sourceforge.net/DTD/sodipodi-0.dtd"
   xmlns:inkscape="http://www.inkscape.org/namespaces/inkscape"
   id="Layer_1"
   data-name="Layer 1"
   viewBox="0 0 102.31227 101.24587"
   version="1.1"
   inkscape:version="0.91 r13725"
   sodipodi:docname="icon_set_classic.svg"
   width="102.31227"
   height="101.24586">
  <metadata
     id="metadata4147">
    <rdf:RDF>
      <cc:Work
         rdf:about="">
        <dc:format>image/svg+xml</dc:format>
        <dc:type
           rdf:resource="http://purl.org/dc/dcmitype/StillImage" />
        <dc:title>icon-classic</dc:title>
      </cc:Work>
    </rdf:RDF>
  </metadata>
  <sodipodi:namedview
     pagecolor="#ffffff"
     bordercolor="#666666"
     borderopacity="1"
     objecttolerance="10"
     gridtolerance="10"
     guidetolerance="10"
     inkscape:pageopacity="0"
     inkscape:pageshadow="2"
     inkscape:window-width="1680"
     inkscape:window-height="990"
     id="namedview4145"
     showgrid="false"
     fit-margin-top="10"
     fit-margin-bottom="10"
     fit-margin-left="14"
     fit-margin-right="14"
     inkscape:zoom="4.8516193"
     inkscape:cx="-7.5730127"
     inkscape:cy="27.263912"
     inkscape:window-x="-8"
     inkscape:window-y="-8"
     inkscape:window-maximized="1"
     inkscape:current-layer="Layer_1" />
  <defs
     id="defs4137">
    <style
       id="style4139">.cls-1{fill:#4582c3;}</style>
  </defs>
  <title
     id="title4141">icon-classic</title>
  <path
     class="cls-1"
     d="m 87.845848,42.95032 c 3.6,22.34 -14.76,37.07 -16.69,38.56 -12.254949,8.044365 -31.474339,11.016383 -44.458591,5.284467 -6.874333,-3.034684 -9.088109,-5.906599 -9.10481,-7.855774 0.68,-0.91 3.955643,-0.429343 6.363401,0.225292 2.407758,0.654635 3.63644,0.945806 8.035051,1.418008 8.700545,0.934026 20.968934,-2.359037 27.354949,-7.221993 1.45,-1.23 10.47,-9.2 10.36,-22 0,-1.08 -0.4,-17.57 -13.23,-23.46 -8,-3.69 -19.87,-2.71 -24.75,4.61 -2.88,4.23 -3.82,11.44 0,15.76 3,3.41 8.75,4.88 10.93,2.88 2.66,-2.43 1.16646,-5.744365 1.3,-10.93 4.164226,-0.649416 7.898934,2.017285 9.800584,4.708693 1.859657,3.196942 2.598248,8.789416 1.629657,12.019657 -3,8.36 -15.910241,11.57165 -25.850241,7.73165 -12.4,-4.79 -18.17,-21.52 -14.39,-34 4.86,-16 24.75,-22.3999997 39.57,-20.29 16.907452,2.577024 30.25997,15.699813 33.13,32.56 z"
     id="path4143"
     style="fill:#000000;fill-opacity:1"
     inkscape:connector-curvature="0"
     sodipodi:nodetypes="ccsczsccccccccccccc" />
</svg>
