<svg id="Layer_1" data-name="Layer 1" xmlns="http://www.w3.org/2000/svg" viewBox="0 0 68.51 76.13"><title>icon_set_tgt3</title><path d="M97.31,31.88a82,82,0,0,1-19.6-2.39C71.8,27.9,66.28,25.49,60,26s-11.47,3.42-17.52,4.55a66.47,66.47,0,0,1-12.84,1.16,0.45,0.45,0,0,0-.46.45V45.65A52.2,52.2,0,0,0,30,55.14a95.94,95.94,0,0,0,5.9,20.35,35.73,35.73,0,0,0,6,9.55c2.88,3.27,6,6.34,9.1,9.39a81.82,81.82,0,0,0,8.58,7,3.1,3.1,0,0,0,1.88.63,5.53,5.53,0,0,0,1.67-.48c2.16-.7,9.78-6.69,12.15-8.42l0.13-.11a47.63,47.63,0,0,0,13-17.16A116.26,116.26,0,0,0,97,47.31a52.49,52.49,0,0,0,.65-8.41V32.28A0.4,0.4,0,0,0,97.31,31.88ZM88.43,45A41.37,41.37,0,0,1,88,51.38,90.8,90.8,0,0,1,81.73,73a35.94,35.94,0,0,1-9.47,13l-0.09.08c-1.72,1.3-7.26,5.84-8.83,6.37a3.89,3.89,0,0,1-1.21.37,2.2,2.2,0,0,1-1.36-.48,60,60,0,0,1-6.23-5.31c-2.22-2.31-4.52-4.63-6.61-7.11a27.24,27.24,0,0,1-4.37-7.23,75,75,0,0,1-4.29-15.4,41.14,41.14,0,0,1-.6-7.18V39.94A0.34,0.34,0,0,1,39,39.6a46.39,46.39,0,0,0,9.32-.88c4.39-.85,8.22-3,12.72-3.44s8.57,1.41,12.86,2.61A57.3,57.3,0,0,0,88.14,39.7a0.3,0.3,0,0,1,.28.3v5Z" transform="translate(-29.19 -25.96)"/></svg>