<?xml version="1.0" encoding="UTF-8" standalone="no"?>
<!-- Created with Inkscape (http://www.inkscape.org/) -->

<svg
   xmlns:dc="http://purl.org/dc/elements/1.1/"
   xmlns:cc="http://creativecommons.org/ns#"
   xmlns:rdf="http://www.w3.org/1999/02/22-rdf-syntax-ns#"
   xmlns:svg="http://www.w3.org/2000/svg"
   xmlns="http://www.w3.org/2000/svg"
   xmlns:sodipodi="http://sodipodi.sourceforge.net/DTD/sodipodi-0.dtd"
   xmlns:inkscape="http://www.inkscape.org/namespaces/inkscape"
   width="224.45372"
   height="224.50452"
   viewBox="0 0 224.45371 224.50451"
   id="svg4766"
   version="1.1"
   inkscape:version="0.91 r13725"
   sodipodi:docname="icon_set_hof.svg">
  <defs
     id="defs4768">
    <style
       id="style4139">.cls-1{fill:#4582c3;}</style>
  </defs>
  <sodipodi:namedview
     id="base"
     pagecolor="#ffffff"
     bordercolor="#666666"
     borderopacity="1.0"
     inkscape:pageopacity="0.0"
     inkscape:pageshadow="2"
     inkscape:zoom="1.4142136"
     inkscape:cx="-2.4902987"
     inkscape:cy="121.13397"
     inkscape:document-units="px"
     inkscape:current-layer="layer1"
     showgrid="true"
     units="px"
     inkscape:window-width="1680"
     inkscape:window-height="987"
     inkscape:window-x="-8"
     inkscape:window-y="-8"
     inkscape:window-maximized="1"
     fit-margin-top="16"
     fit-margin-left="16"
     fit-margin-right="16"
     fit-margin-bottom="16"
     showguides="true"
     inkscape:guide-bbox="true">
    <inkscape:grid
       type="xygrid"
       id="grid5314"
       originx="12.344104"
       originy="12.496718" />
    <sodipodi:guide
       position="112.3441,102.49672"
       orientation="1,0"
       id="guide4174" />
    <sodipodi:guide
       position="172.3441,112.49672"
       orientation="0,1"
       id="guide4176" />
  </sodipodi:namedview>
  <metadata
     id="metadata4771">
    <rdf:RDF>
      <cc:Work
         rdf:about="">
        <dc:format>image/svg+xml</dc:format>
        <dc:type
           rdf:resource="http://purl.org/dc/dcmitype/StillImage" />
        <dc:title></dc:title>
      </cc:Work>
    </rdf:RDF>
  </metadata>
  <g
     inkscape:label="Layer 1"
     inkscape:groupmode="layer"
     id="layer1"
     transform="translate(12.344105,-840.35449)">
    <path
       style="fill:#000000;fill-opacity:1;stroke:#000000;stroke-width:0.66038811;stroke-linecap:square;stroke-linejoin:miter;stroke-miterlimit:4;stroke-dasharray:none;stroke-opacity:1"
       d="M 112.37305 6.8984375 L 87.246094 50.865234 A 66.10492 66.10492 0 0 0 79.158203 54.892578 L 46.505859 45.986328 L 55.398438 78.589844 A 66.10492 66.10492 0 0 0 50.392578 89.087891 A 98.802021 98.802021 0 0 1 50.869141 87.039062 L 6.8691406 112.18359 L 51.246094 137.54102 A 98.802021 98.802021 0 0 1 50.998047 136.42578 A 66.10492 66.10492 0 0 0 55.332031 145.2832 L 46.445312 177.87109 L 79.039062 168.98242 A 66.10492 66.10492 0 0 0 86.771484 172.86328 L 112.30859 217.54883 L 137.77344 172.98633 A 66.10492 66.10492 0 0 0 145.66797 169 L 178.39258 177.92383 L 169.45117 145.13672 A 66.10492 66.10492 0 0 0 173.37891 137.25 L 217.34766 112.12695 L 173.55859 87.103516 A 66.10492 66.10492 0 0 0 169.47461 78.830078 L 178.40625 46.080078 L 145.70703 54.998047 A 66.10492 66.10492 0 0 0 137.14844 50.744141 A 100.96509 100.96509 0 0 1 137.46875 50.818359 L 112.37305 6.8984375 z M 113.0625 72.896484 C 115.03418 72.892168 116.96586 73.023359 118.81836 73.287109 C 135.7258 75.864129 149.07724 88.985523 151.94727 105.8457 C 155.54727 128.1857 137.18781 142.91625 135.25781 144.40625 C 123.00287 152.45061 103.78308 155.42333 90.798828 149.69141 C 83.924498 146.65673 81.712012 143.78511 81.695312 141.83594 C 82.375313 140.92594 85.650834 141.40592 88.058594 142.06055 C 90.466354 142.71519 91.69514 143.00632 96.09375 143.47852 C 104.79429 144.41254 117.06127 141.11881 123.44727 136.25586 C 124.89727 135.02586 133.91859 127.05586 133.80859 114.25586 C 133.80859 113.17586 133.40812 96.686865 120.57812 90.796875 C 112.57812 87.106875 100.70813 88.08626 95.828125 95.40625 C 92.948125 99.63625 92.008125 106.84602 95.828125 111.16602 C 98.828125 114.57602 104.57781 116.04688 106.75781 114.04688 C 109.41781 111.61688 107.92505 108.30283 108.05859 103.11719 C 112.22281 102.46778 115.95772 105.13281 117.85938 107.82422 C 119.71903 111.02116 120.45688 116.61546 119.48828 119.8457 C 116.48828 128.2057 103.57867 131.41617 93.638672 127.57617 C 81.238672 122.78617 75.468047 106.05617 79.248047 93.576172 C 83.500547 79.576181 99.260746 72.926699 113.0625 72.896484 z "
       transform="translate(-12.344113,840.35449)"
       id="path5318" />
  </g>
</svg>
