<svg id="2fb4b309-673f-43c3-967b-a6f133c353da" data-name="svg4263" xmlns="http://www.w3.org/2000/svg" viewBox="0 0 531.15601 615.56876"><defs><style>.d58c861d-dfd2-495a-8c60-7beb98251ca7{stroke:#000;stroke-width:2.03793px;}</style></defs><title>icon_set_tgt2</title><g id="5ce7fc63-7cbe-4719-beec-e1339875c288" data-name="layer1"><path id="2c76c157-3e45-4019-8f31-213caf841a4b" data-name="path3396" class="d58c861d-dfd2-495a-8c60-7beb98251ca7" d="M305.88414,401.3919V627.84019c24.24492-19.38789,48.71582-38.54692,72.81965-58.07774,10.96375-13.68272,22.46438-27.01519,33.09338-40.91626,7.60273-15.43706,16.091-30.46294,23.08042-46.18482,7.32759-17.77129,15.148-35.36831,22.16748-53.24849l8.58809-29.66792-159.749,1.6469v0Zm-159.749-16.469c-3.46888-10.23479-8.38712-20.05273-10.02231-30.81489a122.33219,122.33219,0,0,1-3.33912-23.80271,193.68025,193.68025,0,0,1,.51855-38.35505,225.3523,225.3523,0,0,0,1.31464-30.97014V248.2305c17.62512-1.44109,35.40848-1.94622,52.80121-5.24871a128.5351,128.5351,0,0,0,22.85984-9.25308c8.94719-4.43689,18.62617-7.1688,28.06816-10.34668,6.82671-1.77368,13.49944-4.504,20.42488-5.66477,12.51377-.29373,25.03872-1.30347,37.52744.01145,1.29888,1.719.14768,5.73982,0.53777,8.31265V393.15684H152.72278q-3.29376-4.11724-6.5876-8.23447v0.00056ZM299.87405,119.146c-29.30127.02144-58.62351,2.44888-87.74248,5.75715-26.06608,7.38464-49.01688,22.72471-74.74744,31.31089-29.69168,11.17048-61.80192,6.00541-92.80864,7.15505-0.64456,37.92988-4.84232,75.925-1.68448,113.812-0.3776,27.21685,6.425,53.48325,12.07152,79.90281,6.19848,36.99722,18.4976,72.39231,29.72192,108.07083,11.359,29.40859,27.60632,56.85479,40.8956,85.488,10.35464,26.32437,30.41936,46.57788,46.89464,69.07627,14.765,22.10752,34.69071,39.53823,53.97658,57.54922,20.95825,22.79219,48.315,37.58232,73.41641,55.19292l56.5749-37.71445c26.59353-22.27481,51.05259-47.24639,76.82681-70.557,19.96377-21.13022,35.7603-46.0355,54.04976-68.68145,14.2457-25.09038,24.53569-52.55518,37.24956-78.56538,15.52534-28.76245,22.29536-60.79468,31.79487-91.80879,6.96152-18.38313,8.96182-37.681,9.85215-57.17988,5.596-48.9572,3.4792-98.217,3.83706-147.38061,4.57017-14.72687-11.73208-8.58145-20.7105-9.75977a211.05675,211.05675,0,0,1-62.27788-7.79191c-25.13193-10.11954-48.31631-25.23135-74.16475-34.008-19.47229-5.00391-40.33484-4.23506-60.35142-6.97991a450.34924,450.34924,0,0,0-52.67412-2.88812Zm1.89785,63.558a348.58989,348.58989,0,0,1,40.77451,2.23853c15.49519,2.12483,31.64568,1.53009,46.71956,5.40371,20.00977,6.79417,37.95723,18.4906,57.41235,26.32432a163.38008,163.38008,0,0,0,48.20982,6.03418c6.95034,0.91216,19.57378-3.84727,16.036,7.55308-0.277,38.05852,1.35786,76.19358-2.97412,114.09229-0.68916,15.09451-2.23726,30.03059-7.62632,44.26133-7.35381,24.00862-12.59272,48.80725-24.61118,71.07283-9.842,20.135-17.80889,41.39658-28.83672,60.81948-14.1582,17.53066-26.38691,36.80718-41.84126,53.1645-19.9523,18.04522-38.886,37.37642-59.47256,54.61973l-43.79641,29.19653C282.334,643.85182,261.157,632.40186,244.93277,614.758c-14.92952-13.94268-30.354-27.434-41.78392-44.5479-12.75392-17.41646-28.28488-33.09839-36.30065-53.47656-10.28752-22.16553-22.86472-43.40967-31.658-66.17544-8.689-27.61943-18.21112-55.02-23.00952-83.66026-4.371-20.45188-9.635-40.78528-9.34264-61.85437-2.44448-29.32913.80344-58.74324,1.3024-88.10549,24.003-.88994,48.85848,3.10986,71.84345-5.53743,19.91848-6.64674,37.68616-18.522,57.86448-24.23864,22.54153-2.561,45.241-4.44139,67.92361-4.458Z" transform="translate(-40.70809 -118.12685)"/></g></svg>