<svg id="Layer_1" data-name="Layer 1" xmlns="http://www.w3.org/2000/svg" viewBox="0 0 49.76 57.63"><defs><style>.cls-1{fill:#fff;}</style></defs><title>icon_set_tgt4</title><path class="cls-1" d="M88.14,39.7a0.3,0.3,0,0,1,.28.3v5A41.37,41.37,0,0,1,88,51.38,90.8,90.8,0,0,1,81.73,73a35.94,35.94,0,0,1-9.47,13l-0.09.08c-1.72,1.3-7.26,5.84-8.83,6.37a3.89,3.89,0,0,1-1.21.37h0a2.2,2.2,0,0,1-1.36-.48,60,60,0,0,1-6.23-5.31c-2.22-2.31-4.52-4.63-6.61-7.11a27.24,27.24,0,0,1-4.37-7.23,75,75,0,0,1-4.29-15.4,41.13,41.13,0,0,1-.6-7.18V39.94A0.34,0.34,0,0,1,39,39.6a46.38,46.38,0,0,0,9.32-.88c4.39-.85,8.22-3,12.72-3.44s8.57,1.41,12.86,2.61A57.3,57.3,0,0,0,88.14,39.7Zm-44,20.63,18.14,0.2V38.84h0q-0.41,0-.84,0c-3.69.35-6.82,2.19-10.42,2.92a36.75,36.75,0,0,1-7.63.74,0.28,0.28,0,0,0-.27.29v8.62a36,36,0,0,0,.5,6.08q0.24,1.4.52,2.78l0,0.21m17.94,27.1H62.3a3.11,3.11,0,0,0,1-.31c1.28-.45,5.82-4.29,7.23-5.39l0.08-.07a30.4,30.4,0,0,0,7.76-11,79.16,79.16,0,0,0,3.43-10.25l0,0.13-19.49-.22V87.64" transform="translate(-38.67 -35.22)"/></svg>